<?xml version="1.0" encoding="utf-8"?>
<!-- Generator: Adobe Illustrator 25.0.0, SVG Export Plug-In . SVG Version: 6.00 Build 0)  -->
<svg version="1.1" id="Capa_1" xmlns="http://www.w3.org/2000/svg" xmlns:xlink="http://www.w3.org/1999/xlink" x="0px" y="0px"
	 viewBox="0 0 400 400" style="enable-background:new 0 0 400 400;" xml:space="preserve">
<g>
	<path d="M239,237.84c-3.45,1.01-6.62,1.93-10.24,2.99c0.64,9.65,1.27,19.18,1.87,28.39c-3.17-2.84-6.5-5.59-9.54-8.62
		c-6.01-5.97-11.92-12.04-17.72-18.21c-1.19-1.27-2.36-3.13-2.44-4.77c-1.14-23.76-2.59-47.52-2.88-71.29
		c-0.17-13.81,1.48-27.65,2.61-41.46c0.25-2.99-1-4.56-2.91-6.26c-25.96-23.03-46.19-50.46-62.29-81.09
		c-1.48-2.82-1.82-5.11-0.44-8.1c3.03-6.61,2.21-9.44-4.52-18.83c2.64-4.33,6.71-6.27,11.64-6.08c5.73,0.22,9.56,3.38,12.33,8.4
		c7.51,13.63,14.61,27.55,23.08,40.58c13.03,20.06,29.09,37.62,48.11,52.25c3.6,2.77,8.01,4.77,12.35,6.24
		c7.43,2.52,15.21,4,22.61,6.59c3.51,1.23,7.3,3.38,9.56,6.23c12.15,15.3,23.86,30.94,35.7,46.48c7.12,9.34,4.33,19.46-6.61,23.43
		c-19.02,6.9-38.07,13.69-57.17,20.35c-4.92,1.72-10.12,2.38-14.45-1.54c-3.99-3.61-5.22-8.35-4.1-13.56
		c1.08-5.05,4.66-7.88,9.26-9.63c12.38-4.71,24.77-9.41,37.15-14.11c1.08-0.41,2.15-0.84,3.76-1.47
		c-4.7-6.13-9.21-12.01-13.73-17.89c-0.33,0.12-0.65,0.24-0.98,0.36c0,5.62,0,11.24,0,16.78c-10.22,3.91-20.1,7.38-29.72,11.45
		c-13.71,5.79-16.41,22.89-5.31,32.73c5.63,4.99,12.27,4.95,18.98,2.89c6.25-1.92,12.37-4.23,19.1-6.57c0.52,2.13,1,4.03,1.44,5.93
		c10.23,44.62,28.53,85.76,53.38,124.1c5.55,8.56,11.03,17.17,16.48,25.8c4.75,7.51,3.44,15.86-3.04,20.06
		c-7.21,4.67-15.15,2.7-20.23-5.2c-17.07-26.59-34.56-52.93-47.45-81.97c-8.82-19.86-16.28-40.18-22.27-61.06
		C239.97,240.76,239.5,239.4,239,237.84z"/>
	<path d="M183.86,327.17c6.77,16.32,14.55,31.41,24.33,45.45c6.47,9.28,2.56,20.34-8.04,22.55c-6.73,1.41-11.49-1.95-15.12-7.28
		c-9.78-14.36-18.08-29.52-24.79-45.56c-1.17-2.81-2.35-5.62-3.61-8.61c-5,0.54-9.87,1.06-15.17,1.64
		c1.28,11.42,2.52,22.54,3.77,33.66c0.46,4.05,1.21,8.1,1.35,12.16c0.27,7.87-5.23,13.8-12.88,14.3
		c-6.93,0.46-13.46-4.79-14.36-12.01c-1.91-15.33-3.75-30.68-5.2-46.06c-0.31-3.25-1.51-4.13-4.23-4.68
		c-11.69-2.38-22.51-6.84-32.63-13.86c12.37-28.79,20.16-58.77,22.89-90.65c2.44-0.73,5.16-1.55,7.88-2.35
		c17.86-5.28,35.74-10.5,53.57-15.9c2.5-0.76,4-0.28,5.71,1.55c21.55,23.01,43.17,45.96,64.77,68.92c1.29,1.37,2.6,2.73,3.9,4.09
		C224.22,305.49,206.14,318.51,183.86,327.17z"/>
	<path d="M152.2,183.57c-0.8-4.17-1.54-8-2.29-11.93c-0.53,0.26-0.96,0.35-0.98,0.5c-0.77,6.52-5.52,8.13-10.95,9.64
		c-12.6,3.5-25.06,7.49-38.15,11.45c-2.33-14.76,1.21-28.24,5.89-40.38c-8.36-9-16.75-17.11-24.04-26.11
		c-8.03-9.91-13.43-21.44-17.1-33.72c-1.44-4.8-0.88-8.98,2.1-13.19c14.58-20.57,29-41.25,43.42-61.93
		c2.73-3.92,6.44-5.28,10.98-4.77c4.38,0.49,7.06,3.26,8.75,7.05c2.1,4.72-0.56,8.55-2.92,12.16c-3.98,6.1-8.32,11.96-12.5,17.92
		c-8.62,12.29-17.32,24.52-25.76,36.93c-0.99,1.46-1.32,4.17-0.69,5.82c4.95,12.84,12.54,24.04,22.67,33.33
		c2.29,2.1,5.8,3.38,8.94,3.94c12.74,2.29,25.56,4.15,38.35,6.17c5.49,0.87,8.42,4.35,9.45,9.55c2.72,13.71,5.45,27.42,8.01,41.16
		c1.61,8.65-1.16,13-9.42,15.43c-24.01,7.06-48.02,14.1-72.04,21.11c-7.05,2.06-13.12-0.71-14.9-6.68
		c-1.92-6.43,1.45-12.27,8.62-14.4c20.08-5.97,40.2-11.82,60.3-17.72C149.18,184.56,150.41,184.14,152.2,183.57z"/>
	<path d="M264.24,74.73c-0.08,15.88-12.22,28.06-27.9,27.99c-15.42-0.07-27.69-12.77-27.55-28.52c0.15-15.91,12.34-27.99,28.1-27.85
		C252.8,46.49,264.32,58.44,264.24,74.73z"/>
	<path d="M129.53,74.44c12.23-3.06,22.68,0.62,28.16,9.74c5.6,9.32,4.52,21.28-2.63,29.24c-6.91,7.69-18.02,9.96-27.56,5.64
		c-9.96-4.52-14.72-14.44-13.09-27.28c-10.61-4.43-13.95-8.61-12.99-16.29c0.81-6.5,5.03-11.07,11.3-12.23
		C119.79,61.95,125.18,65.49,129.53,74.44z"/>
	<path d="M233.56,301.58c0.96,7.38,1.87,16.06,3.27,24.66c2.7,16.64,5.5,33.28,8.61,49.85c1.79,9.54-1.13,16.22-8.98,18.64
		c-7.71,2.38-15.62-1.67-17.24-9.62c-3.22-15.81-5.98-31.72-8.78-47.61c-0.88-5.01-3.03-10.81-1.38-14.96
		c1.61-4.04,7.4-6.37,11.25-9.58C224.89,309.15,229.36,305.2,233.56,301.58z"/>
</g>
</svg>
