<?xml version="1.0" encoding="utf-8"?>
<!-- Generator: Adobe Illustrator 25.0.0, SVG Export Plug-In . SVG Version: 6.00 Build 0)  -->
<svg version="1.1" id="Capa_1" xmlns="http://www.w3.org/2000/svg" xmlns:xlink="http://www.w3.org/1999/xlink" x="0px" y="0px"
	 viewBox="0 0 338.2 310.3" style="enable-background:new 0 0 338.2 310.3;" xml:space="preserve">
<g>
	<path d="M179.7,148.5c17.7,0,35.5,0,53.2,0c20.6,0,41.1,0,61.7,0c2.7,0,5.5,0,8.2,0c2.4,0,3.7,0.9,4.4,3.2
		c1.7,5.2,4.1,10.1,7.6,14.3c5.2,6.3,11.8,10.5,19.4,13.5c1,0.4,2.1,0.8,2.8,1.6c0.6,0.7,1.1,1.8,1.1,2.8c0.1,13.5,0,27.1,0,40.6
		c0,8.7,0,17.5,0,26.2c0,7.7,0,15.5,0,23.2c0,2.9-0.7,3.9-3.4,5c-6.1,2.3-11.7,5.4-16.4,9.9c-5.1,4.8-8.6,10.6-10.9,17.3
		c-1.1,3.3-2.1,4-5.6,4c-28.7,0-57.3,0-86,0c-26.2,0-52.4,0-78.6,0c-25.7,0-51.4,0-77.1,0c-1.2,0-2.4,0-3.6,0
		c-2.6,0-3.9-0.9-4.8-3.5c-1.5-4.5-3.5-8.7-6.4-12.5c-4.7-6.3-10.8-10.7-17.8-13.8c-1.3-0.6-2.5-1.1-3.8-1.6
		c-1.9-0.7-2.8-2.1-2.8-4.1c0-14.8,0-29.5,0-44.3c0-9.7,0-19.3,0-29c0-5.6,0-11.3,0-16.9c0-2.7,0.8-3.9,3.3-4.8
		c6.9-2.6,13.2-6.3,18.3-11.7c4.3-4.6,7.3-10,9.3-16c0.9-2.7,2-3.5,4.9-3.5c20.7,0,41.4,0,62.1,0
		C139.1,148.6,159.4,148.6,179.7,148.5C179.7,148.6,179.7,148.5,179.7,148.5z M58.9,301.8c80,0,159.8,0,239.6,0
		c0.5-4.1,0.6-4.2,3.1-4c2-3.1,3.7-6.2,5.9-9.1c5.5-7.3,12.7-12.4,21-16.1c1.1-0.5,1.4-1,1.4-2.2c0-26.9-0.1-53.8,0-80.7
		c0-2.3-0.7-3.4-2.8-4.3c-8.3-3.7-15.2-9.1-20.4-16.5c-1.8-2.6-3.3-5.3-5-8.1c-0.9,0.3-2.1,0.3-2.6-0.8c-0.4-0.9-0.4-2.1-0.6-3.2
		c-79.8,0-159.6,0-239.5,0c0,0.7,0.1,1.4,0,1.9c-0.2,0.7-0.6,1.3-1,1.8c-0.4,0.5-0.9,0.9-1.2,1.4c-1.9,3.7-4.2,7.2-6.9,10.3
		c-5.3,6.1-11.7,10.5-19,13.6c-1.1,0.5-1.5,1-1.5,2.3c0.1,12,0,24.1,0,36.1c0,15.4,0,30.8,0,46.2c0,0.9,0.2,1.4,1.1,1.7
		c4.7,2.1,9.2,4.6,13.1,8c5.3,4.5,9.8,9.5,12.9,15.7c0.4,0.8,0.8,1.6,1.7,2.1c0.4,0.2,0.6,1.1,0.8,1.7C59,300.4,58.9,301,58.9,301.8
		z"/>
	<path d="M284.1,116.3c-0.7-1-1.5-1.8-1.8-2.8c-0.4-1.2,0.6-1.9,1.5-2.4c-0.5-2.4-1.2-4.7-1.6-7.1c-1.4-7.7-0.9-15.3,1.3-22.7
		c0.7-2.5,1.7-4.9,2.6-7.3c0.3-0.8,0.3-1.3-0.3-1.9c-6.3-6.7-12.6-13.4-18.9-20.1c-7.7-8.2-15.4-16.5-23.2-24.7
		c-4.9-5.3-9.9-10.5-14.8-15.8c-0.5-0.6-0.9-0.6-1.6-0.3c-7.1,2.7-14.4,3.8-22,3.4c-5.2-0.3-10.2-1.5-15.1-3.4
		c-2.1,2.1-2.1,2.1-5.3-0.6C126.8,65.1,68.6,119.7,10.3,174.4c0.4,0.5,0.9,0.8,1.2,1.3c0.3,0.5,0.9,1.2,0.7,1.6
		c-0.7,1.9,0.3,3.6,0.7,5.3c2.6,11.3,1.2,22.2-3.3,32.7c-0.4,1-0.3,1.6,0.4,2.3c2.3,2.4,4.6,4.8,6.8,7.3c0.3,0.3,0.6,0.9,0.6,1.3
		c0.1,3.7,0,7.4,0,11.5c-1.2-1.2-2.1-2.2-3.1-3.2c-4.4-4.7-8.8-9.3-13.1-14c-1.7-1.8-1.8-3.3-0.8-5.6c1.2-2.8,2.5-5.7,3.4-8.7
		c3.3-10.4,2.4-20.6-2.2-30.4c-1.1-2.4-0.8-4.1,1.1-5.9c12.6-11.9,25.3-23.7,37.9-35.6c3-2.8,6.1-5.5,9.1-8.3
		c2.3-2.2,4.6-4.5,6.9-6.7c5.5-5.2,11.1-10.4,16.7-15.6C79.3,98.4,85,93,90.7,87.6c12.3-11.5,24.5-23,36.8-34.5c3-2.8,6-5.6,9-8.5
		c15.3-14.3,30.6-28.7,45.9-43c1.9-1.8,3.5-1.9,5.8-0.7c10.6,5.9,21.7,7,33.3,3.5c2.1-0.6,4.1-1.4,6.1-2.2c2-0.8,3.6-0.5,5.1,1
		c7.1,7.5,14.1,15,21.1,22.5c7.7,8.3,15.5,16.5,23.2,24.8c5.8,6.2,11.7,12.4,17.5,18.6c1.5,1.6,1.7,3.3,0.6,5.4
		c-3.6,7.3-5.7,15-5.3,23.2c0.3,5.6,1.8,10.9,4.2,16c1.1,2.3,0.8,4-1,5.7c-9,8.4-17.9,16.8-26.9,25.2c-0.3,0.2-0.7,0.5-1,0.5
		c-3.8,0-7.6,0-11.8,0C263.8,135.4,274,125.8,284.1,116.3z"/>
	<path d="M191.2,140.1c-11.9-12.7-23.8-25.4-35.7-38.1c7.1-6.7,14.2-13.3,21.3-20c2,2.1,3.9,4.2,5.9,6.3c-4.6,4.3-9,8.5-13.6,12.7
		c2.8,3,5.5,5.9,8.4,8.9c4.3-4,8.5-7.9,12.8-12c2,2.1,3.9,4.1,5.9,6.3c-4.2,4-8.4,7.9-12.8,12c3.2,3.4,6.3,6.7,9.5,10.2
		c0.9-0.8,1.8-1.6,2.6-2.3c3.5-3.3,7.1-6.5,10.6-9.8c0.7-0.7,1.1-0.7,1.9,0c1.7,1.7,3.5,3.2,5.2,4.9
		C205.7,126.4,198.5,133.2,191.2,140.1z"/>
	<path d="M126.8,128.9c2.6-2.4,5.1-4.8,7.7-7.2c4.7,5,9.4,10,14.1,15c0.1,0,0.2-0.1,0.3-0.1c-0.4-2.3-0.8-4.5-1.3-6.8
		c-1-5.5-2.1-10.9-3.1-16.4c-0.1-0.4,0.1-1,0.3-1.2c2.5-2.4,5-4.7,7.8-7.3c0.5,2.3,0.9,4.5,1.3,6.6c1.2,6.1,2.3,12.1,3.4,18.2
		c0.2,0.9,0.6,1.3,1.4,1.6c6.6,2.2,13.2,4.5,19.9,6.8c3.5,1.2,7.1,2.4,10.9,3.7c-1.3,1.2-2.4,2.3-3.6,3.4c-0.2,0.2-0.6,0.2-1,0.2
		c-5.1,0-10.3,0-15.4,0c-0.7,0-1.4-0.2-2-0.4c-3-1.1-5.9-2.2-9-3.3c0.2,1.3,0.4,2.4,0.6,3.7c-2,0-3.9,0-5.8,0c-3.4,0-6.8,0-10.1,0
		c-0.4,0-1-0.1-1.3-0.4C136.8,139.5,131.9,134.3,126.8,128.9z"/>
	<path d="M193.3,78.4c-2.8,2.6-5.5,5.2-8.3,7.8c-2-2.1-3.9-4.1-5.9-6.3c8.1-7.6,16.2-15.2,24.3-22.8c2,2.1,3.9,4.2,5.9,6.3
		c-2.8,2.6-5.5,5.2-8.3,7.8c9.9,10.6,19.8,21.1,29.8,31.7c-2.6,2.4-5.1,4.8-7.7,7.2C213.1,99.5,203.2,89,193.3,78.4z"/>
	<path d="M133.2,145.1c-8.4,0-16.6,0-24.8,0C115.3,136.7,124.5,135.7,133.2,145.1z"/>
	<path d="M260.4,85.4c-0.4,0.5-0.8,1.4-1.3,1.6c-0.7,0.2-1.9,0.2-2.3-0.3c-3-3.1-6-6.2-8.9-9.4c-0.8-0.9-0.7-2.1,0.1-2.8
		c0.8-0.8,2.1-0.9,2.9,0c3,3.1,6,6.3,9,9.5C260,84.3,260.1,84.7,260.4,85.4z"/>
	<path d="M196.7,17.5c0.8,0.5,1.4,0.7,1.9,1.2c2.8,2.9,5.6,5.9,8.3,8.9c1,1.1,1,2.3,0.1,3.1c-0.8,0.8-2.2,0.7-3.1-0.2
		c-2.8-3-5.7-6-8.5-9.1c-0.6-0.7-1-1.5-0.4-2.3C195.3,18.5,196,18.1,196.7,17.5z"/>
	<path d="M231.8,54.9c0.7,0.4,1.4,0.7,1.8,1.1c2.8,2.9,5.6,5.9,8.3,8.9c1,1.1,1.1,2.4,0.2,3.2c-0.9,0.8-2.2,0.7-3.2-0.4
		c-2.8-3-5.6-5.9-8.4-9c-0.5-0.5-0.6-1.6-0.4-2.3C230.2,55.8,231.1,55.4,231.8,54.9z"/>
	<path d="M266.7,92.2c0.8,0.5,1.4,0.7,1.9,1.2c2.8,2.9,5.5,5.8,8.3,8.8c1.1,1.2,1.1,2.4,0.2,3.3c-0.9,0.8-2.1,0.7-3.2-0.4
		c-2.8-2.9-5.5-5.9-8.3-8.8c-0.7-0.7-1.1-1.6-0.6-2.5C265.4,93.1,266.1,92.8,266.7,92.2z"/>
	<path d="M214.1,36.3c0.7,0.4,1.3,0.6,1.8,1c2.7,2.7,5.3,5.5,8,8.3c0.3,0.3,0.7,0.7,0.9,1.1c0.6,1,0.5,1.9-0.3,2.7
		c-0.7,0.7-2.1,0.7-2.8,0c-3-3.2-6.1-6.5-9-9.9c-0.4-0.4-0.3-1.4-0.1-2C212.8,37,213.5,36.7,214.1,36.3z"/>
	<path d="M243.8,34.1c-0.5,0.7-0.7,1.3-1.2,1.8c-2.7,2.6-5.5,5.2-8.3,7.8c-0.9,0.9-2.3,0.9-3,0.1c-0.8-0.9-0.8-2.1,0.2-3.1
		c2.8-2.6,5.6-5.3,8.4-7.9c0.7-0.6,1.5-1,2.3-0.4C242.8,32.8,243.2,33.5,243.8,34.1z"/>
	<path d="M246.2,59.1c-0.5-0.4-1.4-0.8-1.6-1.4c-0.2-0.7-0.1-1.8,0.3-2.2c2.9-2.8,5.8-5.6,8.8-8.3c0.9-0.8,2-0.7,2.8,0.1
		c0.7,0.7,0.8,2,0,2.8c-2.9,2.8-5.8,5.5-8.8,8.3C247.4,58.8,246.9,58.8,246.2,59.1z"/>
	<path d="M237.1,49.5c-0.6-0.5-1.4-0.9-1.6-1.5c-0.2-0.6-0.1-1.7,0.3-2.1c2.9-2.9,5.9-5.7,8.9-8.5c0.7-0.6,2.1-0.5,2.7,0.2
		c0.7,0.8,0.8,2,0,2.8c-2.9,2.8-5.9,5.6-8.9,8.3C238.2,49.1,237.7,49.2,237.1,49.5z"/>
	<path d="M261.9,53.6c-0.4,0.7-0.7,1.4-1.1,1.8c-2.7,2.6-5.5,5.2-8.3,7.8c-1.1,1-2.2,0.9-3.1-0.1c-0.8-0.9-0.7-2,0.3-3
		c2.8-2.6,5.6-5.3,8.4-7.8c0.5-0.5,1.6-0.6,2.3-0.4C261,52,261.4,52.9,261.9,53.6z"/>
	<path d="M275.6,68.1c-0.4,0.7-0.7,1.4-1.1,1.8c-2.8,2.7-5.6,5.3-8.4,7.9c-0.7,0.7-1.6,1-2.3,0.4c-0.6-0.4-1-1.2-1.2-1.8
		c-0.1-0.5,0.3-1.2,0.7-1.6c2.8-2.7,5.6-5.4,8.5-7.9c0.5-0.4,1.6-0.6,2.2-0.4C274.6,66.6,275,67.4,275.6,68.1z"/>
	<path d="M239.2,29.2c-0.4,0.7-0.6,1.4-1.1,1.8c-2.8,2.7-5.6,5.3-8.4,7.9c-0.9,0.9-2.3,0.8-3,0c-0.8-0.8-0.7-2,0.2-2.9
		c2.8-2.7,5.7-5.5,8.6-8.1c0.5-0.4,1.6-0.5,2.2-0.3C238.3,27.8,238.6,28.6,239.2,29.2z"/>
	<path d="M241.7,54.3c-0.6-0.5-1.4-0.8-1.6-1.4c-0.2-0.7-0.1-1.8,0.3-2.2c2.8-2.8,5.8-5.6,8.8-8.3c0.8-0.7,2.2-0.6,2.8,0.1
		c0.8,0.8,0.8,2.1-0.1,2.9c-2.8,2.7-5.7,5.4-8.6,8.1C242.9,53.9,242.4,54,241.7,54.3z"/>
	<path d="M227.8,17.3c0.7,0.6,1.3,1,1.7,1.6c0.6,0.8,0.2,1.7-0.5,2.3c-1.4,1.4-2.8,2.7-4.2,4c-1.5,1.4-3,2.7-4.5,4
		c-0.9,0.8-1.8,0.8-2.6,0c-0.8-0.8-0.9-1.8-0.3-2.7c0.3-0.4,0.7-0.7,1.1-1.1c2.4-2.3,4.8-4.6,7.3-6.8
		C226.3,18.2,227,17.8,227.8,17.3z"/>
	<path d="M270.9,63.2c-0.4,0.7-0.5,1.3-0.9,1.6c-2.7,2.6-5.5,5.2-8.3,7.8c-1.1,1-2.4,1-3.2,0.2c-0.7-0.8-0.6-2.2,0.4-3.2
		c2.8-2.6,5.6-5.2,8.4-7.7c0.7-0.6,1.4-1,2.2-0.4C270.1,62,270.5,62.6,270.9,63.2z"/>
	<path d="M234.3,24.9c-0.2,0.3-0.4,0.9-0.9,1.4c-2.7,2.6-5.4,5.2-8.2,7.7c-1.1,1-2.3,1-3.2,0c-0.8-1-0.5-2,0.6-3.1
		c2.5-2.3,4.9-4.8,7.4-7.1c0.6-0.6,1.5-1.1,2.3-1.2C233.4,22.4,234.3,23.4,234.3,24.9z"/>
	<path d="M266.5,58.4c-0.4,0.7-0.6,1.3-1,1.7c-2.8,2.7-5.6,5.4-8.5,8c-0.9,0.8-2.2,0.7-2.9,0c-0.8-0.8-0.8-2,0.1-2.9
		c2.9-2.8,5.7-5.5,8.7-8.1c0.5-0.4,1.6-0.4,2.3-0.2C265.6,57,266,57.8,266.5,58.4z"/>
	<path d="M268.9,83.4c-0.6-0.5-1.4-0.9-1.6-1.5c-0.2-0.7,0-1.8,0.4-2.3c2.7-2.7,5.6-5.3,8.4-8c1-0.9,2.2-0.9,3-0.1
		c0.8,0.8,0.7,2.2-0.2,3.1c-2.8,2.6-5.5,5.2-8.3,7.8C270.3,82.9,269.7,83,268.9,83.4z"/>
	<path d="M212.1,255.5c-3.9,0-7.5,0-11.2,0c-0.4,0-0.9-0.5-1.1-0.8c-3.2-6.2-6.3-12.5-9.4-18.7c-0.3-0.5-0.5-1.1-0.9-1.8
		c-1.3,2-2.5,3.8-3.6,5.6c-0.2,0.3-0.2,0.8-0.2,1.2c0,4.3,0,8.7,0,13c0,0.5,0,0.9,0,1.5c-3.6,0-7,0-10.5,0c0-17.3,0-34.6,0-52
		c3.5,0,6.9,0,10.5,0c0,6.8,0,13.6,0,20.4c0.1,0,0.2,0.1,0.3,0.1c1.1-1.7,2.3-3.5,3.4-5.2c1.9-3,3.9-6,5.8-9
		c1.2-1.9,2.3-3.8,3.5-5.7c0.2-0.3,0.6-0.6,0.9-0.6c3.5,0,7.1,0,10.8,0c-0.9,1.4-1.6,2.6-2.4,3.8c-3.7,5.8-7.4,11.7-11.1,17.5
		c-0.5,0.7-0.5,1.3-0.1,2.1c3.9,7.2,7.7,14.4,11.5,21.6C209.5,250.7,210.7,253,212.1,255.5z"/>
	<path d="M214.4,203.4c9.7,0,19.3,0,29.1,0c0,2.8,0,5.6,0,8.5c-6.1,0-12.3,0-18.5,0c0,4.1,0,8.1,0,12.3c5.8,0,11.5,0,17.3,0
		c0,2.9,0,5.6,0,8.6c-5.7,0-11.5,0-17.3,0c0,4.8,0,9.4,0,14.2c6.4,0,12.7,0,19.1,0c0,2.9,0,5.7,0,8.5c-0.4,0-0.9,0.1-1.3,0.1
		c-9,0-18.1,0-27.1,0c-1,0-1.4-0.2-1.4-1.3c0-16.7,0-33.3,0-50C214.3,204,214.3,203.8,214.4,203.4z"/>
	<path d="M158.4,220.8c-0.4-2.3-0.5-4.5-1.1-6.6c-0.7-2.9-2.4-4.1-5.4-4.1c-2.6,0-4.6,1.2-5.2,4c-0.7,3.3-1.3,6.7-1.4,10.1
		c-0.1,5.7,0.2,11.4,0.5,17.1c0.1,1.4,0.5,2.7,1,4c0.8,2.4,2.5,3.5,4.9,3.5c2.7,0,4.4-1.1,5.4-3.4c1.1-2.7,1.2-5.6,1.3-8.4
		c0-0.4,0-0.8,0.1-1.3c3.5,0,6.9,0,10.4,0c0,5.1-0.3,10.1-3.1,14.6c-1.5,2.4-3.6,4-6.3,5c-2.7,1-5.5,1.3-8.3,1
		c-2.4-0.2-4.8-0.5-7.1-1.3c-4.4-1.6-7-5.1-7.9-9.6c-0.8-3.9-1.3-7.8-1.6-11.8c-0.3-6-0.2-12,1-18c0.8-4.2,2.4-8,6.1-10.6
		c2.3-1.6,5-2.3,7.8-2.6c3.6-0.4,7.1-0.2,10.5,1.2c3,1.2,5.2,3.3,6.6,6.3c1.6,3.5,1.8,7.2,1.9,11
		C165.2,220.8,161.7,220.8,158.4,220.8z"/>
	<path d="M79.2,212c0-2.9,0-5.7,0-8.5c11.1,0,22.1,0,33.2,0c0,2.8,0,5.6,0,8.4c-3.7,0-7.4,0-11.3,0c0,14.6,0,29,0,43.5
		c-3.6,0-7,0-10.5,0c0-14.4,0-28.8,0-43.4C86.7,212,83,212,79.2,212z"/>
	<path d="M268.6,255.4c-3.6,0-7,0-10.5,0c0-14.5,0-28.9,0-43.4c-3.8,0-7.6,0-11.4,0c0-2.9,0-5.7,0-8.5c11,0,22,0,33.1,0
		c0,2.8,0,5.6,0,8.4c-3.6,0-7.4,0-11.3,0C268.6,226.5,268.6,241,268.6,255.4z"/>
	<path d="M117.6,255.5c0-17.4,0-34.6,0-52c0.4,0,0.7-0.1,1-0.1c2.7,0,5.4,0.1,8.2,0.1c1,0,1.3,0.4,1.3,1.3c0,2,0,4.1,0,6.1
		c0,14.3,0,28.7,0,43c0,0.5,0,1,0,1.6C124.5,255.5,121.1,255.5,117.6,255.5z"/>
	<path d="M54.7,229.4c0-2,0-4,0-6c0-1.6,0.8-2.5,2.1-2.5c1.3,0,2,0.9,2,2.6c0,3.9,0,7.9,0,11.8c0,1.6-0.7,2.5-2,2.5
		c-1.3,0.1-2.1-0.8-2.1-2.5C54.7,233.3,54.8,231.3,54.7,229.4C54.8,229.4,54.7,229.4,54.7,229.4z"/>
	<path d="M302.7,280.6c0,2.1,0,4.2,0,6.2c0,1.3-0.8,2.2-2,2.2c-1.2,0-2.1-0.9-2.1-2.2c0-4.2,0-8.4,0-12.6c0-1.3,0.9-2.2,2.1-2.2
		c1.2,0,2.1,0.9,2.1,2.3C302.8,276.4,302.7,278.5,302.7,280.6C302.7,280.6,302.7,280.6,302.7,280.6z"/>
	<path d="M58.9,254.8c0,2,0,4.1,0,6.1c0,1.6-0.8,2.5-2,2.5c-1.2,0-2.1-1-2.1-2.4c0-4,0-8,0-12.1c0-1.6,0.8-2.4,2.1-2.4
		c1.4,0,2.1,0.8,2.1,2.5C58.9,250.9,58.9,252.9,58.9,254.8C58.9,254.8,58.9,254.8,58.9,254.8z"/>
	<path d="M298.6,229.3c0-2,0-4,0-6c0-1.6,0.7-2.4,2-2.5c1.3,0,2.1,0.8,2.1,2.4c0,4.1,0,8.1,0,12.2c0,1.1-0.3,2-1.5,2.3
		c-1,0.2-1.8-0.1-2.3-1c-0.2-0.4-0.3-1-0.3-1.5C298.6,233.3,298.6,231.3,298.6,229.3z"/>
	<path d="M302.8,178.2c0,2,0,4,0,6c0,1.5-0.9,2.5-2.1,2.4c-1.2,0-2-1-2-2.4c0-4.1,0-8.2,0-12.3c0-1.4,0.9-2.3,2.1-2.3
		c1.1,0,2,0.9,2,2.3C302.8,174,302.7,176.1,302.8,178.2C302.7,178.2,302.8,178.2,302.8,178.2z"/>
	<path d="M58.9,178.2c0,2,0,4,0,6c0,1.4-0.8,2.4-2,2.4c-1.3,0-2.2-0.9-2.2-2.4c0-4,0-8,0-12.1c0-1.6,0.9-2.6,2.1-2.5
		c1.3,0,2,0.9,2,2.5C58.9,174.2,58.9,176.2,58.9,178.2z"/>
	<path d="M298.6,203.6c0-2,0-4,0-6c0-1.5,0.9-2.4,2.1-2.4c1.3,0,2,0.9,2,2.5c0,4,0,8,0,12.1c0,1.5-0.8,2.5-2.1,2.4
		c-1.3,0-2-0.9-2-2.5C298.6,207.7,298.6,205.7,298.6,203.6z"/>
	<path d="M58.9,203.8c0,2,0,4,0,6c0,1.5-0.8,2.5-2.1,2.5c-1.3,0-2.1-1-2.1-2.5c0-4.1,0-8.2,0-12.3c0-1.3,0.8-2,2.2-2
		c1.2,0,2,0.8,2,2.1C58.9,199.6,58.9,201.7,58.9,203.8z"/>
	<path d="M302.8,255c0,2,0,4,0,6c0,1.4-0.8,2.5-1.9,2.5c-1.3,0-2.2-1-2.2-2.5c0-4,0-8,0-12c0-1.6,0.8-2.4,2.1-2.4c1.3,0,2,0.8,2,2.4
		C302.8,250.9,302.8,253,302.8,255z"/>
	<path d="M58.9,280.4c0,2.1,0,4.1,0,6.2c0,1.5-0.8,2.4-2.1,2.4c-1.2,0-2-0.9-2-2.4c0-4.2,0-8.4,0-12.5c0-1.2,0.8-1.8,2-1.8
		c1.2,0,1.9,0.7,2,1.9c0.1,1,0.1,2.1,0.1,3.1C58.9,278.3,58.9,279.4,58.9,280.4z"/>
	<path d="M317.2,194.8c-1.9,0-3.7,0-5.6,0c-1.3,0-2.1-0.7-2.2-1.9c-0.1-1.2,0.7-2.2,2-2.2c3.9-0.1,7.9,0,11.8,0c1.2,0,2.1,1,2.1,2.1
		c0,1.1-0.9,2-2.2,2C321.2,194.8,319.2,194.8,317.2,194.8z"/>
	<path d="M317.5,261.3c-1.9,0-3.9,0-5.8,0c-1.3,0-2.1-0.7-2.1-1.9c-0.1-1.2,0.7-2.1,1.9-2.2c4-0.1,8-0.1,11.9,0c1.2,0,2.1,1,2.1,2.1
		c0,1.1-1,2-2.3,2C321.3,261.3,319.4,261.3,317.5,261.3C317.5,261.3,317.5,261.3,317.5,261.3z"/>
	<path d="M317.4,210.6c1.9,0,3.7,0,5.6,0c1.5,0,2.5,0.9,2.5,2.1c0,1.1-1,2-2.4,2c-3.8,0-7.5,0-11.3,0c-1.5,0-2.3-0.8-2.3-2.1
		c0-1.3,0.8-2,2.3-2C313.7,210.6,315.5,210.6,317.4,210.6C317.4,210.6,317.4,210.6,317.4,210.6z"/>
	<path d="M317.4,228.1c-1.9,0-3.7,0-5.6,0c-1.5,0-2.3-0.7-2.3-2c0-1.2,0.8-2.1,2.2-2.1c3.9,0,7.7,0,11.6,0c1.3,0,2.2,1,2.2,2.1
		c0,1.2-1,2-2.4,2C321.2,228.1,319.3,228.1,317.4,228.1z"/>
	<path d="M317.4,208.1c-1.9,0-3.8,0-5.7,0c-1.4,0-2.2-0.7-2.2-2c-0.1-1.3,0.8-2.1,2.2-2.1c3.8,0,7.6,0,11.4,0c1.4,0,2.3,1,2.3,2.1
		c0,1.2-1,2-2.4,2C321.2,208.1,319.3,208.1,317.4,208.1C317.4,208.1,317.4,208.1,317.4,208.1z"/>
	<path d="M317.4,241.3c-1.9,0-3.8,0-5.7,0c-1.4,0-2.2-0.7-2.2-2c0-1.2,0.8-2.1,2.1-2.1c3.9,0,7.8,0,11.7,0c1.3,0,2.2,1,2.2,2.1
		c-0.1,1.2-1,2-2.3,2C321.2,241.4,319.3,241.3,317.4,241.3C317.4,241.3,317.4,241.3,317.4,241.3z"/>
	<path d="M317.4,248c-1.9,0-3.8,0-5.7,0c-1.4,0-2.2-0.7-2.2-2c0-1.3,0.8-2.1,2.2-2.1c3.8,0,7.6,0,11.4,0c1.4,0,2.3,0.9,2.3,2.1
		c0,1.1-1,2-2.4,2C321.2,248,319.3,248,317.4,248C317.4,248,317.4,248,317.4,248z"/>
	<path d="M317.3,201.4c-1.9,0-3.8,0-5.7,0c-1.4,0-2.1-0.6-2.1-1.9c0-1.3,0.7-2.2,2-2.2c3.9,0,7.8,0,11.7,0c1.3,0,2.2,0.9,2.2,2.1
		c0,1.1-0.9,2-2.2,2C321.2,201.4,319.3,201.4,317.3,201.4z"/>
	<path d="M317.4,221.4c-1.9,0-3.7,0-5.6,0c-1.5,0-2.3-0.7-2.3-2c0-1.3,0.8-2,2.3-2c3.8,0,7.5,0,11.3,0c1.4,0,2.4,0.8,2.4,2
		c0,1.2-0.9,2-2.4,2C321.2,221.4,319.3,221.4,317.4,221.4C317.4,221.4,317.4,221.4,317.4,221.4z"/>
	<path d="M317.3,234.6c-1.9,0-3.8,0-5.7,0c-1.4,0-2.1-0.7-2.1-1.9c0-1.3,0.7-2.1,2.1-2.1c3.9,0,7.8,0,11.7,0c1.3,0,2.2,1,2.2,2.1
		c0,1.1-0.9,1.9-2.3,1.9C321.2,234.6,319.2,234.6,317.3,234.6z"/>
	<path d="M317.5,254.6c-1.9,0-3.7,0-5.6,0c-1.7,0-2.5-0.8-2.4-2.2c0-1.2,0.9-1.9,2.4-1.9c3.8,0,7.5,0,11.3,0c1,0,1.9,0.4,2.1,1.4
		c0.1,0.7-0.1,1.5-0.6,2.1c-0.3,0.4-1.1,0.5-1.8,0.6C321.1,254.7,319.3,254.6,317.5,254.6C317.5,254.6,317.5,254.6,317.5,254.6z"/>
	<path d="M317.5,267.9c-1.9,0-3.9,0-5.8,0c-1.5,0-2.2-0.7-2.2-2c0-1.2,0.8-2.1,2.2-2.1c3.8,0,7.6,0,11.4,0c1.4,0,2.4,0.9,2.4,2.1
		c0,1.2-0.9,2-2.3,2C321.2,267.9,319.4,267.9,317.5,267.9z"/>
</g>
</svg>
