<?xml version="1.0" encoding="utf-8"?>
<!-- Generator: Adobe Illustrator 25.0.0, SVG Export Plug-In . SVG Version: 6.00 Build 0)  -->
<svg version="1.1" id="Capa_1" xmlns="http://www.w3.org/2000/svg" xmlns:xlink="http://www.w3.org/1999/xlink" x="0px" y="0px"
	 viewBox="0 0 475.6 310.3" style="enable-background:new 0 0 475.6 310.3;" xml:space="preserve">
<g>
	<path d="M63,222.5c0-21.3,0-42.6,0-63.9c0-6.4-2.2-11.7-6.7-16.2C40,126.2,23.7,109.9,7.4,93.7c-8.5-8.5-9.8-19.6-3.2-28.5
		c7.1-9.6,21.7-11,30.3-2.6c9,8.7,17.6,17.8,26.7,26.3c16.2,15.2,35.5,21.9,57.8,19.9c17.8-1.6,32.9-8.7,45.5-21.3
		c5.4-5.4,10.8-10.9,16.3-16.2c3.7-3.6,7.2-7.5,11.4-10.5c8.4-6.1,20.3-4.5,27,3.3c7,8.2,7,19.8-0.3,27.5
		c-7.7,8.1-15.8,15.9-23.7,23.8c-6,6-12,12-18,18c-2.6,2.6-5.1,5.2-7.8,7.8c-5.5,5.3-8.3,11.6-8.3,19.5c0.1,42.7,0.1,85.4,0,128.2
		c0,16.6-16.7,26.5-31.1,18.2c-6.6-3.8-10-10-10.1-17.5c-0.2-14.6-0.1-29.2-0.1-43.8c0-5.5-3.1-9.2-7.6-9.4c-4.7-0.1-8,3.7-8,9.4
		c0,14.6,0.1,29.2,0,43.8c-0.2,15.5-16,25.2-29.9,18.1c-7.9-4-11.3-11-11.4-19.6C62.9,266.1,63,244.3,63,222.5z M70.2,222.1
		C70.2,222.1,70.2,222.1,70.2,222.1c0,22.1,0,44.2,0.1,66.3c0,8.1,6,14.2,13.6,14.2c7.7,0,13.2-6,13.2-14.3c0-14.2,0-28.5,0-42.7
		c0-4,0.9-7.8,3.5-11c3.9-4.8,10.5-6.7,16.3-4.7c6,2,10.2,7.5,10.2,13.9c0.1,14.9,0,29.9,0.1,44.8c0,7.1,5,13.1,11.5,14
		c8.6,1.1,15.3-5,15.3-14.2c0-42.6,0.1-85.2,0-127.8c0-9.7,3.3-17.6,10.2-24.5c16.3-16.1,32.5-32.3,48.6-48.6
		c5.7-5.7,5.7-14,0.4-19.3c-5.3-5.3-13.7-5.2-19.3,0.4c-6.6,6.5-13.3,12.9-19.6,19.6c-19.2,20.5-42.6,30.5-70.8,27.7
		c-16.1-1.6-30.6-7.3-42.8-17.9C52.7,91,45.5,83.2,38,75.9c-2.8-2.8-5.5-5.7-8.4-8.3c-5.8-5-13.6-4.5-18.7,0.9
		c-5,5.4-4.9,12.9,0.3,18.4c1.3,1.4,2.6,2.6,3.9,4c15.7,15.7,31.4,31.5,47.1,47.2c5.7,5.7,8.2,12.7,8.1,20.7
		C70.1,179.9,70.2,201,70.2,222.1z"/>
	<path d="M288.7,259c2.7-10,5.3-19.5,7.9-28.9c5.8-21.3,11.8-42.5,17.2-63.9c2.3-9.1,0.2-17.5-6.9-24.5
		c-10.5-10.3-20.6-20.9-31-31.3c-6.1-6.1-12.4-12.1-18.6-18.2c-7.7-7.7-7.9-20.4-0.7-28.3c7.5-8.2,20.3-9.3,28.4-1.9
		c6.6,6,12.7,12.6,18.9,19.1c16.6,17.4,36,28.8,60.9,28.2c19.9-0.5,37.1-7.7,51.3-21.9c7.9-7.9,15.8-15.9,23.8-23.8
		c6.4-6.3,13.9-8.2,22.3-5.1c8.6,3.2,12.9,10,13.3,18.9c0.2,5.3-1.5,10.3-5.4,14.2c-14.4,14.5-28.9,28.9-43.3,43.4
		c-2.8,2.8-5.6,5.5-8.3,8.4c-6.5,6.8-7.5,15.1-5.2,23.6c7.8,29.5,16,58.9,24,88.3c0.3,1.1,0.5,2.2,0.8,3.8c-6.4,0-12.5,0-18.6,0
		c-1.3,0-2.6,0.1-3.8,0c-2.4-0.2-3.3,0.8-3.2,3.2c0.1,8.9,0.2,17.8,0,26.7c-0.3,14.4-13.2,23.9-26.8,19.9
		c-8.4-2.5-14.4-10.9-14.5-20.3c0-7.2,0.2-14.4,0-21.5c-0.1-6-5.7-9.5-11-7.2c-3.3,1.5-4.6,4.3-4.6,7.8c0,6.9,0.1,13.9,0,20.8
		c-0.1,13-9.3,21.7-22.2,21.1c-10.1-0.4-18.8-9.4-19-19.9c-0.2-8.9-0.2-17.8,0-26.7c0.1-3-0.9-4.1-4-4
		C303.4,259.1,296.4,259,288.7,259z M298.1,252.1c5.3,0,10-0.1,14.7,0c6.2,0.1,8.8,2.8,8.8,9c0,9.3-0.1,18.5,0.1,27.8
		c0.1,7.8,6.2,13.9,13.6,13.8c7.5,0,13.2-6,13.2-14c0.1-7.1,0-14.1,0-21.2c0.1-9.1,6.2-15.4,14.9-15.4c8.9,0,15.1,6.3,15.2,15.4
		c0,6.9,0,13.9,0,20.8c0.1,8.4,5.7,14.2,13.4,14.1c8-0.1,13.4-5.9,13.4-14.5c0-9,0-18.1,0-27.1c0-6.3,3.2-9.2,9.6-9
		c4.5,0.2,8.9,0,13.6,0c-0.1-1.1,0-1.7-0.1-2.2c-7.4-27.1-15-54.1-22.1-81.3c-2.9-11.2-1.2-21.9,7.3-30.6
		c16.5-16.7,33.2-33.3,49.8-49.9c3.6-3.6,5.6-7.6,4.7-12.8c-1-5.5-4.3-9.2-9.7-10.7c-5.3-1.4-10,0.3-13.9,4.2
		c-7.9,8-15.7,16-23.8,23.9c-19.1,18.6-42.1,26-68.3,22.8c-18-2.2-33.5-10-46.4-22.8c-8.1-8-16-16-24-24.1
		c-3.9-3.9-8.5-5.3-13.9-3.9c-8.3,2.1-14.4,14.1-4.3,23.9c16.2,15.8,32,32.1,48.2,48c8.7,8.5,11.5,19,8.8,30.2
		c-5.2,21.9-11.6,43.6-17.4,65.3C301.8,238.6,300,245,298.1,252.1z"/>
	<path d="M363.5,0.1c24.8-0.3,46.3,20.9,45,47.2c-1.2,24.1-21.3,43.5-46.4,42.8c-24-0.7-44.3-20.5-43.7-47
		C319,19.7,339.4-0.1,363.5,0.1z M401.2,45.1c0-21-16.7-37.8-37.8-38c-20.7-0.2-37.8,17-37.8,38.1c0,21.3,16.9,37.9,38.7,37.7
		C384.7,82.6,401.4,65.7,401.2,45.1z"/>
	<path d="M157.1,45.1c0,24.9-19.9,44.8-44.5,45.1C87.9,90.5,66.7,69.6,67,44.7C67.3,19.2,88.7-0.5,113,0
		C137.3,0.5,157.1,20.3,157.1,45.1z M150,45.2c0.1-20.7-16.8-37.8-37.5-38.1C91.8,6.8,74.4,23.9,74.3,44.7
		C74.1,66,91,82.8,112.6,82.9C132.9,83,149.9,65.8,150,45.2z"/>
</g>
</svg>
