<?xml version="1.0" encoding="utf-8"?>
<!-- Generator: Adobe Illustrator 25.0.0, SVG Export Plug-In . SVG Version: 6.00 Build 0)  -->
<svg version="1.1" id="Capa_1" xmlns="http://www.w3.org/2000/svg" xmlns:xlink="http://www.w3.org/1999/xlink" x="0px" y="0px"
	 viewBox="0 0 400 400" style="enable-background:new 0 0 400 400;" xml:space="preserve">
<g>
	<path d="M41.29,198.98c11.18-88.04,59.19-140.05,144.92-157.22c4.56-29.65,10.56-37.4,27.56-35.34
		c15.44,1.87,21.07,12.23,19.07,36.09c2.44,0.89,5.03,2.16,7.77,2.78c70.31,15.85,120.1,71.43,127.66,143.24
		c0.87,8.3,3.99,10.6,11.95,10.6c19.5,0,24.58,8.62,12.56,24.47c-6.01,7.93-17.45,11.9-26.75,17.07c-2.29,1.27-5.9,0.6-8.83,0.23
		c-13.17-1.64-20.15,2.68-28.51,15.11c-28.89,42.93-63.74,80.76-118.07,90.67c-16.84,3.07-34.7,0.55-52.09,0.57
		c-13.85,0.02-27.71,0-43.29,0c4.46,25.44-15.2,32.09-28.34,42.92c-7.33,6.05-16.44,4.56-22.82-3.11
		c-20.15-24.2-40.26-48.45-59.73-73.19c-2.96-3.76-4.14-10.56-3.25-15.43c3.2-17.53,35.45-33.18,52.58-24.86
		c8.42-9.72,17.12-19.75,28.3-32.65c-13.1,0-23.06,0.26-32.99-0.06c-16.54-0.54-29.09-9.89-33.68-24.58
		c-4.08-13.07-1.21-17.11,12.35-17.3C31.82,198.93,36.03,198.98,41.29,198.98z M357.44,198.97c-4.55-56.98-29.71-99.15-77.24-125.48
		c-54.64-30.28-109.79-27.41-161.36,8.22c-39.99,27.64-60.71,66.95-64.18,117.26c7.02,0,12.03,0,17.04,0
		c44.69,0,89.39-0.17,134.08,0.29c4.28,0.04,8.52,4.09,12.78,6.27c-4.17,1.75-8.33,4.99-12.52,5.02
		c-54.48,0.35-108.97,0.21-163.45,0.29c-4.75,0.01-9.5,0.65-15.32,1.08c5.55,15.48,16.38,17.15,28.44,17.14
		c100.03-0.06,200.06-0.01,300.09-0.11c5.04,0,10.76,0.23,14.95-1.97c5.52-2.9,9.84-8.09,14.68-12.29c-0.81-1.3-1.62-2.61-2.43-3.91
		c-4.6,0-9.2,0-13.8,0c-23.84,0-47.68,0.2-71.51-0.25c-3.36-0.06-6.67-3.28-10-5.04c3.42-2.17,6.6-5.02,10.33-6.3
		c3.05-1.05,6.74-0.22,10.14-0.22C323.8,198.97,339.45,198.97,357.44,198.97z M169.85,241.77c-0.16,1.36-0.31,2.72-0.47,4.08
		c12.66,1.27,25.34,2.33,37.97,3.88c10.91,1.34,22.26,1.82,32.42,5.47c5.61,2.02,12.12,9.42,12.79,15.04
		c0.67,5.64-3.97,13.93-8.87,17.74c-6.4,4.97-15.17,8.77-23.21,9.39c-22.8,1.75-45.74,1.8-68.63,1.99
		c-2.33,0.02-4.69-3.57-7.03-5.48c2.32-1.99,4.56-5.58,6.96-5.69c14.38-0.66,28.89,0.41,43.19-0.91c13.3-1.23,26.49-4.33,39.5-7.54
		c2.73-0.68,6.52-5.8,6.1-8.23c-0.47-2.7-4.91-6-8.12-6.69c-8.27-1.78-16.85-2.02-25.24-3.3c-16.3-2.48-33.95-2.07-48.59-8.46
		c-54.31-23.72-63.4-10.26-91.98,24.76c-1.83,2.24-3.48,4.62-5.7,7.59c13.77,16.75,27.03,33.31,40.93,49.32
		c2.05,2.36,7.14,2.99,10.79,2.92c16.9-0.32,33.85-2.44,50.65-1.54c26.22,1.41,51.83,1.72,75.9-11.1
		c33.17-17.68,57.78-44.42,79.42-74.32c1.67-2.3,1.9-5.65,3.83-11.76c-8,3.87-13.44,5.43-17.53,8.68
		c-9.97,7.93-19.06,16.98-29.07,24.85c-3.05,2.4-7.96,2.43-12.01,3.54c1.09-3.91,1.18-8.58,3.46-11.58
		c6.03-7.88,13.01-15.03,19.77-22.65C248.21,241.77,209.03,241.77,169.85,241.77z M38.16,279.22c-6.37,5.04-12.02,10.15-18.29,14.33
		c-8.29,5.53-9.01,10.45-2.15,18.31c14.8,16.96,28.37,34.98,42.99,52.1c18.35,21.5,10.79,23.22,37.16,2.24
		c5.94-4.73,6.59-8.67,1.58-14.65c-18.27-21.83-36.15-43.98-54.27-65.94C43.37,283.43,40.96,281.75,38.16,279.22z M210.28,46.2
		c5.39-7.45,11.55-12.35,10.86-15.92c-0.88-4.55-7.3-8.03-11.33-11.97c-3.61,3.91-9.79,7.62-10.11,11.77
		C199.4,34.17,205.04,38.71,210.28,46.2z"/>
	<path d="M120.56,118.74c-1.31,2.17-2.33,3.98-3.45,5.71c-5.55,8.53-10.82,17.25-16.86,25.42c-1.8,2.43-5.76,3.27-8.73,4.84
		c-0.65-3.26-2.89-7.4-1.67-9.64c5.28-9.64,11.29-18.93,17.73-27.85c1.52-2.1,5.68-2.79,8.72-3.05
		C117.49,114.06,118.94,116.9,120.56,118.74z"/>
	<path d="M157.51,80.68c2.78,4.06,6.1,6.98,5.56,8.57c-0.84,2.46-4.29,5.45-6.71,5.51c-2.09,0.05-5.91-3.62-5.96-5.72
		C150.34,86.89,153.93,84.64,157.51,80.68z"/>
	<path d="M134.4,93.13c2.77,3.55,6.15,6.65,5.66,7.47c-1.69,2.86-4.44,5.48-7.4,6.95c-0.87,0.43-5.75-4.04-5.41-4.9
		C128.48,99.61,131.17,97.16,134.4,93.13z"/>
</g>
</svg>
