<svg id="Capa_1" data-name="Capa 1" xmlns="http://www.w3.org/2000/svg" viewBox="0 0 381.63 55.07"><defs><style>.cls-1{fill:#fff;}</style></defs><circle class="cls-1" cx="374.81" cy="46.08" r="6.82"/><path class="cls-1" d="M63.55,209.64c-2.45,9.27-9.81,17.9-26.39,17.9-18.87,0-28-13.06-28-27.49s10-27.59,28.67-27.59c16.18,0,24.25,9,25.79,17.83h-13c-1.08-3-3.94-7.88-12.95-7.88-9.88,0-15,7.52-15,17.16s4.69,18.09,15.08,18.09c7.52,0,10.82-2.92,12.87-8Z" transform="translate(-9.18 -172.46)"/><path class="cls-1" d="M123.68,199.82c0,14.64-9.77,27.72-29,27.72-17.91,0-28.14-12.25-28.14-27.67,0-14.52,10.83-27.41,28.74-27.41C113.74,172.46,123.68,185.41,123.68,199.82Zm-43.61-.1c0,10,5.06,17.81,15.36,17.81,10.64,0,14.73-9,14.73-17.56,0-9.36-4.56-17.5-15.25-17.5C84.63,182.47,80.07,190.81,80.07,199.72Z" transform="translate(-9.18 -172.46)"/><path class="cls-1" d="M130.48,173.59h23.87c17.8,0,27.54,11.55,27.54,25.49,0,16.91-12.44,27.33-27.81,27.33h-23.6Zm12.81,42.89h9.1c10.33,0,15.92-5.83,15.92-17.06,0-9.77-5.11-15.83-15.76-16h-9.26Z" transform="translate(-9.18 -172.46)"/><path class="cls-1" d="M201.49,173.59v52.82H188.67V173.59Z" transform="translate(-9.18 -172.46)"/><path class="cls-1" d="M211.62,226.41V173.59H226.8c14.84,22.65,20.76,30.89,24.07,37.17H251c-.52-5.55-.45-15.43-.45-24.12v-13h11.75v52.82H248.1c-5-7.87-21.88-34.12-25-40.16h-.15c.44,6.53.44,14,.44,23.42v16.74Z" transform="translate(-9.18 -172.46)"/><path class="cls-1" d="M324,209.64c-2.45,9.27-9.81,17.9-26.39,17.9-18.87,0-28-13.06-28-27.49s10-27.59,28.67-27.59c16.18,0,24.25,9,25.79,17.83h-13c-1.08-3-3.94-7.88-12.95-7.88-9.88,0-15,7.52-15,17.16s4.69,18.09,15.08,18.09c7.52,0,10.82-2.92,12.87-8Z" transform="translate(-9.18 -172.46)"/><path class="cls-1" d="M344.65,226.41V207.52a2.7,2.7,0,0,0-.65-1.72l-21.85-32.21h15.24c5.18,8.28,11.68,18.33,14.22,23.31,2.69-4.92,9.32-15,14.5-23.31h14l-22.23,32.73a2.14,2.14,0,0,0-.31,1.4v18.69Z" transform="translate(-9.18 -172.46)"/></svg>