<?xml version="1.0" encoding="utf-8"?>
<!-- Generator: Adobe Illustrator 25.0.0, SVG Export Plug-In . SVG Version: 6.00 Build 0)  -->
<svg version="1.1" id="Capa_1" xmlns="http://www.w3.org/2000/svg" xmlns:xlink="http://www.w3.org/1999/xlink" x="0px" y="0px"
	 viewBox="0 0 400 400" style="enable-background:new 0 0 400 400;" xml:space="preserve">
<g>
	<path d="M390.75,329.69c-37.54,13.4-74.78,26.7-111.99,39.99c-2.42-3.55-1.44-6.27,1.39-8.05c5.48-3.44,11.02-6.83,16.82-9.66
		c6.42-3.13,13.15-5.62,19.76-8.35c3.18-1.31,4.84-3.51,3.94-6.99c-9.12-35.34-21.01-69.69-36.76-102.66
		c-0.06-0.13-0.24-0.21,0.69,0.56c-9.33,0-17.71,0.93-25.81-0.19c-18.62-2.56-30.86-14.49-40.16-29.93
		c-9.12-15.15-14.07-31.84-17.86-48.94c-0.13-0.6-0.33-1.18-0.92-3.22c-1.86,7.16-3.24,13-4.9,18.76
		c-4.21,14.62-9.75,28.64-18.98,40.93c-13.87,18.47-32.08,26.22-55.04,22.18c-1.47-0.26-2.95-0.43-5-0.73
		c-1.57,3.42-3.23,6.97-4.84,10.55c-13.28,29.49-23.57,60.02-31.81,91.28c-1.22,4.63,0.33,6.95,4.58,8.84
		c11.22,5,22.36,10.21,33.31,15.78c3.38,1.72,7.02,4.48,3.8,9.88C83.7,356.41,46.47,343.11,9.25,329.8
		c1.03-5.05,2.37-6.46,7.85-5.36c11.23,2.24,22.33,5.14,33.48,7.82c1.61,0.39,3.15,1.07,4.75,1.5c3.31,0.89,5.78,0.03,7.32-3.29
		c14.91-32.23,27.06-65.45,35.88-99.85c0.34-1.33-0.73-3.99-1.89-4.59C69.86,212.11,62.57,187.49,68.26,159
		c5.78-28.97,20.33-53.95,36.72-77.99c3.56-5.22,7.62-10.1,11.26-15.27c2.03-2.89,4.03-3.4,7.49-2.14
		c23.89,8.72,47.84,17.26,71.86,25.61c2.54,0.88,5.92,0.92,8.45,0.03c24.01-8.36,47.93-16.99,71.87-25.58
		c2.38-0.85,4.37-1.88,6.52,0.89c21.13,27.28,39.41,56.08,48.03,90.01c3.03,11.9,3.94,24.02,1.13,36.11
		c-3.6,15.51-12.84,26.87-26.85,34.18c-3.72,1.94-4.2,3.81-3.18,7.71c8.66,33.07,20.45,65,34.67,96.05
		c2.62,5.73,3.95,6.13,10.04,4.55c11.9-3.09,23.84-6.06,35.83-8.72C385.93,323.59,389.99,323.9,390.75,329.69z M95.58,114.43
		c0.36,0.46,0.73,0.91,1.09,1.37c23.1-6.1,43.62-0.32,62.87,12.66c4.28,2.89,9.61,4.57,14.71,5.81c7.87,1.92,18.16-3.8,19.12-10.66
		c0.98-7.05,1.03-14.25,1.14-21.39c0.02-1.11-1.56-2.84-2.77-3.29c-21.99-8.03-44.02-15.95-66.11-23.7
		c-1.23-0.43-3.77,0.29-4.48,1.32C112.49,89.09,104.07,101.78,95.58,114.43z M206.69,130.56c1.16,0,1.37,0.07,1.47-0.01
		c2.08-1.65,4.1-3.37,6.22-4.96c17.08-12.87,35.02-16.74,54.8-5.94c5.33,2.91,11.26,5.01,17.15,6.55
		c7.32,1.91,14.72,1.94,22.17-4.25c-10.04-15.28-19.89-30.41-29.98-45.38c-0.71-1.05-3.49-1.64-4.86-1.16
		c-21.78,7.62-43.47,15.52-65.25,23.17c-2.75,0.97-3.63,2.34-3.44,5.04C205.6,112.55,206.12,121.49,206.69,130.56z"/>
	<path d="M182.41,64.99c-0.72,1.09-1.42,3.42-2.84,3.99c-1.87,0.75-5.09,1.01-6.33-0.09c-5.7-5.04-11.17-10.42-16.1-16.2
		c-1.12-1.31-0.57-5.41,0.73-7c1.08-1.33,5.34-2,6.51-0.99c6.01,5.16,11.51,10.92,17.08,16.57
		C182.04,61.87,181.96,63.13,182.41,64.99z"/>
	<path d="M237.48,43.79c5.16,0.15,8.17,5.4,5.11,8.95c-4.96,5.77-10.43,11.16-16.2,16.11c-1.33,1.14-5.59,0.76-6.94-0.54
		c-1.4-1.36-2.12-5.72-1.05-6.95c5.2-5.97,11.08-11.36,16.8-16.86C235.83,43.9,237.04,43.92,237.48,43.79z"/>
	<path d="M197.73,56.92c-1.67,1.39-3.39,3.95-5.3,4.12c-2.08,0.18-5.71-1.4-6.29-3.05c-2.46-7.01-4.37-14.27-5.7-21.58
		c-0.32-1.78,1.95-5.22,3.75-5.85c1.79-0.62,5.98,0.79,6.51,2.25C193.39,40.26,195.24,48.01,197.73,56.92z"/>
	<path d="M220.09,34.9c-2.39,8.63-4.16,16.24-6.79,23.54c-0.55,1.51-4.48,2.83-6.51,2.45c-1.62-0.3-4.14-3.6-3.85-5.1
		c1.5-7.78,3.5-15.5,6.02-23.02c0.48-1.43,4.3-2.86,6.15-2.42C217.12,30.82,218.62,33.46,220.09,34.9z"/>
</g>
</svg>
