<?xml version="1.0" encoding="utf-8"?>
<!-- Generator: Adobe Illustrator 25.0.0, SVG Export Plug-In . SVG Version: 6.00 Build 0)  -->
<svg version="1.1" id="Capa_1" xmlns="http://www.w3.org/2000/svg" xmlns:xlink="http://www.w3.org/1999/xlink" x="0px" y="0px"
	 viewBox="0 0 400 400" style="enable-background:new 0 0 400 400;" xml:space="preserve">
<path d="M200,393.48C93.31,393.48,6.52,306.69,6.52,200C6.52,93.31,93.31,6.52,200,6.52c106.69,0,193.48,86.8,193.48,193.48
	C393.48,306.69,306.69,393.48,200,393.48z M200,21.52c-98.42,0-178.48,80.07-178.48,178.48c0,98.42,80.07,178.48,178.48,178.48
	c98.42,0,178.48-80.07,178.48-178.48C378.48,101.58,298.42,21.52,200,21.52z"/>
<g>
	<path d="M224.23,178.26c0,55.11,0,109.24,0,163.74c-16.25,0-32.06,0-48.5,0c0-54.43,0-108.68,0-163.42c-23.92,0-47.21,0-70.93,0
		c0-16.3,0-32.1,0-48.62c1.8,0,3.6,0,5.39,0c20.15,0,40.31-0.1,60.46,0.08c3.97,0.04,5.23-1.04,5.19-5.11
		c-0.2-20.15-0.09-40.3-0.09-60.46c0-2.01,0-4.03,0-6.47c16.13,0,31.94,0,48.41,0c0,23.73,0,47.5,0,71.74c23.95,0,47.25,0,71.02,0
		c0,16.28,0,32.09,0,48.53C271.91,178.26,248.47,178.26,224.23,178.26z"/>
</g>
</svg>
