<?xml version="1.0" encoding="utf-8"?>
<!-- Generator: Adobe Illustrator 25.0.0, SVG Export Plug-In . SVG Version: 6.00 Build 0)  -->
<svg version="1.1" id="Capa_1" xmlns="http://www.w3.org/2000/svg" xmlns:xlink="http://www.w3.org/1999/xlink" x="0px" y="0px"
	 viewBox="0 0 400 400" style="enable-background:new 0 0 400 400;" xml:space="preserve">
<g>
	<path d="M334.82,396.21c-29.51-5.1-58.98-10.45-88.54-15.23c-44.3-7.17-88.68-13.85-132.99-20.95
		c-16.55-2.65-19.32-6.91-16.72-23.9c3.24-21.11,6.53-42.22,10.13-65.39c-27.65,0-53.55,0.03-79.44-0.01
		c-20.95-0.03-23.3-2.24-23.31-22.42c-0.04-74.07-0.04-148.14,0-222.22C3.95,6.82,6.91,3.83,26.04,3.82
		c74.03-0.05,148.05-0.04,222.08,0c20.08,0.01,22.48,2.54,22.51,23.32c0.04,28.56,0.01,57.11,0.01,87.04
		c33.39,5.2,66.07,9.93,98.58,15.58c9.2,1.6,17.93,5.88,26.87,8.93c0,6.13,0,12.26,0,18.39c-5.11,29.49-10.4,58.96-15.28,88.49
		c-3.58,21.64-6.35,43.41-10.2,65c-0.6,3.39-4.97,6.11-7.6,9.14c-1.22-3.44-2.62-6.83-3.58-10.33c-0.38-1.38,0.16-3.03,0.4-4.54
		c4.51-28.72,9.11-57.43,13.55-86.17c3.79-24.57,7.39-49.18,11.26-75.01c-38.6-5.98-75.56-11.7-112.21-17.38
		c-5.07,12.78,3.21,13.35,10.15,14.44c24.18,3.77,48.36,7.6,72.62,10.77c10.49,1.37,15.19,4.94,13.3,16.66
		c-10.19,62.94-20.08,125.94-29.34,189.02c-1.69,11.51-7.11,12.82-16.53,11.34c-62.45-9.81-124.89-19.73-187.43-28.91
		c-11.9-1.75-13.77-7.13-11.93-17.46c2.92-16.41,4.98-32.98,7.97-53.31c-6.44,3.01-12.57,4.15-12.96,6.32
		c-4.28,23.82-7.66,47.8-11.42,72.65c81.39,12.55,160.29,24.72,240.96,37.16c2.07-13.82,3.47-25.9,5.93-37.76
		c0.62-3,4.6-5.3,7.03-7.92c1.47,2.39,4.57,5.13,4.15,7.12c-3.54,16.68-7.73,33.23-11.72,49.82
		C347.07,396.21,340.94,396.21,334.82,396.21z M16.36,258.27c81.5,0,161.34,0,241.47,0c0-81.28,0-161.52,0-241.82
		c-81.09,0-160.92,0-241.47,0C16.36,97.32,16.36,177.22,16.36,258.27z M357.25,163.7c-30.06-4.58-57.53-8.77-86.61-13.21
		c0,32.25,0.01,62.77,0,93.28c-0.01,26.36-0.59,26.96-26.28,26.97c-33.52,0.01-67.04,0-101.53,0c-2.85,19.8-5.47,38.05-8.19,57
		c65.56,10.08,128.68,19.79,192.78,29.65C337.5,291.85,347.25,228.59,357.25,163.7z"/>
	<path d="M40.79,234.47c64.49,0,128.52,0,193.4,0c0-64.73,0-128.46,0-193.56c-64.03,0-128.01,0-193.48,0
		c-0.39,6.61-0.36,13.6-1.46,20.4c-0.37,2.25-3.65,4.03-5.61,6.02c-1.76-2.11-4.88-4.13-5.03-6.35c-0.58-8.64-0.99-17.47,0.25-25.97
		c0.4-2.7,6.13-6.58,9.45-6.6c65.87-0.39,131.74-0.21,197.61-0.4c8.22-0.02,10.49,3.68,10.47,11.18
		c-0.13,65.4-0.19,130.8,0.05,196.2c0.03,8.98-3.8,11.25-11.99,11.23c-64.85-0.19-129.7-0.26-194.55,0.05
		c-9.91,0.05-11.85-4.35-11.79-13.03c0.28-44.45-0.02-88.9,0.37-133.35c0.04-4.09,3.46-8.15,5.31-12.23c2,4.09,5.69,8.17,5.73,12.28
		c0.44,40.87,0.25,81.75,0.32,122.62C39.86,226.48,40.41,229.99,40.79,234.47z"/>
	<path d="M137.1,91.88c20.15-16.09,34.42-17.98,49.88-6.82c15.58,11.24,21.22,33.34,12.89,53.72
		c-10.9,26.69-33.15,41.73-57.69,53.93c-2.7,1.34-7.25,1.02-10.11-0.31c-21.97-10.3-41.63-23.65-53.83-45.48
		c-2.93-5.25-5.11-11.18-6.33-17.07c-3.99-19.28,3.55-37.81,18.55-46.46C108.32,73.08,123.52,78.78,137.1,91.88z M137.58,112.62
		c-3.45-4.16-5.61-6.26-7.16-8.74c-6.92-11.09-16.3-17.34-29.44-12.74c-13.17,4.61-18.85,15.37-18.14,28.79
		c0.36,6.93,1.8,14.47,5.08,20.45c10.97,19.97,28.8,40.07,49.21,39.34c22.41-0.8,41.35-20.85,51.02-43.61
		c3.34-7.86,4.81-18.86,1.88-26.38c-3.06-7.83-11.72-17.07-19.3-18.51c-7.38-1.4-16.76,5.8-24.71,10.2
		C142.89,103.15,141.26,107.55,137.58,112.62z"/>
</g>
</svg>
