<?xml version="1.0" encoding="utf-8"?>
<!-- Generator: Adobe Illustrator 25.0.0, SVG Export Plug-In . SVG Version: 6.00 Build 0)  -->
<svg version="1.1" id="Capa_1" xmlns="http://www.w3.org/2000/svg" xmlns:xlink="http://www.w3.org/1999/xlink" x="0px" y="0px"
	 viewBox="0 0 783.58 192.86" style="enable-background:new 0 0 783.58 192.86;" xml:space="preserve">
<g>
	<path d="M776.16,18.09c-52.92,0-105.84,0-158.58,0c-1.14,2.73-2.36,4.61-2.64,6.62c-0.32,2.24-1.12,4.87,2.38,6.17
		c1.86,0.69,3.21,2.78,4.08,5.17c-1.46-0.34-3.15-1.34-4.34-0.93c-6.53,2.29-7.78-2.69-9.89-6.71c-1.86-3.54-1.23-5.59,3-6.3
		c1.63-0.27,3.12-1.34,4.68-2.05c-0.08-0.55-0.17-1.1-0.25-1.66c-2.03,0-4.07,0-6.1,0c-51.27,0.03-102.55,0.06-153.82,0.08
		c-15.14,0.01-30.27,0.15-45.41-0.12c-8.01-0.14-13.96,2.46-17.14,10.79c-1.23-1.86-2.09-3.34-3.12-4.69
		c-3.1-4.06-6.79-6.18-12.37-5.8c-7.61,0.52-15.3-0.17-22.95-0.22c-10.81-0.07-21.62-0.04-32.43-0.05
		c-21.47-0.01-42.95-0.01-64.42,0c-27.49,0-54.98,0.01-82.47,0.03c-1.75,0-3.51,0.15-5.26,0.22c-0.12,0.48-0.25,0.96-0.37,1.45
		c1.76,0.75,3.47,1.74,5.3,2.2c3.48,0.88,3.82,2.37,2.62,5.78c-2.51,7.1-7.37,8.27-14.54,6.54c1.67-1.45,2.9-3.04,4.52-3.83
		c3.05-1.49,2.75-3.74,2.16-6.32c-1.14-5.02-4.27-6-9.2-5.98C111.31,18.7,63,18.61,14.69,18.63c-1.66,0-3.32,0.35-4.97,0.27
		c-0.79-0.04-1.54-0.72-2.31-1.11c0.75-0.63,1.48-1.76,2.27-1.81c3.32-0.19,6.65-0.05,9.98-0.05c77.11,0.04,154.23,0.09,231.34,0.12
		c41.14,0.02,82.29,0.17,123.43-0.18c4.85-0.04,9.63-2.98,14.53-4.28c1.77-0.47,4.27-0.79,5.58,0.09
		c5.08,3.41,10.46,4.43,16.52,4.42c87.47-0.13,174.93-0.1,262.4-0.12c32.79-0.01,65.59-0.06,98.38-0.07c1.4,0,2.81,0.19,4.21,0.29
		C776.09,16.84,776.12,17.46,776.16,18.09z"/>
	<path d="M288.59,92.15c-3.88,0.2-7.77,0.42-11.65,0.6c-5.81,0.26-10.28-2.87-14.83-6.23c1.01-0.75,2.13-1.58,3.65-2.7
		c-5.93-8.56-3.74-17.05,0.17-25.54c0.76-1.65,1.38-3.4,1.84-5.16c0.95-3.66-0.55-6.6-4.01-7.4c-5.03-1.15-3.84,3.56-4.61,6.32
		c-0.41-0.06-0.82-0.11-1.22-0.17c0-2.92-1.18-7,0.28-8.49c2.04-2.08,6.13-3.22,9.2-2.97c5.39,0.44,6.64,5.21,7.24,9.3
		c8.87,0,17.51,0,26.43,0c-4.14-11.34-20.89-18.81-37.43-17.16c-0.24-0.67-0.59-1.38-0.74-2.14c-0.33-1.69-1.3-4.46-0.69-4.88
		c1.51-1.05,3.75-1.12,5.72-1.4c2.78-0.4,5.58-0.65,8.92-1.02c-0.91,1.85-2.23,4.53-3.53,7.17c4.04,1.19,8.87,1.71,12.69,3.94
		c5.49,3.21,10.52,7.38,15.2,11.74c2.12,1.97,3.46,2.33,5.94,1.28c5.57-2.35,7.97-6.86,8.73-12.41c1.09-8-4.29-13-11.7-10.3
		c-0.17,0.23-0.44,0.46-0.54,0.75c-0.51,1.54-0.98,3.1-1.47,4.66c-0.97-0.39-1.95-0.77-2.92-1.16c0.69-1.72,0.91-3.98,2.16-5.06
		c5.83-5.05,15.9-1.61,18.13,5.96c2.57,8.75-0.65,18.08-8.89,23.48c-3.31,2.16-4.46,4.2-3.69,8c0.4,1.94-0.41,4.12-0.68,6.19
		c-0.31-3.39-0.62-6.79-0.96-10.59c-5.65,0.9-10.76,1.72-15.96,2.55c4.5,12.7,3.93,18.11-2.4,21.97c-3.4,2.08-6.76,1.78-9.88-1.59
		c7.33,0.5,9.8-0.85,10.65-5.54c0.78-4.31-2.24-9.54-6.24-10.81c-5.18-1.64-13.1,1.71-15.48,6.54c-2.71,5.5-0.5,12.85,4.77,16.19
		c0.95,0.6,1.56,1.76,2.51,2.36c2.2,1.38,4.39,3.14,6.83,3.7C282.81,92.74,285.76,92.19,288.59,92.15z"/>
	<path d="M420.11,137.94c3.48-3.93,8-3.65,10.47,0.65c3.34,5.81,0.87,13.24-5.3,15.87c-1.05,0.45-2.15,0.79-3.54,1.3
		c0.45,2.14,0.9,4.33,1.51,7.22c-7.69-2.35-14.92-4.08-17.34-12.62c-0.23-0.79-0.66-1.53-0.94-2.31c-0.98-2.75-2.76-4.45-5.66-2.97
		c-3.24,1.66-2.11,3.92-0.26,6.09c4.29,5.05,6.22,10.83,5.67,17.52c-0.22,2.74,0.29,5.53,0.53,9.32c-2.16-1.61-3.82-2.84-4.51-3.35
		c-3.16,2.65-6.07,6.97-9.12,7.07c-2.7,0.08-5.55-4.53-8.62-7.32c-0.59,0.49-2.16,1.77-4.25,3.48c0.26-10.37-1.4-20.31,6.73-28.07
		c0.69-0.65,0.44-3.49-0.35-4.17c-0.96-0.83-3-0.7-4.5-0.48c-0.72,0.11-1.66,1.28-1.84,2.12c-2.02,9.54-9.07,13.28-18.26,15.49
		c0.41-2.28,0.79-4.42,1.26-7.03c-5.3-1.28-9.6-4.13-9.99-10.29c-0.14-2.23-0.07-5.24,1.25-6.59c1.81-1.86,5.06-3.59,7.38-3.25
		c1.6,0.24,3.08,3.97,3.75,6.38c0.26,0.95-1.82,2.55-2.84,3.86c-0.96-0.77-2.86-1.82-2.72-2.25c0.44-1.44,1.57-2.7,2.53-3.95
		c0.24-0.31,0.83-0.37,1.5-0.64c-2.06-3.39-4.41-3.31-6.99-1.04c-3.09,2.73-3.17,7.43-0.24,10.18c3.57,3.36,9.95,3.73,14.3,0.46
		c2.78-2.09,5.23-4.63,7.75-7.05c3.06-2.95,6.18-4.37,10.04-1.28c2.86,2.29,5.97,2.18,8.72-0.08c3.49-2.86,6.45-1.73,9.29,0.81
		c2.35,2.11,4.25,4.98,6.93,6.4c3.17,1.68,7.08,3.25,10.47,2.91c5.77-0.58,8.37-4.54,7.22-8.7c-1.26-4.54-4.09-5.6-10.15-3.79
		L420.11,137.94z M391.51,175.21c4.44-4.6,5.86-21.7,2.48-26.39c-1.91-2.65-4.39-1.96-4.58,0.71c-0.53,7.32-0.36,14.71-0.19,22.06
		C389.24,172.77,390.66,173.93,391.51,175.21z"/>
	<path d="M482.26,80.78c-1.83-2.24-3.65-4.48-5.35-6.56c-2.24,1.95-4.66,4.05-7.08,6.16c-0.2-0.3-0.41-0.6-0.61-0.9
		c0.44-1.76,1.36-3.56,1.24-5.29c-0.29-4.23,0.89-6.82,5.65-6.34c0.27-3.46,0.82-6.62,0.62-9.72c-0.09-1.38-1.43-3.04-2.66-3.93
		c-7.99-5.76-12.11-13.18-10.28-23.19c1.5-8.17,11.19-12.26,17.76-7.42c1.36,1,1.85,3.16,2.75,4.79c-0.84,0.37-2.36,1.17-2.42,1.06
		c-0.89-1.42-1.57-2.96-2.59-5.07c-7.46-2.6-12.64,1.35-11.89,10.02c0.72,8.38,5.64,12.91,13.91,13.55
		c9.08,0.69,18.12,1.83,25.9,2.65c2.8-3.75,4.66-7.44,7.61-9.74c1.61-1.26,5.26-0.81,7.62-0.02c4.6,1.53,5.33,5.7,2.35,11.35
		c-0.3-0.42-0.73-0.74-0.71-1.04c0.13-2.8,0.02-6.33-3.6-5.4c-2.05,0.52-4.15,4.01-4.65,6.49c-0.42,2.08,1.35,4.65,2.28,6.96
		c3.29,8.11,5.42,16.23-0.02,24.46c1.32,1.09,2.41,1.98,3.53,2.9c-8.22,5.82-16.79,8.73-26.6,5.6c1.66,0.04,3.32,0.13,4.97,0.1
		c4.42-0.07,9.12,0.5,11.21-4.98c0.25-0.65,1.25-1.06,1.97-1.46c5.05-2.88,7.21-10.4,4.51-15.84c-2.65-5.34-11.21-8.57-16.27-6.14
		c-3.98,1.91-6.46,6.56-5.53,10.73c1.2,5.36,5.32,5.86,10.36,5.14c-3.66,3.12-6.44,3.75-9.44,1.72c-8.63-5.81-5.63-13.71-3.1-21.68
		c-5.05-0.86-9.74-1.65-15.1-2.56c-0.32,3.05-0.62,5.86-1,9.49c4.87-2.75,6.47-0.85,7.15,3.13c0.38,2.22,1.39,4.34,2.35,7.18
		c-2.45-0.76-4.87-1.52-7.86-2.45C480.4,76.95,481.33,78.86,482.26,80.78z"/>
	<path d="M396.91,131.21c-0.03,1.48,0.42,3.24-0.22,4.37c-0.92,1.61-2.6,3.78-4.04,3.84c-1.87,0.09-4.93-1.22-5.52-2.71
		c-1.53-3.88-2-8.18-2.89-12.32c0.72,1.28,1.37,2.61,2.18,3.84c0.89,1.36,1.91,2.64,2.87,3.96c0.64-1.69,1.82-3.37,1.84-5.06
		c0.14-14.75,0.08-29.51,0.06-44.27c0-1.21-0.17-2.43-0.3-4.19c-4.02,6.39-7.67,12.17-11.31,17.96c1.04-2.26,2.08-4.52,3-6.53
		c-0.67-0.6-1.79-1.1-1.89-1.76c-0.37-2.42-0.62-4.91-0.48-7.34c0.11-1.85,0.89-3.66,1.37-5.49c1.58,0.99,3.21,1.92,4.71,3.01
		c0.39,0.29,0.41,1.1,0.59,1.67c0.53,0.05,1.07,0.09,1.6,0.14c1.08-6.87,2.16-13.74,3.24-20.61c-0.54-0.15-1.07-0.3-1.61-0.45
		c-0.73,1-1.45,2.01-2.2,3c-5.28,6.98-14.63,9.73-22.89,6.72c-5.36-1.95-8.2-6.5-8.42-13.47c-0.19-5.94,2.81-12.03,7.7-13.35
		c2.64-0.71,6.07,0.23,8.69,1.42c1.07,0.49,1.5,3.75,1.11,5.5c-0.19,0.84-3.5,1.99-4.42,1.42c-1.28-0.79-1.75-3.03-2.32-4.73
		c-0.21-0.64,0.26-1.5,0.73-3.75c-2.66,1.43-4.62,1.94-5.73,3.2c-3.92,4.39-3.11,9.61-1.59,14.61c1.44,4.73,5.22,6.64,9.96,6.92
		c6.09,0.36,8.86-1.7,9.11-7.77c0.13-3.13,1.36-4.38,4.07-5.28c5.67-1.89,5.78-2.63,2.85-7.52c-0.53-0.88,0.05-2.6,0.46-3.83
		c0.45-1.37,1.29-2.62,1.92-3.85c4.05,5.64,4.59-0.44,5.82-1.94c0.65,2.08,1.86,4.42,1.97,6.81c0.09,1.94-1.14,3.94-2.17,7.12
		c1.12,0.72,3.16,1.82,4.94,3.24c1.53,1.22,3.65,2.63,3.97,4.26c1.61,8.16,6.4,10.99,14.01,7.78c6.49-2.73,8.6-16.88,3.1-21.34
		c-1.07-0.87-2.62-1.15-4.66-2c0.19,1.8,0.64,2.94,0.33,3.81c-0.56,1.56-1.25,3.55-2.5,4.23c-0.96,0.52-3.81-0.35-4.14-1.23
		c-0.59-1.57-0.61-4.26,0.38-5.34c2.67-2.91,6.21-3.69,9.95-1.55c5.72,3.26,8.15,10.28,6.21,17.92c-1.52,5.97-6.2,9.34-12.96,9.69
		c-7.81,0.4-14-2.29-18.23-9c-0.44-0.7-0.66-1.55-0.98-2.34c-0.72,0.37-1.44,0.73-2.17,1.1c1.02,6.97,2.04,13.93,3.07,20.94
		c1.24-0.21,1.74-0.19,1.79-0.32c0.83-2.39,0.82-5.99,4.75-4.8c3.99,1.21,2.38,4.22,1.67,7.01c-0.55,2.16-0.36,4.51-0.52,7.08
		c-0.37-0.1-1.06-0.3-2.22-0.63c0.84,1.97,1.59,3.72,2.34,5.47c-3.31-5.04-6.62-10.08-10.35-15.77c0,17.27-0.01,33.75,0.01,50.24
		C392.55,132.42,394.07,133.15,396.91,131.21z"/>
	<path d="M615.2,85.04c-0.24-12.4,2.22-17.23,9.49-19.97c8.73-3.29,19.46-0.99,24.83,5.34c3.68,4.34,3.88,11.12,0.16,17.68
		c0.07-1.32,0.06-2.06,0.17-2.78c0.81-5.66,0.91-11.13-4.83-14.55c-4.88-2.91-13.34-1.45-18.21,2.63
		c-8.43,7.05-10.46,26.47,5.55,31.68c1.41,0.46,2.8,0.98,4.38,1.54c-5.46,0.55-14.91-1.75-20.23-6.11
		c-7.04-5.76-13.58-12.16-20.14-18.49c-4.77-4.61-9.51-8.8-16.85-7.84c-4.97,0.65-8.82,4.91-8.21,9.44
		c0.55,4.11,3.63,5.79,7.74,4.24c0.01-0.15,0.06-0.31,0.02-0.45c-0.57-1.79-1.15-3.57-1.73-5.35c1.16-0.07,3.3-0.36,3.34-0.17
		c0.48,2.06,1.56,4.81,0.65,6.15c-1.27,1.88-4.37,4.07-6.16,3.68c-2.47-0.53-5.14-2.94-6.5-5.27c-2.2-3.77-0.36-9.66,3.43-13.1
		c6.44-5.85,14.33-7.78,22.24-4.97c3.61,1.28,6.25,5.91,8.77,9.43c2.09,2.91,3.36,6.41,5.77,9.34c-2.08-6.02-4.15-12.05-6.28-18.21
		c0.94-0.34,1.35-0.61,1.77-0.63c8.82-0.43,8.79-0.42,9.67,8.74C614.27,79.29,614.69,81.54,615.2,85.04z"/>
	<path d="M138.42,92.19c-6.43-2.7-9.38-12.3-5.7-19.09c3.66-6.74,9.94-9.12,17.11-9.22c7.14-0.1,13.94,1.59,17.06,8.82
		c1.53,3.55,1.35,7.84,1.87,11.32c0.42-4.93,0.9-10.52,1.41-16.46c3.55,0.31,6.78,0.6,10.99,0.97c-2.42,6.91-4.64,13.24-6.85,19.58
		c0.14,0.08,0.28,0.16,0.43,0.25c2.59-4.72,5.04-9.52,7.79-14.15c3.74-6.29,9.13-8.31,17.74-6.5c7.2,1.52,13.55,4.84,15.01,12.7
		c0.54,2.92-1.13,6.68-2.82,9.42c-0.85,1.39-4.3,2.34-6,1.77c-1.99-0.66-3.96-2.95-4.79-5c-0.51-1.24,1.07-3.4,1.94-5.03
		c0.08-0.15,1.82,0.6,2.79,0.93c-0.57,1.6-1.13,3.19-2.07,5.86c1.59-0.12,3.87,0.35,5.36-0.53c2.85-1.7,3.56-4.65,2.25-7.83
		c-2.59-6.31-12.2-8.27-18.41-3.25c-4.76,3.85-8.99,8.38-13.24,12.81c-7.38,7.68-15.6,13.96-26.17,16.53
		c-2.03,0.49-4.12,0.74-6.39,0.21c1.18-0.39,2.36-0.77,3.54-1.18c8.66-2.98,12.46-9.16,11.69-19.01
		c-0.69-8.79-6.21-15.03-14.7-16.45c-5.22-0.87-10.1-0.27-13.3,4.54c-2.84,4.26-1.99,11.55,1.54,15.89
		c0.61,0.75,1.23,1.49,1.85,2.24L138.42,92.19z"/>
	<path d="M436.08,125.99c-6.8-4.37-13.6-8.74-20.58-13.23c-0.89,1.24-1.98,2.77-3.26,4.57c-0.75-2.39-1.37-4.34-1.98-6.29
		c-0.5-0.12-1-0.24-1.5-0.35c-2.82,4.12-5.64,8.25-8.46,12.36c1.77-3.49,3.36-7.08,5.37-10.4c1.62-2.67,1.82-10.19-0.11-13.08
		c2.39,1.46,4.78,2.91,7.89,4.81c2.98-3.5,5.79-7.15,8.98-10.43c3.04-3.14,6.48-5.9,9.23-8.37c10.5,5.12,20.28,10.02,15.18,24.35
		c1.3-0.66,2.03-0.97,2.7-1.39c0.68-0.43,1.29-0.97,2.21-1.67c1.77,1.95,3.39,3.74,5.45,6.01c-4.16,2.09-7.79,3.92-11.42,5.75
		c0.04,0.14,0.08,0.28,0.11,0.42c1.55-0.34,3.12-0.59,4.64-1.02c10.96-3.12,19.18,3.39,19.74,14.88c0.2,4.2-2.11,6.09-4.54,8.05
		c-3.45,2.78-9.09,0.98-9.4-3.05c-0.23-3.04-1.65-3.83-4.01-4.68c-1.61-0.58-2.97-1.87-4.45-2.85c6.17,1.73,12.35,3.46,18.55,5.2
		c0.76-5.94-2.16-10.51-8-11.25c-7.63-0.97-15.37-1.07-23.46-1.57C435.44,124.17,435.76,125.08,436.08,125.99z M441.79,101.26
		c-0.12-0.62-0.23-1.96-0.65-3.2c-3.03-9.01-9.71-10.6-16.37-3.95c-2.96,2.95-6.01,5.81-8.84,8.88c-0.9,0.97-1.8,2.56-1.67,3.75
		c0.44,3.86,10.6,10.72,14.64,10.19C435.77,116.02,441.9,108.92,441.79,101.26z"/>
	<path d="M377.77,114.07c-0.97-0.87-1.95-1.74-3.76-3.37c-0.7,2.47-1.24,4.41-1.92,6.8c-1.26-1.72-2.47-3.36-3.52-4.79
		c-8.28,5.09-16.54,10.16-24.8,15.23c1.62-1.45,3.23-2.89,4.85-4.34c-8.24-0.44-15.93-0.11-23.55,0.76c-4.3,0.49-7.05,3.56-8.35,7.6
		c-0.66,2.05,0,5.06,2.62,3.28c4.21-2.86,8.98-1.43,13.19-3.09c-2.55,1.77-5.18,2.97-5.66,7.02c-0.41,3.52-6.74,3.83-10.15,0.93
		c-1.64-1.4-3.43-2.62-4.51-3.44c0.39-0.98,1.32-2.23,1.32-3.47c-0.02-5.57,2.67-9.84,6.28-13.64c3.47-3.66,7.81-3,12.11-2.01
		c2.01,0.46,3.98,1.09,6.18,0.99c-3.66-1.78-7.31-3.55-11.64-5.65c2.02-2.26,3.59-4.02,5.29-5.92c1.33,0.82,2.53,1.56,4.34,2.67
		c-0.29-3.17-0.98-5.73-0.65-8.15c0.91-6.72,9.43-15.44,15.81-14.95c3.21,0.25,6.4,3.7,9.12,6.22c1.88,1.74,2.94,4.36,4.37,6.58
		c-2.6-2.34-5.23-4.65-7.8-7.01c-3.87-3.54-6.94-3.56-10.81,0.01c-4.24,3.91-5.57,9.43-3.48,14.45c2.56,6.15,8.08,10.33,13.43,10.18
		c3.21-0.09,12.71-6.87,13.49-9.96c0.25-0.99-0.67-2.27-1.05-3.42c5.08,1.77,6.51-3.46,9.81-5.1
		C376.56,103.63,376.64,108.83,377.77,114.07z"/>
	<path d="M551.5,51.15c-7.67-3.58-5.91-19.45,1.86-24.98c9.42-6.7,19.74-6.54,29.93-2.92c6.29,2.23,13.41,4.85,17.61,9.56
		c5.95,6.69,11.84,14.32,12.82,24.04c0.48,4.69-2.47,9.22-6.05,9.6c-4.12,0.44-7.47-2.36-8.42-7.36c-0.83-4.38-0.75-9.02-2.16-13.18
		c-4.93-14.63-17.94-22.92-31.64-20.25C550.49,28.6,545.97,37.2,551.5,51.15z"/>
	<path d="M231.84,50.8c6.24-11.36,1-21.52-11.73-24.83c-16.39-4.26-33.52,8.9-34.73,25.7c-0.18,2.48-0.52,4.95-0.9,7.4
		c-0.76,4.88-4.78,8.1-9,7.3c-3.5-0.67-6.77-5.82-5.3-9.89c2.12-5.86,4.34-11.98,7.95-16.95c9.64-13.24,23-19.5,39.55-18.29
		c12.57,0.92,21.67,11.93,18.84,23.03c-0.65,2.56-2.33,4.86-3.54,7.28C232.6,51.31,232.22,51.06,231.84,50.8z"/>
	<path d="M715.03,56.79c1.34-0.77,2.62-1.7,4.04-2.3c8.65-3.63,13.44-13.03,10.63-21.07c-1.55-4.45-5.96-7.68-10.59-7.77
		c-5.81-0.11-9.29,4.11-7.06,9.42c0.86,2.05,3.81,3.22,5.81,4.79c0.86-2.14,1.71-4.28,2.92-7.29c1.4,0.03,4.18,0.53,4.57,4.07
		c0.46,4.15-1.17,7.61-5.14,9.37c-6.17,2.75-11.66,0.64-15.09-5.54c-3.12-5.62-3.12-5.62-7.99-1.67c-7.71,6.25-19.88,4.62-23.6-3.73
		c-1.31-2.94-0.8-7.13,0.13-10.39c0.37-1.29,4.13-2.14,6.38-2.2c1.56-0.04,3.16,1.61,4.56,3.18c-3.41-1.36-7.11-3.18-8.85,1.18
		c-0.91,2.28-0.42,5.99,0.94,8.09c2.34,3.62,6.52,3.12,9.87,1.31c2.4-1.3,4.44-3.5,6.26-5.62c8.31-9.68,18.09-9.88,29.04-6.53
		c6.18,1.89,8.91,6.25,9.33,12.1c0.6,8.48-2.2,15-10.1,18.75c-1.9,0.9-4.1,1.2-6.15,1.77C714.95,56.72,715.03,56.79,715.03,56.79z"
		/>
	<path d="M528.49,118.28c1.91-2.01,4.01-3.88,5.69-6.06c1.99-2.58,4.24-5.23,5.25-8.23c1.25-3.7-1.39-7.03-5.11-6.72
		c-2.04,0.17-4.55,1.48-5.69,3.1c-0.7,0.99,0.81,3.53,1.25,5.11c-3.49-0.62-5.63-3.28-3.86-6.9c1.99-4.08,5.33-7.47,7.73-11.38
		c1.93-3.15,3.85-6.49,4.72-10.01c0.34-1.39-1.98-4.69-3.48-4.97c-2.24-0.41-5.53,0.42-7.02,2c-0.93,0.99,0.6,4.32,1.18,7.36
		c-1.46-1.4-4.07-2.77-4.07-4.15c-0.01-2.32,1.03-5.37,2.73-6.82c3.42-2.92,7.55-2.03,11.16,0.26c3.46,2.19,4.61,5.71,3.86,9.52
		c-0.67,3.37-2.05,6.59-1.28,7.92c2.22,2.06,4.44,4.11,6.66,6.17c-0.37,0.82-0.75,1.64-1.12,2.46c0.84-2.89,1.8-5.75,2.47-8.67
		c0.69-2.99,1.09-6.04,1.84-10.4c1.3,4.75-2.44,8.89,1.93,12.32c-0.46,0.91-1.18,2.34-2.44,4.85c2.1-0.78,3.28-1.39,4.54-1.65
		c3.85-0.8,7.76-2.18,11.59-2.02c7.38,0.31,11.99,8.85,8.83,15.42c-2.79,5.8-7.94,6.14-11.95,0.52c4.09-0.32,8.19-0.91,7.3-6.38
		c-0.7-4.3-7.29-8.07-11.39-5.68c-7.51,4.38-14.46,9.74-21.53,14.86c-3.44,2.49-6.6,5.37-9.89,8.07
		C528.39,118.18,528.49,118.28,528.49,118.28z"/>
	<path d="M62.94,33.72c0.95,2.1,1.9,4.21,2.85,6.31c1.94-1.38,4.92-2.39,5.57-4.23c0.81-2.27,0.59-6-0.85-7.68
		c-1.45-1.71-4.89-2.03-7.53-2.31c-1.62-0.17-3.36,0.9-5.77,1.63c8.3-7.46,23.17-6.85,31.01,0.73c2.27,2.19,4.31,4.63,6.6,6.79
		c3.12,2.95,6.92,3.31,10.59,1.52c3.34-1.63,4.5-6.47,2.81-9.55c-1.7-3.09-3.92-3.36-8.52-1.02c1.3-3.28,2.79-4.67,5.93-3.58
		c2.23,0.77,5,3.1,5.49,5.2c2.08,8.9-5.08,15.63-15.64,14.55c-3.35-0.34-6.89-2.18-9.65-4.26c-3.28-2.47-4.95-2.4-6.84,1.33
		c-3.72,7.34-8.19,9.45-14.8,7.12c-4.06-1.43-6.39-4.68-5.67-8.86c0.36-2.09,2.8-3.82,4.3-5.71C62.86,32.38,62.9,33.05,62.94,33.72z
		"/>
	<path d="M254.08,105.52c0.12-2.12,1.12-5.38,0.15-6.15c-1.75-1.38-4.87-2.1-7.07-1.6c-3.2,0.73-4.24,3.87-2.96,6.82
		c1.26,2.91,3.31,5.48,5.73,9.34c-6.52-5.43-11.86-10.27-17.63-14.54c-4.03-2.98-8.29-6.39-14.01-4.24
		c-3.5,1.32-6.84,3.51-5.66,7.52c0.66,2.26,3.89,3.76,6.49,6.07c-0.95,0.5-3.03,2.52-4.79,2.27c-2.24-0.31-5.03-1.98-6.18-3.9
		c-4.12-6.89,1.08-15.88,9.36-15.82c4.79,0.03,9.56,1.79,14.71,2.84c-0.82-1.62-1.67-3.29-2.7-5.32c1.05,0.26,1.85,0.45,2.81,0.69
		c0.19-1.13,0.37-2.24,0.61-3.66c1.26,3.66,2.44,7.09,3.71,10.79c2.61-2.45,4.69-4.41,7.08-6.66c-0.86-2.58-2.04-5.64-2.89-8.79
		c-1.12-4.16,0.41-7.55,3.73-10.1c3.56-2.73,7.66-2.94,11.17-0.53c1.65,1.13,2.8,4.09,2.79,6.21c-0.01,1.6-2.21,3.2-3.33,4.66
		c0-3.19,0.9-7.22-0.19-7.87c-2.12-1.26-5.83-1.59-8.05-0.54c-3.4,1.61-3.11,5.3-1.28,8.27c1.73,2.8,3.97,5.28,5.96,7.92
		c1.89,2.51,4.14,4.85,5.53,7.62C259.33,101.16,257.81,104.11,254.08,105.52z"/>
	<path d="M632.45,44.87c0.8,2.61,0.81,5.27,2.07,6.17c2.57,1.84,5.06,0.47,6.64-2.19c2.26-3.8,1.96-10.42-2.03-13.85
		c-4.7-4.04-10.44-6.88-15.25-9.94c5.31,0,11.73,0,18.15,0c0.02,0.28,0.04,0.56,0.06,0.84c-2.48,0-4.96,0-7.68,0
		c4.12,2.75,8.16,4.92,11.56,7.82c6.04,5.16,8.61,11.81,8.02,19.97c-0.21,2.93,1.25,6.31,2.9,8.88c0.7,1.09,4.31,1.43,5.71,0.61
		c1.08-0.63,0.85-3.61,1.06-5.56c0.06-0.53-0.38-1.11-0.6-1.67c0.6-0.13,1.19-0.26,1.79-0.39c0.31,2.42,1.42,5.12,0.71,7.19
		c-0.66,1.91-3.05,3.97-5.07,4.5c-4.72,1.23-8.46-1.22-10.97-5.11c-2.63-4.08-5.14-6.86-10.86-5.08c-4.15,1.29-6.86-1.99-7.9-5.85
		C630.04,48.62,629.43,45.5,632.45,44.87z"/>
	<path d="M119.3,56.81c0.25,3.12-1.27,7.31,3.94,7.34c4.62,0.03,6.1-3.32,6.71-7.23c0.08-0.49,0.09-1,0.04-1.49
		c-1.66-14.88,6.71-23.11,19.9-29.12c-3.26-0.19-5.68-0.34-8.11-0.48c0.01-0.32,0.02-0.63,0.04-0.95c6.45,0,12.91,0,18.15,0
		c-4.79,2.94-10.6,5.67-15.34,9.68c-4.28,3.62-5.04,11.11-2.07,14.56c1.35,1.57,4.45,2.14,6.74,2.1c0.73-0.01,1.4-3.44,2.34-5.93
		c1.76,1.08,1.82,3.41,1.04,5.94c-1.14,3.69-3.78,6.88-7.53,5.7c-5.62-1.78-8.38,0.62-11.05,4.73c-2.27,3.48-5.22,6-9.79,5.69
		C118.31,66.92,116.04,62.35,119.3,56.81z"/>
	<path d="M493.92,131.78c11.76-3.32,12.78-14.8,4.04-23.97c-7.31-7.67-19.56-8.45-28.39-2.26c-1.63,1.14-3.08,2.55-4.7,3.7
		c-3.41,2.42-7.86,2.23-9.31-0.55c-2.03-3.89-0.27-6.96,3.07-8.82c3.01-1.67,6.37-2.84,9.7-3.74c12.55-3.35,28.85,3.15,35.37,13.91
		c4.59,7.58,3.51,15.63-3.04,20.53c-1.77,1.33-4.15,1.84-6.25,2.73C494.25,132.8,494.09,132.29,493.92,131.78z"/>
	<path d="M289.52,132.27c-4.02,0.86-7.28-0.95-10.12-5.59c-3.68-6.04-2.95-13.13,2.37-19.35c8.54-9.99,19.71-13.06,32.33-11.34
		c3.38,0.46,6.75,1.76,9.86,3.23c4.56,2.16,6.25,6.64,4.17,9.77c-1.63,2.45-6.1,2.1-9.99-0.16c-4.5-2.62-9.05-5.82-13.99-6.91
		c-9.93-2.19-19.85,4.16-23.3,13.67C278.16,122.95,280.68,127.79,289.52,132.27z"/>
	<path d="M676.07,54.73c0.73,4.8,1.39,9.61,2.22,14.39c0.81,4.72,1.68,9.43,2.76,14.09c0.32,1.39,1.25,2.76,2.22,3.84
		c2.17,2.41,5.3,4.14,7.72,1.49c1.51-1.65,1.04-5.1,1.59-8.51c2.7-0.43,4.91,2.49,4.27,5.18c-0.62,2.63-3.45,5.73-6.02,6.69
		c-4.42,1.65-7.42-1.81-9.58-5.36c-1.27-2.09-2.07-4.46-3.35-7.31c-1.06,2.55-1.89,4.54-2.71,6.53c-0.22-0.07-0.43-0.14-0.65-0.22
		c0.44-2.02,0.87-4.04,1.38-6.41c-2.16-0.11-4.06-0.2-6.18-0.3c-2.1,4.48-2.51,10.83-11.41,10.02c6.73-1.53,6.76-5.9,7.02-10.15
		c0.24-4,0.52-7.99,0.81-12.27c1.42,0.48,1.87,0.55,1.88,0.65c0.21,3.26,1.35,6.63,4.87,6.14c1.55-0.22,3.5-4.22,3.6-6.58
		c0.16-3.85-1.04-7.76-1.67-11.64C675.24,54.92,675.65,54.83,676.07,54.73z"/>
	<path d="M103.27,83.08c0.98-6.44,1.96-12.88,2.65-17.47c1.05,1.78,2.91,4.93,4.77,8.09c2.01-1.8,4.02-3.6,6.48-5.81
		c0.69,6.15,1.45,13,2.39,21.44c-2.29-3.82-4.03-6.73-6.12-10.22c-1.22,0-3.26,0-5.94,0c0.85,3.22,1.62,6.15,2.4,9.09
		c-0.24,0.1-0.48,0.2-0.72,0.29c-1-2.84-2-5.69-3.2-9.08c-0.98,1.62-1.68,2.79-2.39,3.96L103.27,83.08z"/>
	<path d="M644.24,92.25c-6.45,3.28-12.37,1.72-14.6-3.14c-1.72-3.76-0.63-7.86,2.67-9.48c3.22-1.57,5.77-0.54,7.71,2.36
		c2.55,3.82,0.3,6.16-2.53,8.34c-0.5,0.39-0.99,0.8-2.36,1.91C638.85,92.25,641.55,92.25,644.24,92.25z"/>
	<path d="M347.21,57.6c-0.57,1.46-1.45,2.88-1.64,4.39c-0.76,6.05-1.49,4.73-6.95,8.03c-7.31,4.4-5.77-1.27-7.04-4.4
		c-0.61-1.51-1.44-2.93-2.63-5.31c2.81,0.92,5.37,1.76,8.37,2.74c0-4.18,0-8.24,0-12.3c0.42-0.01,0.84-0.01,1.26-0.02
		c0,4.2,0,8.39,0,13.24c3.06-2.94,5.4-5.18,7.73-7.41C346.61,56.9,346.91,57.25,347.21,57.6z"/>
	<path d="M445.11,49.65c0.66,4.3,1.31,8.6,1.98,12.97c2.22-0.68,4.77-1.46,7.03-2.15c-1.02,2.97-1.91,5.6-2.83,8.21
		c-0.92,2.59-1.83,5.04-5.07,1.96c-0.65-0.62-1.94-0.63-2.95-0.83c-4.08-0.79-6.46-2.53-5.21-7.35c0.37-1.41-0.9-3.25-0.92-5.75
		c2.37,2.13,4.74,4.26,8.05,7.23c0-5.23,0-9.82,0-14.41L445.11,49.65z"/>
	<path d="M138.34,92.3c2.89,0,5.78,0,8.66,0c0.21-0.37,0.42-0.74,0.62-1.12c-0.94-0.64-1.99-1.16-2.81-1.93
		c-2.34-2.19-3.45-5.05-0.88-7.35c1.69-1.51,5.34-3.04,6.67-2.22c2.04,1.26,4.11,4.64,3.92,6.94c-0.57,7.18-9.5,10.06-16.1,5.59
		C138.42,92.19,138.34,92.3,138.34,92.3z"/>
	<path d="M528.39,118.18c-0.84,1.15-1.68,2.31-2.65,3.65c2.51,0.85,4.98,1.7,7.98,2.72c-3.12,1.79-5.45,3.23-7.88,4.49
		c-2.3,1.19-4.5,1.63-5.25-1.85c-0.14-0.63-0.26-1.36-0.66-1.81c-3.44-3.92-4.19-7.47,0.77-10.92c0.91-0.63,0.9-2.59,2.61-4.13
		c0.38,3.16,0.77,6.31,1.16,9.57c1.16-0.47,2.59-1.04,4.02-1.61C528.49,118.28,528.39,118.18,528.39,118.18z"/>
	<path d="M686.42,102.9c0.76,1.32,2.47,3.14,2.09,3.85c-1.05,1.95-2.76,4.49-4.6,4.86c-2.69,0.55-5.26,0.07-8.21,1.5
		c-2.35,1.13-6.37-0.8-9.46-1.9c-0.81-0.29-0.91-2.56-1.34-3.93c0.49-0.21,0.99-0.42,1.48-0.62c0.84,0.92,1.68,1.84,3.22,3.53
		c2.24-6.67,4.27-12.71,6.3-18.76c0.28,0.09,0.55,0.18,0.83,0.27c-0.37,4.02-1.05,8.03-1.01,12.04c0.05,4.23,3.97,6.95,7.98,5.79
		c1.28-0.37,2.83-1.43,3.28-2.56c0.34-0.86-0.89-2.32-1.42-3.52C685.84,103.28,686.13,103.09,686.42,102.9z"/>
	<path d="M256.38,119.06c1.53,0.36,2.42,0.58,3.07,0.73c0.4-3.13,0.78-6.09,1.16-9.05c0.38,0.01,0.76,0.02,1.14,0.04
		c0.43,1.25,0.47,3.07,1.34,3.65c6.19,4.09,2.93,7.93,0.56,12.59c-2.08,4.09-3.76,2.95-6.39,1.23c-1.8-1.18-3.82-2.03-6.43-3.38
		c2.11-0.97,4.29-1.97,6.75-3.11C257.31,121.12,256.94,120.3,256.38,119.06z"/>
	<path d="M303.39,78.8c0.08-1.31,0.16-2.63,0.24-4.03c-2.25,0.67-4.45,1.33-7.3,2.18c1.22-2.22,2.36-3.57,2.73-5.11
		c1.59-6.64,1.5-6.66,7.41-4.7c0.8,0.38,1.7,1.22,2.37,1.06c3.83-0.88,4.04,1.75,4.39,4.27c0.31,2.24,0.53,4.49,0.86,7.41
		c-3.52,0.03-4.96-3.45-7.22-6.67C305.52,75.37,304.45,77.09,303.39,78.8z"/>
	<path d="M118.58,107.32c-0.24,1.18-0.23,3.24-0.77,3.39c-3.59,1.04-7.28,1.92-10.99,2.32c-1.82,0.2-3.78-1.12-5.65-1.07
		c-4.47,0.11-6.6-2.54-5.21-8.56c0.36,5.03,2.58,6.83,6.36,6.18c4.04-0.7,6.1-3.16,5.67-7.37c-0.35-3.44-0.81-6.87-0.36-10.63
		c2.11,6.07,4.22,12.14,6.6,18.99c1.42-1.79,2.14-2.71,2.86-3.62C117.59,107.07,118.09,107.2,118.58,107.32z"/>
	<path d="M218.35,55.15c-5.91-1.79-8.81-5.62-7.41-9.72c1.13-3.32,5.21-5.66,7.94-3.73c1.89,1.34,3.6,4.49,3.47,6.72
		C222.21,50.74,219.77,52.92,218.35,55.15z"/>
	<path d="M565.4,55.17c-4.9-9.52-5.14-11.72-1.21-13.39c3.22-1.37,6.31-1.06,7.98,2.6C574.29,49.01,571.97,52.8,565.4,55.17z"/>
	<path d="M511.63,30.91c-1.92-2.98-3.46-5.35-4.6-7.13c3.36,0,6.28-0.17,9.18,0.06c1.85,0.15,3.96,0.51,5.34,1.57
		c0.68,0.53,0.25,2.94-0.17,4.36c-0.72,2.48-2.46,2.73-5,2.42c-3.29-0.4-6.7,0.17-10.17-0.41C508.02,31.5,509.83,31.2,511.63,30.91z
		"/>
	<path d="M570.52,60.99c2.48-3.29,4.96-6.59,7.45-9.89c4.12,1.1,7.92,2.12,11.94,3.2c-3.01,1.48-5.51,2.01-6.9,3.55
		c-2.88,3.17-5.32,6.23-9.92,2.73c-0.27-0.21-1.34,0.63-2.04,0.98C570.87,61.37,570.69,61.18,570.52,60.99z"/>
	<path d="M445.19,49.53c-1.78-4.56-3.56-9.12-5.85-14.96c2.04,2.62,3.27,4.21,4.86,6.26c0.42-3.54,0.78-6.56,1.12-9.37
		c1.74,2.65,3.21,5.57,5.33,7.89c1.84,2,4.74,3.76,2.37,6.44c-1.2,1.35-4.35,0.98-7.47,1.54c0.02-0.12-0.2,1.09-0.44,2.32
		C445.11,49.65,445.19,49.53,445.19,49.53z"/>
	<path d="M339.39,41.12c1.53-2.05,2.75-3.7,3.98-5.34c0.19,0.1,0.37,0.2,0.56,0.29c-1.66,3.54-3.31,7.08-4.75,10.15
		c-1.34,0.28-2.58,0.82-3.76,0.71c-1.73-0.15-4.39-0.28-4.88-1.28c-0.61-1.26,0.12-3.69,1.07-5.08c2.11-3.1,4.71-5.87,6.72-8.3
		C338.55,34.19,338.94,37.43,339.39,41.12z"/>
	<path d="M205.62,51.54c1.56,1.83,2.99,3.46,4.34,5.14c0.51,0.63,0.83,1.41,1.21,2.08c-3.8,4.5-5.66,4.36-9.56,0.24
		c-1.79-1.89-4.34-3.08-7.23-5.06C197.81,53.22,201.53,52.42,205.62,51.54z"/>
	<path d="M679.82,45.26c-4.72-2.88-9.44-5.75-14.17-8.63c-0.27,0.23-0.53,0.46-0.8,0.69c1.91,2.6,3.81,5.19,5.21,7.1
		c-6.78-5.62-14.08-11.67-20.49-16.98c10.53,3.07,20.35,10.5,30.87,16.59C680.24,44.45,680.03,44.86,679.82,45.26z"/>
	<path d="M299.23,126.18c-4.87,0.09-8.14-0.71-7.61-4.92c0.2-1.57,2.73-3.84,4.38-4.02c3.23-0.34,5.13,2.25,5.09,5.37
		C301.08,124.05,299.62,125.48,299.23,126.18z"/>
	<path d="M484.75,126.12c-0.54-0.9-2.47-2.96-2.06-3.66c1.23-2.1,3.16-4.06,5.29-5.18c0.57-0.3,3.89,2.46,4.08,4.04
		C492.53,125.17,489.5,126.04,484.75,126.12z"/>
	<path d="M103.59,83.36c-1.85,6.16-6.05,9.55-10.81,8.74c-3.7-0.63-6.8-4.06-6.13-7.21c0.61-2.85,1.95-5.27,4.73-4.77
		c0,2.82-0.78,5.57,0.18,7.43c1.56,3.03,6.17,2.54,8.87-0.55c1.06-1.21,1.9-2.61,2.84-3.93C103.27,83.08,103.59,83.36,103.59,83.36z
		"/>
	<path d="M103.56,43.28c10.42-5.75,20.85-11.5,31.27-17.25c0.15,0.32,0.3,0.63,0.44,0.95c-5.08,3.71-9.99,10.11-15.3,10.46
		c-6.91,0.46-9.91,6.21-15.67,7.12C104.05,44.13,103.8,43.7,103.56,43.28z"/>
	<path d="M372.75,173.5c-2.38-1.89-4.77-3.78-8.39-6.64c3.08-0.29,6.05-1.37,6.88-0.47c1.58,1.72,1.95,4.56,2.82,6.93
		C373.62,173.37,373.18,173.43,372.75,173.5z"/>
	<path d="M409.76,173.24c0.86-2.4,1.26-5.18,2.78-7.03c0.65-0.79,3.66,0.36,6.73,0.8c-3.49,2.66-5.87,4.47-8.25,6.28
		C410.61,173.26,410.18,173.25,409.76,173.24z"/>
	<path d="M714.95,56.72c-10,1.74-18.58-2.01-25.9-5.79c7.89,1.77,16.91,3.8,25.96,5.85C715.03,56.79,714.95,56.72,714.95,56.72z"/>
	<path d="M419.98,137.84c0.83,0.67,1.73,1.29,2.49,2.04c1.02,1.01,1.94,2.12,2.9,3.19c-1.01,0.9-2.02,1.8-3.04,2.7
		c-0.97-1.17-2.39-2.2-2.78-3.53c-0.37-1.26,0.35-2.83,0.57-4.28C420.11,137.94,419.98,137.84,419.98,137.84z"/>
	<path d="M493.4,135.03c2.58-0.76,5.18-1.46,7.74-2.28c2.47-0.79,4.9-1.71,7.34-2.57c0.13,0.38,0.26,0.76,0.39,1.14
		c-5,1.71-9.99,3.43-14.99,5.14C493.72,135.98,493.56,135.5,493.4,135.03z"/>
	<path d="M359.87,105.7c-2.4,2.64-5.67,4.09-9.19,1.48c-1.37-1.02-2.08-3.58-2.11-5.46c-0.01-0.94,2.38-2.84,3.37-2.65
		c1.75,0.33,3.36,1.81,4.83,3.03C357.89,103.03,358.7,104.31,359.87,105.7z"/>
	<path d="M423.72,106.51c1.38-1.89,1.91-2.96,2.73-3.66c1.68-1.43,3.4-3.29,5.37-3.69c0.89-0.18,3.73,3.36,3.37,4.1
		c-0.98,2.05-2.94,4.38-4.98,4.96C428.34,108.75,425.86,107.15,423.72,106.51z"/>
</g>
</svg>
