<?xml version="1.0" encoding="utf-8"?>
<!-- Generator: Adobe Illustrator 25.0.0, SVG Export Plug-In . SVG Version: 6.00 Build 0)  -->
<svg version="1.1" id="Capa_1" xmlns="http://www.w3.org/2000/svg" xmlns:xlink="http://www.w3.org/1999/xlink" x="0px" y="0px"
	 viewBox="0 0 279.9 400" style="enable-background:new 0 0 279.9 400;" xml:space="preserve" fill="#000">
<g>
	<path d="M186.3,357.3c7.1,0,13.5-0.1,20,0c18.9,0.2,33.7,13.4,36.3,32.1c1,7.5-1.2,10-8.8,10c-62.5,0-125,0-187.5,0
		c-7.8,0-10-2.5-8.8-10.3c2.8-18.7,17.6-31.6,36.6-31.7c6.3-0.1,12.6,0,19.6,0c0-1.8,0-3.4,0-5c0-68.4,0-136.8,0-205.2
		c0-7.8,1.5-9.3,9.3-9.3c10.2,0,20.4,0,31.1,0c0-4.2,0.1-8.1-0.1-12c-0.1-0.9-1.2-2-2.1-2.5c-10.2-5.3-14.4-13.5-12.5-25
		c2.2-13,8.2-24.4,15.5-35.1c2.8-4.1,7.4-4.1,10.2-0.1c7.6,11.1,13.7,22.8,15.7,36.3c1.6,10.5-2.9,18.8-12.6,23.8
		c-0.9,0.5-2.1,1.6-2.2,2.5c-0.2,3.9-0.1,7.8-0.1,12.1c10.8,0,21.1,0,31.5,0c7.3,0,9,1.6,9,8.8c0,68.4,0,136.8,0,205.2
		C186.3,353.5,186.3,355.1,186.3,357.3z M105.7,223.4c0,44.7,0,89.2,0,133.7c23,0,45.7,0,68.6,0c0-49.3,0-98.5,0-147.6
		c-8.2,0.2-9.1,1.1-9.1,8.9c0,2.9,0,5.9,0,8.8c-0.1,10-6.7,17.2-15.8,17c-9-0.1-15.4-7.2-15.4-17c0-10.5,0-21,0-31.5
		c0-3-0.2-5.9-4.1-6c-3.9-0.1-4.4,2.7-4.3,5.8c0.1,3.1,0,6.2,0,9.3C125.6,217.9,119,224.1,105.7,223.4z M105.4,149.6
		c0,19.7-0.1,39,0.2,58.2c0,1.3,2.4,3.4,4,3.7c2.6,0.5,4.1-1.4,4.2-4.1c0.1-4.1,0-8.1,0-12.2c0-10.3,6.4-17.4,15.8-17.5
		c9.6-0.1,16.2,7,16.2,17.5c0,10.5,0,21,0,31.5c0,2.8,0.3,5.3,3.7,5.4c3.4,0.1,4-2.4,3.9-5.2c-0.1-4.1-0.1-8.1,0-12.2
		c0.1-9.2,5.9-15.6,15-16.8c5.1-0.6,6.1-1.7,6.1-7.1c0-12.6,0-25.2,0-37.8c0-1.2-0.2-2.4-0.3-3.6
		C151.2,149.6,128.6,149.6,105.4,149.6z M50,387.3c60.1,0,119.9,0,179.8,0c-2.6-10.8-12-18.2-23.4-18.2c-15-0.1-30,0-45,0
		c-29.2,0-58.4,0-87.5,0C62,369.1,52.5,376.4,50,387.3z M141.4,77.8c-0.6,0.1-1.2,0.2-1.9,0.2c-4.4,7.6-8,15.5-8.8,24.4
		c-0.4,5.2,2.2,9,6.8,10.2c6.9,1.9,13.1-3.8,11.4-11.6C147.1,93.2,143.9,85.5,141.4,77.8z"/>
	<path d="M256.9,213.8c-2.1-0.9-3.3-1.2-4.4-1.8c-5.4-3-10.7-6.1-16-9.2c-3.7-2.2-4.7-5.3-2.9-8.4c1.8-3,5.1-3.8,8.8-1.8
		c5.6,3.1,11.2,6.4,16.7,9.7c2.5,1.5,4,4.1,2.6,6.8C260.6,211,258.4,212.3,256.9,213.8z"/>
	<path d="M134,16.5c0-3.2-0.1-6.4,0-9.6c0.1-3.8,2.7-6.4,6-6.1c3.6,0.3,5.7,2.4,5.7,6c0.1,6.6,0.1,13.1,0,19.7
		c-0.1,3.8-2.7,6.3-6,6.2c-3.3-0.1-5.6-2.6-5.7-6.4C133.9,22.9,134,19.7,134,16.5z"/>
	<path d="M22.6,67.3c2,0.6,3.1,0.6,3.9,1.1c6,3.4,12,6.7,17.8,10.3c2.9,1.8,3.7,4.5,2.1,7.6c-1.5,2.9-4.8,4.1-7.9,2.4
		c-6-3.3-12.1-6.5-17.7-10.4c-1.6-1.1-2.8-4.4-2.4-6.3C18.7,70.1,21.3,68.6,22.6,67.3z"/>
	<path d="M22.9,213.5c-1.2-1-3.8-2.3-4.2-4.1c-0.5-2,0.2-5.5,1.7-6.5c6-4.1,12.4-7.6,18.8-11c2.6-1.4,5.3-0.4,7,2.1
		c1.7,2.5,1.8,5.6-0.7,7.2c-6.6,4.2-13.5,7.9-20.3,11.8C24.8,213.3,24.4,213.2,22.9,213.5z"/>
	<path d="M237.3,89.6c-1.2-1.2-3.6-2.5-4-4.3c-0.5-1.9,0.3-5.2,1.8-6.1c6-4,12.3-7.6,18.8-11c2.7-1.4,5.6-0.5,7.3,2.3
		c1.6,2.6,1.3,5.6-1.1,7.1c-6.3,4-13,7.6-19.5,11.3C239.9,89.3,239.1,89.2,237.3,89.6z"/>
	<path d="M16,146.2c-3.4,0-6.7,0.1-10.1,0c-3.4-0.1-5.5-1.9-5.9-5.3c-0.4-3.2,1.9-6.2,5.3-6.3c7-0.3,14-0.3,21,0
		c3.5,0.1,5.7,2.5,5.5,6.1c-0.2,3.5-2.5,5.5-6.2,5.5C22.5,146.2,19.2,146.2,16,146.2z"/>
	<path d="M263.7,146.2c-3.2,0-6.4,0.1-9.6,0c-3.7-0.1-5.7-2.2-6-5.7c-0.3-3.1,2.3-5.8,5.8-5.9c6.8-0.2,13.7-0.2,20.6,0
		c3.5,0.1,5.8,2.9,5.5,6.1c-0.3,3.5-2.3,5.3-5.7,5.5C270.7,146.3,267.1,146.2,263.7,146.2z"/>
	<path d="M89.5,42.5c-1.5,1.7-2.7,4.3-4.4,4.7c-2,0.5-5.5-0.3-6.5-1.8c-4.1-6-7.6-12.4-11-18.8c-1.4-2.6-0.4-5.3,2.1-7
		c2.5-1.7,5.6-1.7,7.2,0.7c4.2,6.6,7.9,13.5,11.8,20.2c0.2,0.3,0.1,0.8,0.2,1.2C89,42,89.2,42.2,89.5,42.5z"/>
	<path d="M213.2,23.5c-0.6,2-0.7,3-1.2,3.9c-3.3,5.8-6.6,11.7-10,17.4c-1.8,3-4.7,4-7.9,2.2c-3.2-1.8-3.9-4.8-2.2-7.9
		c3.2-6,6.5-12,10.4-17.6c1.1-1.6,4.4-2.6,6.4-2.2C210.5,19.6,211.9,22.2,213.2,23.5z"/>
	<path d="M154.2,304.3c0-3.6-0.1-7.3,0-10.9c0.1-4,2.7-6.7,6.1-6.6c3.3,0.1,5.6,2.7,5.7,6.5c0.1,7.4,0.1,14.8,0,22.2
		c-0.1,4.2-2.5,6.6-6.1,6.5c-3.4-0.1-5.6-2.5-5.7-6.4C154.2,311.8,154.2,308.1,154.2,304.3z"/>
</g>
</svg>
