<?xml version="1.0" encoding="utf-8"?>
<!-- Generator: Adobe Illustrator 25.0.0, SVG Export Plug-In . SVG Version: 6.00 Build 0)  -->
<svg version="1.1" id="Capa_1" xmlns="http://www.w3.org/2000/svg" xmlns:xlink="http://www.w3.org/1999/xlink" x="0px" y="0px"
	 viewBox="0 0 268.1 397.2" style="enable-background:new 0 0 268.1 397.2;" xml:space="preserve" fill="#000">
<g>
	<path d="M236.5,138c23.3,4.7,35.3,21,30.5,40.6c-4.9,19.8-23.1,28.3-45.3,21.8c-8.6,10.2-16.9,20.2-25.5,30.4
		c5.5,0,11.5-0.1,17.5,0c7.1,0.2,14.3-0.1,21.3,1.1c18.5,3.4,32.6,19.9,32.8,38.7c0.4,38.7,0.2,77.4,0.1,116.1
		c0,7.3-3.7,10.3-12.2,10.3c-54.7,0-109.3,0-164,0c-26.6,0-53.1,0-79.7,0c-9,0-12.1-3.1-12.1-12.2c0-37-0.1-73.9,0-110.9
		c0-25.4,17.9-43.2,43.3-43.3c12.6,0,25.3,0,38.7,0c-5.2-5.3-10-9.8-14.2-14.9c-4.1-5-7.6-10.5-11.4-15.8
		c-21.1,6.3-37.8-0.3-44.6-17.6c-7.2-18.3,1.1-33.3,24.8-44.5c-16.6-17.1-20.3-37.7-17-60.3c1.3-9.2,4.8-17.5,10.6-24.6
		C57.3,20.3,92,1.6,134.8,0.1c22.6-0.8,42.6,7.2,59.7,22.2c2.2,1.9,5.2,2.9,8,3.9c6.5,2.2,13.4,3.6,19.7,6.4
		C253,46,265,71.8,255.9,104.2C252.3,116.8,245.9,127.8,236.5,138z M129.9,18.3c-31.6,2.6-62.1,17.5-85,46.3
		c-11.9,15-10.6,42.6,1.9,57.1c2.5,2.9,6.2,5.5,9.8,6.4c15.3,3.8,27.7-1.3,36.8-14.9c9-13.5,21.2-22.5,36.7-26.2
		c10.5-2.5,21.6-2.8,32.5-4c6.5-0.7,10.6,2.4,13.9,8.1c9.2,16,22.5,27.6,39.2,35.4c3.4,1.6,5.4,1.1,7.9-1.5
		c8-8.5,13.3-18.4,15.6-29.8c4.2-21.5-2.3-35.3-21.2-44.1c-7.1-3.3-15-4.7-22.4-7.3c-3.8-1.4-8.1-2.8-10.9-5.5
		C170.5,25.1,154.1,18.4,129.9,18.3z M64.7,147.8c0,3.6,0,6.5,0,9.4c0.4,51.4,51.1,86.7,99.4,69.1c31.8-11.6,52-44.2,48.3-78.5
		c-0.2-1.5-2-3.5-3.6-4.2c-19.1-8.7-34.4-21.6-46-39.1c-0.9-1.3-2.4-3.1-3.7-3.1c-18.7,0-36.7,3-48.2,19.4
		C99.5,137.1,85.5,147.4,64.7,147.8z M123.5,378.6c-0.2-1.1-0.2-1.7-0.4-2.1c-13.4-29.1-26.8-58.2-40.3-87.3
		c-0.6-1.3-1.6-2.8-2.9-3.3c-5-2.3-6.1-6.4-6-11.4c0.2-8.2,0-16.4,0-25c-10.3,0-19.8,0-29.4,0c-16.8,0-26,9.3-26,26
		c0,32.5,0,65,0,97.5c0,1.8,0.2,3.7,0.3,5.7C53.8,378.6,88.4,378.6,123.5,378.6z M153.5,378.5c32.2,0,63.8,0,95.3,0
		c0.3-0.6,0.5-1,0.5-1.3c0-35.2,0.2-70.5,0-105.7c-0.1-10.3-7.2-19.5-17.3-21c-9.3-1.3-19-0.3-28.8-0.3c0,8.5,0.4,17-0.2,25.4
		c-0.2,3.2-2.6,6.4-4.4,9.3c-1.3,2.2-3.9,3.6-4.9,5.9c-12.9,27.5-25.5,55.1-38.3,82.7C154.8,375,154.3,376.5,153.5,378.5z
		 M138.6,365.9c13.1-28.4,25.5-55.3,38-82.4c-6-1.7-11.1-3.4-15.6,1.7c-0.8,0.9-2.9,1.1-4.3,1.1c-12.1,0.1-24.2,0.1-36.4,0
		c-1.5,0-3.5-0.2-4.3-1.2c-4.5-5-9.6-3.2-15.3-1.5C113.1,310.7,125.6,337.6,138.6,365.9z M228.1,182.1c5.9,3.6,11.3,3.4,16.2-0.7
		c4.6-3.8,6.3-9.6,4.3-15c-2-5.7-7.3-9.4-13.1-9.5c-2.9,0-4.4,0.7-4.7,4.1C230.3,167.9,229.1,174.7,228.1,182.1z M49.2,182.4
		c-1-7.2-2.5-13.8-2.7-20.4c-0.2-5-2.7-5.4-6.3-4.8c-5.8,0.9-9.8,4.1-11.6,9.8c-1.8,5.8,0,10.7,4.5,14.5
		C38.1,185.5,43.6,185.8,49.2,182.4z M129.7,267.5c6.3,0,12.1,0,17.8,0c0-6.2,0-12.1,0-17.8c-6.1,0-11.8,0-17.8,0
		C129.7,255.7,129.7,261.3,129.7,267.5z M92.6,265.9c6.3-1.1,12-2.2,18-3.3c0-2.9,0-5.5,0-8.6c-5.9-0.9-11.8-1.9-18-2.9
		C92.6,256.2,92.6,260.6,92.6,265.9z M184.6,251.1c-6.2,1-12.1,2-17.8,2.9c0,3.2,0,5.8,0,8.7c6.1,1.1,11.8,2.1,17.8,3.1
		C184.6,260.7,184.6,256.2,184.6,251.1z"/>
	<path d="M138.5,212.5c-16.1-0.4-27.9-8.1-35.3-22.5c-2.9-5.6-1.4-10.8,3.5-13.4c4.9-2.5,9.8-0.8,12.8,5
		c4.1,7.9,10.4,12.4,19.3,12.3c8.7-0.1,14.8-4.6,18.8-12.2c3.1-5.8,7.8-7.6,12.8-5.1c5.1,2.6,6.6,7.9,3.5,13.8
		C166.5,204.5,154.8,212,138.5,212.5z"/>
	<path d="M175.9,147.8c5,0.2,9.1,4.5,8.9,9.5c-0.2,5-4.5,9.1-9.5,8.9c-5-0.2-9.1-4.5-8.9-9.5C166.5,151.7,170.8,147.6,175.9,147.8z"
		/>
	<path d="M101.9,147.8c5,0.1,9.1,4.4,9,9.4c-0.1,5-4.4,9.1-9.4,9c-5-0.1-9.1-4.4-9-9.4C92.6,151.7,96.8,147.7,101.9,147.8z"/>
	<path d="M213.1,332.5c-3.5,0-6.9,0.2-10.4-0.1c-5.1-0.4-8.6-4.4-8.6-9.2c0-4.8,3.5-8.8,8.7-9.1c6.5-0.3,13.1-0.3,19.6,0
		c5.1,0.2,8.6,4.3,8.6,9.2c0,4.8-3.6,8.7-8.7,9.1C219.2,332.7,216.1,332.5,213.1,332.5z"/>
	<path d="M212.4,360.2c-3.1,0-6.2,0.2-9.2,0c-5.5-0.4-9.1-4.3-9.1-9.3c0.1-4.8,3.6-8.8,8.7-9c6.5-0.3,13.1-0.3,19.6,0
		c5.1,0.3,8.6,4.4,8.5,9.2c-0.1,4.8-3.6,8.6-8.7,9C219,360.4,215.7,360.2,212.4,360.2C212.4,360.2,212.4,360.2,212.4,360.2z"/>
</g>
</svg>
