<?xml version="1.0" encoding="utf-8"?>
<!-- Generator: Adobe Illustrator 25.0.0, SVG Export Plug-In . SVG Version: 6.00 Build 0)  -->
<svg version="1.1" id="Capa_1" xmlns="http://www.w3.org/2000/svg" xmlns:xlink="http://www.w3.org/1999/xlink" x="0px" y="0px"
	 viewBox="0 0 277.3 369.5" style="enable-background:new 0 0 277.3 369.5;" xml:space="preserve" fill="000">
<g>
	<path d="M138.2,369.5c-29.4,0-58.9,0-88.3,0c-9.9,0-12.8-2.8-12.8-12.6c0-23.3,0-46.6,0-69.9c0-3.1-0.5-5-3.7-6.8
		c-22.9-12.4-35.8-38-33-64.4c3.4-32.1,6.3-64.3,10.2-96.4C17.8,59.8,61.2,10.6,118.5,1.8c51.5-8,92.3,11.5,123,52.7
		c16.4,22,24,47.4,26.5,74.6c2.7,28.5,5.5,57,8.8,85.5c3.1,27-9.4,52.7-33.2,65.9c-3,1.6-3.4,3.5-3.3,6.4c0.1,23.5,0,47,0,70.4
		c0,9.1-3.1,12.2-12.1,12.2C198.2,369.5,168.2,369.5,138.2,369.5z M212.2,137.3c-26.5-8.3-52.5-16.5-78.5-24.5
		c-2.2-0.7-5.1-1.1-7.1-0.3c-19.6,7.4-39.1,14.9-58.6,22.6c-1.4,0.5-3.1,2.6-3,3.9c0.3,8.2,0,16.7,1.8,24.6
		c8.7,39.3,45.7,63.6,85.5,56.8C190.3,213.8,216.9,177,212.2,137.3z M221.6,288.8c-0.6-0.1-1-0.3-1.4-0.2
		c-28,6.4-53.9,16.8-73.4,39.2c-5.2,6-10.8,6.5-15.7,0.8c-16.3-19-37.6-29.4-60.9-36.6c-4.7-1.4-9.5-2.5-14.5-3.8
		c0,21.3,0,41.8,0,62.4c55.4,0,110.5,0,165.8,0C221.6,329.8,221.6,309.3,221.6,288.8z M46.6,119.9C49.4,97.3,58.5,78,74.9,62.4
		c16.4-15.6,36-24.1,58.5-25.4c20-1.2,38.6,3.7,55.3,14.7c24.6,16.1,38.2,39.3,42,67.8c6.2,0.8,11.8,1.6,17.4,2.4
		C243.2,70.5,199,15.7,133.2,18.4C80.8,20.6,26.6,74.7,29.5,122.2c2.6-0.6,5.2-1.5,7.8-1.8C40.1,120,43,120,46.6,119.9z
		 M138.6,309.3c23.5-22.8,52.3-33.5,83.2-40.3c0-3.9,0.2-7.4,0-10.8c-0.7-9.3-8.1-17.3-17.4-17.9c-9.4-0.5-18.8-0.1-28.1-0.1
		c-4.3,23.8-17.7,36.8-37.5,36.8c-19.9,0-33.4-13.2-37.5-36.9c-7.2,0-14.4,0-21.7,0c-16.9,0-24.1,7.4-24,24.4c0,3.5,0.9,5,4.5,5.8
		C89.1,276.7,115.9,287.9,138.6,309.3z M66.2,114.5c0.5,0.6,0.9,1.1,1.4,1.7c37.7-15.4,75.5-30.9,114.6-46.9
		c-23.6-15.1-46.9-18.3-71.2-8.4C86.5,70.8,72.1,89.3,66.2,114.5z M240.5,260.7c8.1-6.1,13.4-13.3,15.5-21.9
		c1.8-7.1,2.5-14.8,2.2-22.2c-0.6-12.4-2.5-24.8-3.9-37.8c-9.8,6.2-19.6,7.4-30.2,4.1c-6.5,15.2-16.1,27.7-30.2,39.1
		c13.1-1,23.6,1.2,32.5,8.6C235.5,238.1,239.8,248,240.5,260.7z M36.4,260.5c3.4-27.2,19-39.5,46.4-39.1
		c-13.8-10.9-23.2-23.6-29.8-38.6c-10.7,3.6-20.4,1.8-30.6-4.1c-1.3,17-3.5,33.1-3.4,49.2C19.1,240.9,25.6,251.9,36.4,260.5z
		 M157.3,99.6c0,0.4,0,0.9,0,1.3c17.9,5.5,35.7,11,54.4,16.7c-2.5-13.7-7.4-24.7-15.5-34.6C183,88.6,170.1,94.1,157.3,99.6z
		 M120.2,239.4c-0.1,7.4,3.1,13.1,9.6,16.8c6.7,3.7,13.4,3.3,19.5-1.2c5.4-3.9,8.2-9.3,7.6-15.6
		C144.6,239.4,132.8,239.4,120.2,239.4z M42.3,166.2c3.4,0.1,5.8-0.9,5-5.9c-0.8-5.4-1.2-11-1-16.6c0.2-4.6-1.9-5.6-5.8-5.2
		c-7.3,0.6-13.1,7.1-12.8,14.4C28.1,160.2,34.3,166.2,42.3,166.2z M234.7,166.1c8,0,14.4-6.2,14.6-13.4c0.2-7.5-6.1-14.1-13.5-14.3
		c-3.2-0.1-4.8,0.8-4.8,4.5c0,5.7-0.1,11.5-1,17.1C229.3,165,231.3,166.3,234.7,166.1z"/>
	<path d="M139,203.2c-16.4-0.5-28.1-7.9-35.5-22.1c-3.1-6-1.7-11.2,3.4-13.8c4.9-2.5,9.7-0.7,12.8,5.1c4,7.7,10.1,12.1,18.8,12.2
		c8.9,0.1,15.2-4.4,19.3-12.3c3-5.8,7.9-7.5,12.8-5c4.9,2.5,6.5,7.7,3.6,13.3C166.8,195.1,155,202.7,139,203.2z"/>
	<path d="M101.6,156.9c-5-0.1-9.1-4.3-9.1-9.3c0.1-5,4.3-9.2,9.3-9.1c5,0.1,9.2,4.3,9.1,9.3C110.8,152.8,106.6,157,101.6,156.9z"/>
	<path d="M184.8,147.8c-0.1,5-4.3,9.2-9.3,9.1c-5-0.1-9.1-4.3-9.1-9.3c0.1-5,4.3-9.2,9.3-9.1C180.7,138.6,184.9,142.8,184.8,147.8z"
		/>
</g>
</svg>
