<!-- icon666.com - MILLIONS vector ICONS FREE --><svg fill="#000" id="Capa_1" enable-background="new 0 0 512 512" viewBox="0 0 512 512" xmlns="http://www.w3.org/2000/svg"><g><path d="m61 160.787-25.606 25.606c-2.813 2.814-4.394 6.629-4.394 10.607v300c0 8.284 6.716 15 15 15h420c8.284 0 15-6.716 15-15v-300c0-3.978-1.581-7.793-4.394-10.607l-25.606-25.606v-53.787c0-8.284-6.716-15-15-15s-15 6.716-15 15v53.787l-25.606 25.606c-2.813 2.814-4.394 6.629-4.394 10.607v23.787l-120-120v-40.787h15c8.284 0 15-6.716 15-15s-6.716-15-15-15h-15v-15c0-8.284-6.716-15-15-15s-15 6.716-15 15v15h-15c-8.284 0-15 6.716-15 15s6.716 15 15 15h15v40.787l-120 120v-23.787c0-3.978-1.581-7.793-4.394-10.607l-25.606-25.606v-53.787c0-8.284-6.716-15-15-15s-15 6.716-15 15zm15 27.426 15 15v38.787h-30v-38.787zm180-60 62.894 62.895c-10.861 8.223-17.894 21.25-17.894 35.892 0 8.271-6.729 15-15 15s-15-6.729-15-15c0-24.813-20.187-45-45-45h-23.787zm135 353.787h-30v-248.787l30 30zm-240 0h-30v-218.787l30-30zm-90-210h30v210h-30zm120-60h45c8.271 0 15 6.729 15 15 0 24.813 20.187 45 45 45s45-20.187 45-45v255h-30v-75c0-8.284-6.716-15-15-15h-60c-8.284 0-15 6.716-15 15v75h-30zm90 270h-30v-60h30zm150 0v-210h30v210zm15-293.787 15 15v38.787h-30v-38.787z"></path><circle cx="256" cy="317" r="15"></circle></g></svg>