<?xml version="1.0" encoding="utf-8"?>
<!-- Generator: Adobe Illustrator 25.0.0, SVG Export Plug-In . SVG Version: 6.00 Build 0)  -->
<svg version="1.1" id="Capa_1" xmlns="http://www.w3.org/2000/svg" xmlns:xlink="http://www.w3.org/1999/xlink" x="0px" y="0px"
	 viewBox="0 0 400 301.5" style="enable-background:new 0 0 400 301.5;" xml:space="preserve">
<style type="text/css">
	.st0{fill:#000;}
</style>
<g>
	<g>
		<g>
			<path class="st0" d="M121.2,172.8c-1.7-0.3-3.3-0.7-4.8-1.3c-1.5-0.6-2.7-1.3-3.8-2.2c-0.8-0.7-1.3-1.5-1.7-2.5
				c-0.4-1-0.5-2-0.5-3.1c0-1.9,0.3-3.8,1-5.9c0.6-2,1.2-3.8,1.7-5.3c1.1-3.3,2.5-6.8,4-10.5c1.6-3.7,3.1-7.3,4.8-10.8
				c1.6-3.5,3.1-6.6,4.4-9.3c1.3-2.7,2.3-4.7,2.9-5.9c0.2-0.5,0.5-0.9,0.7-1.3c0.2-0.4,0.4-0.8,0.7-1.1c-0.6,0.1-1.1,0.1-1.7,0.2
				s-1,0.2-1.5,0.2c-2.6,0.4-5.3,0.9-8.1,1.7c-2.8,0.8-5.3,1.8-7.5,3c-2.2,1.2-3.9,2.6-4.9,4.3c-0.1,0.2-0.2,0.3-0.4,0.3
				c-0.1,0-0.2-0.1-0.3-0.4c-0.1-0.2-0.1-0.5,0-0.8c0.6-1.5,1.3-3,2.2-4.4c0.9-1.4,1.7-2.5,2.6-3.4c1.3-1.4,3.1-2.3,5.3-2.9
				c2.2-0.6,4.5-1,6.9-1.1c2.4-0.2,4.4-0.3,6.1-0.3h18.1c5.9,0,10.7,1.1,14.3,3.4c3.6,2.2,6.3,5.2,7.9,8.8c1.6,3.7,2.5,7.6,2.5,11.8
				c0,1,0,2-0.1,3c-0.1,1-0.2,2-0.4,3c-0.9,5.4-2.6,10.1-5.2,14.3c-2.6,4.2-5.7,7.6-9.5,10.5c-3.8,2.8-8,5-12.7,6.4
				c-4.7,1.4-9.6,2.2-14.7,2.2c-1.4,0-2.7,0-4.2-0.1C124,173.2,122.6,173,121.2,172.8z M123.4,169.3c0.8,0.1,1.5,0.1,2.3,0.2
				c0.8,0.1,1.5,0.1,2.3,0.1c4.2,0,8.1-0.7,11.9-2.2c3.7-1.5,7.1-3.5,10.2-6.2c3-2.6,5.6-5.7,7.7-9.2c2.1-3.5,3.6-7.2,4.6-11.3
				c0.6-2.7,1-5.3,1-7.8c0-2.6-0.4-5.2-1.2-7.6c-0.8-2.4-2.1-4.6-3.8-6.6c-1.6-1.8-3.7-3.1-6.4-4.1c-2.6-1-5.1-1.5-7.3-1.7
				c-0.5-0.1-1.1-0.1-1.6-0.1c-0.5,0-1.1,0-1.6,0c-1.1,1.4-2.1,3.1-3.3,5c-1.1,1.9-2.2,3.9-3.2,5.9c-1,2-1.9,3.8-2.7,5.5
				c-2,4.3-3.9,8.6-5.7,12.9c-1.8,4.3-3.4,8.7-4.8,13.2c-0.4,1.3-0.8,2.8-1.2,4.4c-0.4,1.6-0.6,3.2-0.6,4.6c0,1.3,0.2,2.4,0.8,3.4
				C121.2,168.6,122.1,169.1,123.4,169.3z"/>
			<path class="st0" d="M191.8,174.5c-2.1,0-4.3-0.2-6.6-0.6c-2.3-0.4-4.5-1.1-6.6-2.1c-2.1-1-3.8-2.3-5.1-4
				c-1.3-1.7-1.9-3.9-1.9-6.4c0-3.5,0.8-6.6,2.5-9.4c1.6-2.8,3.8-5.3,6.6-7.3c2.7-2,5.7-3.5,9-4.4c2.1-0.6,4.2-0.9,6.4-1.1
				c-2.1-1.1-3.8-2.5-5-4.3c-1.2-1.8-1.8-3.7-1.8-5.7c0-1.2,0.2-2.3,0.6-3.4c1.1-3.1,2.8-5.7,5.2-7.7c2.3-2,5-3.5,8.2-4.5
				c3.1-1,6.3-1.5,9.6-1.5s6.1,0.8,8.3,2.5c2.3,1.6,3.4,3.8,3.4,6.4c0,1.1-0.3,2.2-0.8,3.4c-0.6,1.3-1.5,2.3-2.8,3.1
				c-1.3,0.8-2.5,1.1-3.6,1.1c-0.7,0-1.3-0.1-1.8-0.4c1.4-0.8,2.4-1.7,3-2.9c0.6-1.2,1-2.4,1-3.5c0-1.8-0.7-3.1-2.2-3.9
				c-1.4-0.8-3.3-1.2-5.4-1.2c-2.4,0-4.8,0.6-7.1,1.7s-4.2,2.6-5.8,4.3c-1.6,1.7-2.5,3.5-3,5.4c-0.2,0.9-0.3,1.7-0.3,2.6
				c0,1.8,0.4,3.3,1.2,4.4s1.8,1.9,2.9,2.5c1.1,0.5,2.3,0.8,3.3,0.9c0.3,0,0.7,0,1.3,0c0.6,0,1.1,0,1.5,0c0.9,0.1,1.3,0.4,1.3,0.9
				c0,0.6-0.4,1.2-1.1,1.8c-0.7,0.6-1.4,0.8-2,0.6c-0.5-0.2-1.1-0.3-1.7-0.4c-0.6-0.1-1.2-0.2-1.9-0.2c-1.4,0-2.9,0.3-4.4,0.8
				c-1.5,0.5-3.1,1.2-4.6,2c-3.4,1.8-6,4.2-7.7,7.2c-1.7,2.9-2.6,5.8-2.6,8.7c0,3.1,1,5.7,3,7.9c2,2.2,5,3.4,9.1,3.4
				c0.4,0,0.8,0,1.1,0c0.4,0,0.7,0,1.1-0.1c3.7-0.4,6.9-1.3,9.6-2.8c2.7-1.4,4.8-3.2,6.3-5.2c1.5-2,2.3-4.1,2.5-6.3
				c0.1-0.3,0.1-0.5,0.1-0.8c0-0.2,0-0.4,0-0.7c0-3.6-1.8-5.4-5.5-5.1c-0.9,0.6-1.7,1.4-2.3,2.3c-0.6,0.9-0.9,1.8-1,2.8
				c-0.9-1.1-1.4-2.3-1.4-3.5c0-1.7,0.8-3.3,2.5-4.8c1.6-1.5,3.7-2.6,6.3-3.4l13.3-4.1c2.2-0.6,4.4-1.5,6.4-2.4c2-1,3.3-2,3.7-3
				c0.2,0.4,0.3,0.9,0.3,1.7c0,0.6-0.1,1.3-0.2,2.1c-0.1,0.7-0.4,1.4-0.7,2.1c-0.6,1.4-1.5,2.3-2.7,3s-2.6,1.1-4.2,1.4
				c-1.6,0.3-3.6,0.7-5.8,1.1c-2.2,0.5-4.4,1-6.6,1.5c-2.1,0.6-3.9,1.2-5.3,1.9l-0.2,0.1c1.5-0.5,2.9-0.7,4.2-0.5
				c1.9,0.3,3.3,1,4.2,2.2c0.9,1.2,1.4,2.6,1.4,4.3c0,0.6-0.1,1.4-0.3,2.2c-0.6,2.9-1.9,5.4-3.9,7.6c-2,2.2-4.4,4-7.2,5.5
				c-2.8,1.5-5.7,2.6-8.7,3.3C197.2,174.2,194.4,174.5,191.8,174.5z"/>
			<path class="st0" d="M244.5,171.7c-0.9,0-1.6-0.4-2.1-1.1c-0.4-0.8-0.7-1.8-0.7-3c0-1.7,0.3-3.7,0.8-6c0.6-2.3,1.3-4.7,2.1-7.2
				c0.9-2.5,1.7-4.8,2.6-7.1c0.9-2.3,1.6-4.2,2.3-5.8h-4.9c-0.5,0-0.7-0.2-0.7-0.5s0.3-0.8,0.8-1.5c0.5-0.6,1.1-1.2,1.9-1.6
				c0.7-0.5,1.3-0.7,1.8-0.7h3c1.5-3.5,2.9-6.7,4.1-9.8c1.3-3,2.9-6.3,4.9-9.7c0.5-0.8,0.9-1.6,1.3-2.3c0.4-0.7,0.9-1.4,1.4-2
				c-3.2,0.4-6.4,1-9.8,1.9c-3.3,0.8-6.3,1.9-8.9,3.2c-2.6,1.3-4.4,2.8-5.5,4.6c-0.1,0.2-0.2,0.3-0.4,0.3c-0.1,0-0.2-0.1-0.3-0.4
				c-0.1-0.2-0.1-0.5,0-0.8c0.6-1.5,1.3-3,2.2-4.4c0.9-1.4,1.7-2.5,2.6-3.4c1.3-1.4,3.1-2.3,5.3-2.9c2.2-0.6,4.5-1,6.9-1.1
				c2.4-0.2,4.4-0.3,6.1-0.3H279c2.1,0,3.9-0.1,5.5-0.2c1.6-0.1,3-0.2,4.1-0.2c1.8,0,2.9,0.4,3.2,1.3c0.1,0.2,0.1,0.5,0.1,0.7
				c0,0.2,0,0.5,0,0.8c0,1.2-0.3,2.5-0.8,4c-0.5,1.5-1.1,2.9-1.7,4.3c-0.6,1.4-1.1,2.5-1.5,3.4c-0.1,0.3-0.2,0.5-0.5,0.6
				c-0.3,0.1-0.5,0.2-0.8,0.2c-0.3,0-0.6-0.1-0.8-0.2c-0.2-0.1-0.2-0.5-0.1-1.2c0.1-0.7,0.2-1.5,0.4-2.3c0.2-0.9,0.3-1.6,0.3-2.3
				c0-1.9-0.8-3.3-2.3-4.4c-1.5-1-3.4-1.5-5.6-1.5c-1.6,0-3,0.1-4.1,0.4c-1.1,0.3-1.9,0.9-2.6,1.9c-2.4,3.5-4.5,7-6.4,10.7
				c-1.9,3.7-3.7,7.4-5.3,11.2h23c0.2,0,0.1,0.4-0.3,1.1c-0.4,0.7-0.9,1.4-1.4,2.2c-0.6,0.7-1,1.1-1.5,1.1h-21.8
				c-0.6,1.6-1.4,3.7-2.3,6c-0.9,2.4-1.7,4.7-2.4,7c-0.7,2.3-1.3,4.3-1.7,5.9c-0.4,1.4-0.5,2.7-0.5,3.8c0,1.5,0.5,2.6,1.4,3.4
				c0.9,0.8,2.5,1.1,4.8,1.1c3.2,0,6.4-0.1,9.5-0.4c3.2-0.3,6.3-0.8,9.4-1.7c2.6-0.8,5-1.8,7.1-3.1c2.1-1.3,3.6-2.9,4.5-4.9
				c0.1-0.2,0.3-0.4,0.5-0.4c0.4,0,0.6,0.3,0.6,1c0,0.1,0,0.3,0,0.4c0,0.2-0.1,0.4-0.1,0.6c-0.5,1.5-1,2.9-1.7,4.1
				c-0.6,1.2-1.3,2.2-2,3c-1.6,2-3.8,3.2-6.4,3.7c-2.6,0.4-5.2,0.7-7.8,0.7H244.5z"/>
		</g>
	</g>
	<g>
		<g>
			<path class="st0" d="M238.8,280.2c-4.6,1.2-9.2,2.3-13.8,3.1c-4.5,0.8-9,1.4-13.5,1.8c-4.2,0.4-8.4,0.6-12.6,0.6
				c-13.2-0.1-26.2-2-38.9-5.8c-8.1-2.4-15.8-5.5-23.3-9.3c-9.7-5-18.7-10.9-27-18c-10.6-9.1-19.7-19.5-27.2-31.2
				c-2.7-4.2-5.2-8.4-6.9-13.1c-0.4-1.1-0.7-2.1-0.9-3.3c-0.1-0.5-0.3-1.1,0.3-1.4c0.6-0.3,1,0.3,1.3,0.7c1.3,1.5,2.4,3.1,3.4,4.7
				c4.2,6.7,8.2,13.6,13.1,19.8c5.4,6.8,11.3,13,17.8,18.7c9.6,8.4,20.2,15.2,31.8,20.6c10.1,4.7,20.6,8.1,31.6,10.2
				c5.6,1.1,11.2,1.8,16.9,2.1c5,0.3,10,0.4,14.9,0.1c16.5-0.8,32.5-4.3,47.7-11c0.5-0.2,1.1-0.3,1.7-0.9c-2.5,0.9-4.8,1.8-7.1,2.6
				c-6.2,2.2-12.5,3.8-19,5c-5.2,1-10.5,1.5-15.8,2.3c-2.2,0.3-4.4,0.4-6.6,0.5c-4.4,0.2-8.8,0.3-13.2,0c-9.9-0.5-19.6-2.1-29.2-4.9
				c-9.4-2.7-18.4-6.4-27-11.1c-7.8-4.2-15-9.2-21.8-14.9c-9.7-8.2-18-17.7-25.1-28.2c-5.9-8.9-10.6-18.3-14.3-28.3
				c-3.4-9.1-5.8-18.4-7.2-27.9c-0.6-3.9-1-7.8-1.3-11.8c-0.3-4.1-0.5-8.1-0.4-12.2c0.3-9.8,1.4-19.6,3.5-29.2
				c2.5-11.3,6.3-22.2,11.4-32.6c4.9-10.1,10.8-19.6,17.9-28.3c3.8-4.7,7.9-9.1,12.2-13.3c7.5-7.2,15.7-13.4,24.6-18.7
				c12.2-7.4,25.4-12.4,39.2-15.6c2.6-0.6,5.2-1.2,7.8-1c0.4,0,1.1-0.2,1.2,0.4c0,0.5-0.7,0.6-1.1,0.7c-2.5,0.6-5.1,1.2-7.6,1.7
				c-7.6,1.7-14.9,4.2-22.1,7.3c-8.1,3.5-15.9,7.7-23.2,12.6c-6.7,4.5-12.8,9.6-18.7,15.2c-7.2,6.9-13.4,14.6-19,22.8
				c-7.3,10.7-13,22.2-17,34.5c-2.7,8.4-4.6,17-5.8,25.7c-1.1,8.5-1.4,17-1,25.6c0.8,17,4.5,33.3,11.2,49
				c4.9,11.4,11.2,21.9,19,31.5c7.8,9.6,16.7,18,26.8,25.1c7.2,5.1,14.9,9.4,23,13c0.2,0.1,0.4,0.2,0.7,0.2c0-0.4-0.2-0.4-0.4-0.5
				c-9.3-4.5-17.8-10.3-25.8-16.8c-4.5-3.6-8.9-7.3-12.9-11.4c-8.6-8.7-16-18.5-21.9-29.3c-6.4-11.6-10.9-23.9-13.5-36.9
				c-1.1-5.6-1.9-11.3-2.3-17.1c-0.2-3.1-0.4-6.2-0.3-9.3c0.1-9.9,1.1-19.7,3.4-29.3c2.6-11,6.4-21.6,11.6-31.6
				c5-9.6,11-18.5,18.2-26.7c7.3-8.3,15.6-15.6,24.8-21.7c6.9-4.6,14.2-8.5,21.9-11.5c1.8-0.7,3.7-1.1,5.6-1.4
				c0.5-0.1,1.3-0.3,1.5,0.4c0.2,0.6-0.5,0.9-0.9,1.2c-1.8,1.1-3.7,1.8-5.6,2.7c-9.4,4.3-18.1,9.7-26.3,16c-5.2,4-10,8.4-14.5,13.1
				c-7.4,7.7-13.7,16.2-19,25.4C88.2,92.5,83.7,104,80.8,116c-1.5,6.3-2.5,12.7-3,19.2c-0.4,4.9-0.6,9.8-0.4,14.7
				c0.3,8.3,1.3,16.5,3.2,24.5c1.9,8.3,4.6,16.4,8.3,24.2c0.4,0.8,0.8,1.4,1.5,2c1.5,1.4,2.3,3.2,3.2,5c3.5,7.2,7.7,14,12.5,20.4
				c2.4,3.2,5.1,6.1,8.1,8.7c-1-1.4-2.4-2.5-3.5-4c-0.4-0.5-0.8-1.1-1.1-1.6c-0.2-0.3-0.3-0.7-0.1-1c0.3-0.3,0.6,0,0.9,0.2
				c1.6,1,3,2.3,4.3,3.7c7.6,7.8,16.2,14.3,25.5,19.8c6.9,4.1,14.2,7.4,21.7,10.2c7.7,2.8,15.6,4.9,23.7,6.4
				c5.3,1,10.6,2.1,16.1,1.9c11.1-0.4,22-1.9,32.7-5.1c7.5-2.2,14.7-5.1,21.6-8.8c7.7-4,14.8-8.9,21.5-14.5
				c8.7-7.3,16.1-15.7,22.4-25.2c7.6-11.4,13-23.8,16.2-37.2c1.4-5.9,2.3-11.8,2.7-17.8c0.3-3.7,0.5-7.4,0.4-11
				c-0.1-3-0.2-6-0.6-9.1c-0.2-1.2-0.2-2.5,0.1-3.8c0.5,0.3,0.5,0.8,0.5,1.2c0.9,6.6,1.4,13.3,1.2,20c-0.3,10.3-2,20.4-5,30.2
				c-3.4,11-8.3,21.3-14.7,30.8c-3.6,5.3-7.6,10.3-12,15c-9.3,10-20.1,18-32.1,24.4c-11.2,6-23.1,10-35.5,12.2
				c-4.8,0.9-9.7,1.5-14.6,1.8c-4.2,0.2-8.3,0.3-12.5,0.1c-5.4-0.2-10.7-0.8-16.1-1.7c-2.2-0.4-4.4-1-6.6-1.2c2.4,0.9,4.8,1.5,7.3,2
				c5.3,1.2,10.7,2,16.2,2.5c4.5,0.4,9.1,0.7,13.6,0.5c1.7-0.1,3.2-0.7,4.9-0.9c6-0.7,12-1.9,17.9-3.4c1-0.3,2.1-0.6,3.1-0.9
				c1-0.3,1.8-0.7,2.6-1.5c1.2-1.1,2.9-1.4,4.5-1.9c6.1-2,12.1-4.5,17.8-7.4c8.6-4.4,16.6-9.7,24-15.9c10.6-8.9,19.2-19.5,26.3-31.3
				c7.9-13.1,13.1-27.3,15.9-42.3c0.9-4.8,1.5-9.7,1.8-14.7c0.3-4.8,0.3-9.6,0.1-14.4c-0.4-8-1.6-15.8-3.5-23.6
				c-2.2-9.1-5.4-17.8-9.5-26.2c-4.8-9.8-10.8-18.8-17.9-27c-9-10.5-19.6-19.1-31.6-26.1c-7-4.1-14.3-7.4-22-10.1
				c-1.3-0.5-2.7-0.7-4-1.3c-0.3-0.1-0.6-0.3-0.6-0.6c0-0.4,0.5-0.2,0.7-0.3c0.4-0.3,0.9-0.2,1.3-0.1C257,30,272.2,37.4,285.8,48
				c10.3,8.1,19.1,17.6,26.2,28.7c5.4,8.3,9.7,17.2,13,26.5c1.2,3.4,2.3,6.9,3.3,10.4c0,0.1,0.1,0.3,0.4,0.4
				c-0.2-0.9-0.3-1.8-0.5-2.7c-2.1-9.4-4.7-18.7-8.5-27.6c-1.8-4.3-4.5-8.1-7.1-11.9C306.7,63,299.8,55,292,47.9
				c-9.7-8.9-20.4-16.3-32.1-22.4c-3.1-1.6-6.2-3.1-9.5-4.5c-1.7-0.7-3.5-1-5-2.1c-0.3-0.2-0.9-0.3-0.8-0.7c0.2-0.5,0.8-0.3,1.2-0.2
				c2,0.4,3.9,1.2,5.8,1.8c5.3,1.9,10.6,4.1,15.6,6.7c9,4.6,17.3,10.2,25.1,16.7c10.1,8.4,18.6,18.1,25.8,29.1
				c8.1,12.3,13.9,25.6,17.6,39.9c1.8,7.1,3.1,14.2,3.8,21.5c0.3,3.4,0.5,6.9,0.6,10.3c0.2,1.8,0.2,3.6,0,5.4c0,0.4,0,0.8,0,1.2
				c-0.2,1.3-0.2,2.6-0.1,3.9c0.1,2.2-0.1,4.3-0.3,6.5c-0.5,4.4-1.1,8.8-2,13.1c-0.4,1.7-0.7,3.5-1.2,5.2c-0.9,2.8-1.6,5.7-2.4,8.5
				c-1.7,5.2-3.6,10.3-5.9,15.3c-3.4,7.6-7.6,14.9-12.3,21.8c-2.3,3.3-4.8,6.5-7.3,9.7c-3.1,3.8-6.4,7.4-9.9,10.9
				c-6.2,6.1-12.9,11.6-20.1,16.4c-7.6,5.1-15.6,9.4-24.1,13c-0.4,0.2-0.8,0.4-1.2,0.7c-0.5,0.2-1,0.4-1.5,0.6
				c-1,0.2-1.9,0.7-2.9,1.1c-0.1,0.1-0.2,0.1-0.3,0.1c-2.1,0.7-4.3,1.4-6.4,2.1C241.2,279.7,240,280.1,238.8,280.2z"/>
			<path class="st0" d="M252,275.8c0.4-0.2,0.7-0.4,1.1-0.4c3.7-1.7,7.5-3.3,11.1-5.1c7.5-3.9,14.6-8.3,21.4-13.4
				c3.9-2.9,7.7-5.8,11.1-9.2c2.5-2.5,5-5,7.3-7.7c1.6-1.8,3-3.7,4.6-5.4c4.9-6,9.3-12.4,13.2-19.2c4.3-7.4,7.9-15.2,10.8-23.3
				c1.5-4.2,2.7-8.4,3.8-12.6c1.8-7.2,3-14.5,3.7-21.8c0.2-2,0.6-3.9,0.6-5.9c0-0.2,0-0.5,0-0.7c0.2-1.1,0.1-2.3,0.1-3.5
				c0-2.8,0.1-5.6-0.1-8.5c-0.2-6.9-1.1-13.8-2.2-20.7c-1.3-7.7-3-15.2-5.3-22.6c-1.6-5-3.5-9.9-5.6-14.7c-2.8-6.2-6-12.1-9.7-17.8
				c-2.1-3.1-4.6-5.9-7-8.7c-3.1-3.6-6.4-7.1-9.9-10.4c-8.9-8.4-18.5-15.7-29.2-21.7c-10.2-5.7-20.9-10.3-32.2-13.4
				c-3.3-0.9-6.6-1.2-10-1.5c-6.6-0.7-13.3-1.1-20-0.9c-6.9,0.2-13.7,0.9-20.4,2.4c-0.9,0.2-1.8,0.2-2.8,0c1.3-0.6,2.7-0.7,4-1
				c5.1-0.9,10.3-1.6,15.4-1.9c4.8-0.3,9.6-0.4,14.3-0.1c13.9,0.7,27.1,3.8,39.8,9.7c11.8,5.5,22.7,12.5,32.9,20.6
				c4.1,3.3,8.1,6.8,11.8,10.6c7.8,8,14.6,16.8,20.1,26.6c6.4,11.3,11.2,23.3,14.3,35.9c1.6,6.5,2.6,13.1,3.2,19.7
				c0.7,6.9,0.8,13.9,0.6,20.8c-0.2,7.1-1.1,14.1-2.4,21c-1.8,9.5-4.4,18.7-7.9,27.7c-3.3,8.5-7.4,16.7-12.3,24.4
				c-4.7,7.5-10.1,14.4-16.1,20.9c-3.8,4.1-7.8,8-12.1,11.6c-0.3,0.3-0.7,0.5-0.9,0.9c3.4-2.3,6.4-5,9.7-7.9c-0.2,1.1-0.9,1.6-1.4,2
				c-9.2,8.2-19,15.5-29.7,21.6c-9.2,5.2-18.9,9.5-28.9,12.8c-8.2,2.7-16.6,4.7-25.2,5.8c-6.5,0.8-13,1.3-19.5,1.1
				c-13.8-0.4-27.3-2.7-40.3-7.4c-15.7-5.7-30.2-13.6-43.5-23.8c-6.3-4.8-12.1-10.2-17.6-15.9c-8.4-8.8-15.6-18.4-21.6-29
				c-4-7.1-7.5-14.4-10.2-22.1c-0.2-0.5-0.5-1-0.1-1.8c0.4,0.8,0.7,1.5,1,2.2c3.5,9.3,8,18.1,13.2,26.5c5.9,9.5,12.8,18.2,20.6,26.2
				c6.8,6.9,14,13.2,22,18.6c12.1,8.3,25.2,14.6,39.2,18.9c7,2.2,14.2,3.7,21.4,4.7c5,0.7,10,1,15.1,1.2c4.9,0.2,9.9,0,14.8-0.4
				c9.1-0.8,18.1-2.5,26.9-5c8.1-2.3,15.9-5.3,23.5-8.9c0.2-0.1,0.4-0.2,0.6-0.6c-31,14.2-62.9,17.4-95.9,9.2
				c-0.9-0.2-1.9-0.4-2.8-1.2c1.1-0.3,2,0,2.8,0.2c6.5,1.6,13.1,2.8,19.8,3.5c3.8,0.4,7.6,0.5,11.4,0.7c3.8,0.2,7.5,0,11.3-0.2
				c6.2-0.3,12.3-1.1,18.3-2.2c7.8-1.4,15.4-3.5,22.8-6.1c7.7-2.7,15-6.1,22.1-10.1c0.4-0.2,0.8-0.3,1.1-1c-1.5,0.8-2.7,1.4-4,2.1
				c-5.5,3-11.2,5.5-17.1,7.6c-3.3,1.2-6.7,2.4-10.2,3.2c-0.8,0.2-1.5,0.1-2.4,0.1c0.1-0.7,0.7-0.7,1-1c0.2-0.5,0.7-0.5,1.1-0.6
				c2.8-1,5.6-1.8,8.3-2.9l0,0C249.9,276.6,251,276.3,252,275.8z"/>
			<path class="st0" d="M68.1,77.5c-0.2,1.7-0.9,2.9-1.4,4.2c-4.5,11-7.8,22.4-9.8,34.2c-1.1,6.1-1.8,12.2-2.1,18.4
				c-0.2,4-0.5,7.9-0.3,11.9c0.2,6,0.8,12.1,1.5,18.1c1.3,10.4,3.7,20.5,7.1,30.4c3.2,9.2,7.2,17.9,12.2,26.3
				c5,8.3,10.6,16.2,17,23.4c8.3,9.3,17.5,17.5,27.9,24.4c12,8.1,25,14.3,38.8,18.6c7.8,2.4,15.7,4.1,23.7,5.1
				c8,1.1,16,1.3,24.1,1.1c4.7-0.1,9.4-0.6,14.1-1.3c10-1.4,19.7-3.8,29.2-7.2c12.4-4.5,23.9-10.6,34.6-18.3
				c6.5-4.7,12.6-9.9,18.1-15.6c7.6-7.9,14.3-16.6,19.8-26.1c1.5-2.5,2.9-5.1,4.3-7.7c0.2-0.4,0.5-0.7,0.7-1.1
				c0.3,0.5,0,0.8-0.2,1.1c-2.5,5.1-5.4,10-8.6,14.8c-2.8,4.2-5.8,8.2-9,12c-4.2,4.9-8.7,9.5-13.4,13.9c-5.6,5.1-11.7,9.7-18.1,13.9
				c-9.2,5.9-19,10.6-29.3,14.2c-8,2.8-16.3,4.9-24.6,6.3c-4.4,0.7-8.8,1.2-13.3,1.5c-4.6,0.3-9.2,0.5-13.9,0.4
				c-12.5-0.3-24.9-2.1-36.9-5.6c-10.3-3-20.2-7.1-29.7-12.2c-8.1-4.4-15.7-9.6-22.8-15.4c-4.6-3.8-8.9-7.8-13-12.2
				c-8-8.5-14.9-17.7-20.8-27.7c-5.4-9.2-9.7-18.9-13-29.1c-2.9-9-4.9-18.2-6.3-27.5c-1.3-9.4-1.6-18.8-1.3-28.2
				c0.4-9.4,1.7-18.7,3.7-27.9c2.2-9.6,5.2-19,9.1-28.1C66.7,79.1,67.2,78.5,68.1,77.5z"/>
			<path class="st0" d="M300.6,210c-0.7,1.7-1.5,3-2.3,4.2c-5.2,8.8-11.5,16.7-19,23.6c-6.8,6.3-14.4,11.6-22.6,16
				c-10.2,5.4-21,9.1-32.4,11.3c-4.9,0.9-10,1.5-15,1.8c-2.4,0.1-4.8,0.2-7.2,0.2c-0.7,0-1.3-0.1-2-0.2c-0.2,0-0.4-0.1-0.4-0.3
				c0-0.2,0.2-0.3,0.4-0.3c0.9-0.1,1.8-0.2,2.7-0.2c9.7,0,19.2-1.3,28.7-3.6c6.3-1.5,12.4-3.7,18.3-6.4c8.2-3.7,15.9-8.2,23-13.8
				c7.7-6.1,14.5-12.9,20.2-21c2.2-3.2,4.1-6.6,6.2-9.8C299.5,210.8,299.8,210.4,300.6,210z"/>
			<path class="st0" d="M331.5,206.1c7.5-20.7,12.5-41.9,12.8-64c0.2,1.4,0.6,2.8,0.4,4.2c-0.3,3-0.3,6.1-0.6,9.2
				c-0.6,6.3-1.6,12.5-2.8,18.7c-1.6,8.1-3.8,16.1-6.4,23.9c-0.8,2.3-1.6,4.5-2.5,6.8C332.3,205.4,332.1,205.8,331.5,206.1z"/>
			<path class="st0" d="M340.6,151.7c-0.3,9.5-1.7,18.8-4.2,28c-0.2,0.1-0.3,0-0.2-0.2c0.9-4.2,1.9-8.4,2.5-12.6
				c0.5-3.3,0.8-6.6,1.1-9.9c0.2-2,0.2-3.9,0.2-5.9c0-0.2,0.1-0.4,0.2-0.5c0,1.4,0,2.8,0,4.2C340.6,153.8,340,152.7,340.6,151.7z"/>
			<path class="st0" d="M248.9,277c-1.7,1-3.6,1.4-5.5,2.1c-1.3,0.5-2.6,0.9-3.9,1.4c-0.2-0.3-0.5-0.2-0.7-0.2
				C242.2,279.1,245.5,277.9,248.9,277z"/>
			<path class="st0" d="M340.6,139.1c0.2,0.2,0.2,0.5,0.2,0.8c0,3.5,0,6.9,0,10.4c0,0.3,0,0.5-0.2,0.8
				C340.6,147.1,340.6,143.1,340.6,139.1z"/>
			<path class="st0" d="M340.1,149.4c0-1.8,0-3.6,0-5.4C340.5,145.8,340.5,147.6,340.1,149.4z"/>
			<path class="st0" d="M308.7,234.8c-3.5,4.5-7.4,8.7-11.4,12.7c-2.8,2.9-6,5.4-9.2,7.8c-8.1,6.3-16.8,11.7-26.1,16.2
				c-2.9,1.4-5.8,2.9-9,3.9c0.9-0.9,2.2-1.2,3.3-1.6c8.8-3.9,17.1-8.5,24.9-14.1c7.5-5.3,14.3-11.3,20.6-17.9c2-2.1,3.9-4.3,5.7-6.6
				c0.2-0.3,0.5-0.5,0.8-0.7C308.6,234.5,308.7,234.5,308.7,234.8z"/>
			<path class="st0" d="M308.7,234.8c-0.1-0.1-0.2-0.2-0.3-0.3c1.5-1.9,2.9-3.9,4.4-5.8c3.6-4.7,6.7-9.7,9.6-14.8
				c4.5-7.8,8-16.1,10.9-24.6c1-3,1.8-6.2,2.7-9.2c0.1-0.2,0.2-0.3,0.2-0.5c0.1,0.1,0.2,0.2,0.2,0.2c-0.2,1.8-0.8,3.5-1.3,5.1
				c-2,6.6-4.4,13-7.3,19.3c-4.4,9.5-9.8,18.4-16,26.7C310.8,232.2,309.9,233.7,308.7,234.8z"/>
			<path class="st0" d="M252,275.8c-0.9,0.7-2,1-3.1,1.2C249.8,276.4,250.8,276,252,275.8z"/>
		</g>
	</g>
	<g>
		<path class="st0" d="M266,291.3c-0.2-0.7,0-1,0.8-0.9c1.6,0.1,3.2,0.3,4.8,0.2c7-0.2,13.7-1.7,20.4-3.8c1.1-0.3,1.6-1,1.9-2
			c0.1-0.5,0.2-1,0.2-1.5c0-1,0-1.9,0-2.9c-0.1-2.1,0.2-4.1,0.8-6.1c1.2-3.6,2.9-6.9,4.9-10c1.5-2.2,3.1-4.3,5.2-6
			c1-0.8,2.1-1.5,3.4-1.7c0.7-0.2,1.1,0.1,1.1,0.9c0,0.3-0.1,0.7-0.1,1c-0.2,5.7-2.1,10.9-4.6,16c-2,3.8-4.4,7.3-7.8,10.1
			c0,0,0,0.1-0.1,0.2c0.2-0.1,0.3-0.1,0.4-0.1c7.3-3.3,14.2-7.5,20.3-12.7c1.2-1,1.9-2.2,2.1-3.7c0.2-1.4,0.2-2.8,0.1-4.1
			c-0.2-2.3-0.5-4.6-0.8-6.9c-0.6-5.5-0.4-10.9,1.6-16.1c0.5-1.4,1-2.8,1.6-4.1c0.9-1.8,1.9-3.5,2.8-5.3c0.1-0.2,0.3-0.3,0.5-0.4
			c0.1,0.2,0.4,0.3,0.4,0.5c0,0.5,0,0.9-0.1,1.4c-0.4,2.2-0.5,4.5-0.2,6.7c0.4,3,0.9,6,1.3,9c0.3,2.3,0.5,4.5,0.2,6.8
			c-0.5,3.2-1.7,6.3-3,9.2c-0.1,0.2-0.2,0.4-0.2,0.5c0.4-0.3,0.7-0.6,1-1c3.8-4.5,7-9.4,9.7-14.6c2.5-5,4.8-10,7.2-15.1
			c1.9-4,3.9-8,6.5-11.5c1.5-2,2.3-4.3,2.2-6.8c-0.1-1.8-0.3-3.5-0.5-5.3c-0.3-2.3-0.6-4.6-0.5-6.9c0.2-4,1.4-7.8,3.1-11.5
			c1.2-2.5,2.5-4.9,3.7-7.3c0.1-0.2,0.3-0.4,0.5-0.6c0.2-0.1,0.5-0.2,0.6-0.2c0.1,0.1,0.2,0.4,0.2,0.6c0,0.4-0.1,0.9-0.1,1.3
			c0,2-0.1,4-0.1,5.9c0,3,0.1,6.1,0,9.1c-0.1,3.2-0.4,6.4-1.7,9.5c-0.9,2.1-1.9,4.3-2.9,6.4c-0.1,0.2-0.1,0.3-0.2,0.6
			c1.2-1.1,2.4-2.1,3.6-3.1c3.8-3.1,8.1-5.5,12.6-7.5c0.3-0.2,0.6-0.3,0.9-0.6c0.7-0.7,1.3-1.4,1.9-2.1c3.9-5,8.7-8.8,14.5-11.4
			c2-0.9,4-1.6,6-2.5c2.5-1.1,5-2.4,7.3-4.1c0.2-0.1,0.4-0.1,0.7-0.1c0,0.2,0.1,0.5,0,0.7c-0.1,0.3-0.3,0.5-0.5,0.8
			c-1.5,1.9-3.1,3.8-4.6,5.7c-2.8,3.5-6.2,6.3-10,8.8c-3.5,2.2-7.3,3.7-11.3,4.8c-2.5,0.7-5.1,1.3-7.4,2.6c-1.5,0.8-3,1.7-4.5,2.6
			c-5,3.1-9.4,6.9-12.8,11.7c-2.8,4-4.9,8.4-6.9,12.8c0,0.1,0,0.2,0,0.3c0.6-0.3,1-0.6,1.5-0.9c2-1.2,4-2.2,5.9-3.5
			c2.4-1.7,4.5-3.7,6.9-5.4c2.7-2.1,5.7-3.7,9.3-4c1.2-0.1,2.5-0.2,3.7-0.4c1.6-0.2,3.3-0.5,4.8-1.2c0.2-0.1,0.5,0,0.9,0
			c-0.1,0.2-0.1,0.3-0.2,0.4c-1,1.2-1.9,2.5-2.9,3.7c-3.7,4-8.2,6.6-13.7,7.5c-2,0.3-4,0.6-5.9,0.9c-2.8,0.5-5.5,1.1-8,2.6
			c-1.9,1.1-3.5,2.4-4.2,4.6c-0.1,0.5-0.4,0.9-0.6,1.3c-2.9,6.2-6.1,12.2-10.1,17.8c0,0.1-0.1,0.2-0.2,0.4c2.2-0.9,4.3-1.7,6.2-2.7
			c3-1.5,6-3.3,9-4.9c4.2-2.2,8.6-3.6,13.4-3.2c0.6,0.1,1.3,0.1,1.9,0.1c2,0.1,4,0.1,5.9-0.5c0.2-0.1,0.5-0.1,0.8-0.1
			c0.2,0,0.4,0.2,0.5,0.3c0,0.1-0.1,0.4-0.2,0.5c-1.2,1-2.5,2-3.8,3c-5.7,4.4-12.2,6.6-19.5,6.7c-2.6,0-5.1,0.1-7.7,0.2
			c-2.3,0.1-4.5,0.5-6.6,1.5c-0.7,0.3-1.4,0.7-1.9,1.3c-4.9,6-10.7,11.1-17.2,15.3c-0.9,0.6-1.7,1.1-2.6,1.7c0.2,0,0.4,0,0.6,0
			c6.1-1.5,12.3-2.5,18.6-2.7c4.6-0.1,9,0.6,13.1,2.8c0.9,0.5,1.9,0.8,2.8,1.2c0.3,0.1,0.7,0.2,1,0.3c0.5,0.2,0.6,0.6,0.2,1
			c-0.4,0.3-0.8,0.5-1.2,0.7c-2.2,1-4.4,1.9-6.7,2.8c-4,1.6-8.2,2.3-12.5,2.2c-6.9-0.2-13.1-2.4-18.9-6c-0.4-0.2-0.7-0.3-1.1-0.1
			c-0.2,0.1-0.4,0.2-0.6,0.3c-4.3,2.2-8.7,4.3-13.4,5.5c-0.1,0-0.2,0.1-0.4,0.2c0.2,0,0.3,0.1,0.4,0.1c3.5,0.1,7,0.9,10.3,2
			c4.3,1.4,8.3,3.3,11.8,6.1c0.6,0.5,1.1,1.1,1.6,1.7c0.4,0.6,0.1,1-0.5,1.2c-0.4,0.1-0.8,0.2-1.2,0.2c-3.5,0.3-7,0.2-10.4-0.8
			c-4.5-1.3-8.3-3.7-11.9-6.7c-0.9-0.7-1.7-1.6-2.6-2.4c-0.5-0.5-1-0.6-1.7-0.5c-1.5,0.3-2.9,0.6-4.4,0.8c-3.6,0.5-7.1,0.9-10.7,1.2
			c-1.1,0.1-2.2,0-3.4,0c-0.2,0-0.4-0.1-0.6-0.1C265.9,291.6,266,291.4,266,291.3z M313.3,284.4c3.7,0.4,7.5,0.8,11.2,1.1
			c2.5,0.2,5,0.5,7.5,0.7c2.4,0.2,4.6-0.5,6.8-1.6c0,0,0.1-0.1,0.1-0.1c0,0-0.1,0-0.1,0c-4.2,0-8.5,0.1-12.7,0.1
			c-3.6,0-7.2,0-10.8-0.3c-2.2-0.1-4.3-0.7-6.5-1c-0.1,0-0.2,0-0.3,0c0,0.1,0,0.1,0,0.2C310.1,283.8,311.7,284.2,313.3,284.4z
			 M315.8,283.2c8.6,0.6,17.2-0.1,25.7-0.7c-0.4-0.1-0.8-0.2-1.1-0.2c-3.5-0.6-6.9-0.4-10.4-0.1c-6.5,0.6-12.9,0.7-19.4,0.3
			c-0.2,0-0.4,0-0.5,0c0,0.1,0,0.1,0,0.2C312,282.8,313.9,283.1,315.8,283.2z M358.5,252.4c-4.6,1-9,2.7-13.4,4.2
			c-2.7,0.9-5.4,1.8-8.1,2.7c0,0.1,0,0.1,0,0.2c0.2,0,0.4-0.1,0.7-0.1c5.4-1,10.6-2.7,15.7-4.4c1.4-0.5,2.8-1,4.2-1.4
			c1.4-0.4,2.8-0.7,4.2-1.1c0.8-0.2,1.5-0.5,2.3-0.7c0-0.1,0-0.2-0.1-0.2C362.2,251.8,360.3,252,358.5,252.4z M307.1,259.9
			c-1.1,1.9-2.1,3.8-3.1,5.8c-2.4,4.6-4.7,9.2-7.1,13.8c-0.6,1.3-1.2,2.5-1.8,3.8c-0.1,0.2-0.2,0.4-0.2,0.6c0,0,0.1,0,0.1,0.1
			c0.7-1.1,1.4-2.1,2.1-3.2c3.3-5.1,5.9-10.6,8.3-16.2c0.7-1.8,1.6-3.4,2.4-5.2c0.1-0.2,0.2-0.4,0.2-0.6c0,0-0.1,0-0.1-0.1
			C307.7,259.1,307.4,259.5,307.1,259.9z M336.5,280.6c-1.6,0-3.1-0.1-4.7,0.1c-5.6,0.7-11.3,0.8-17,0.8c-1.9,0-3.9,0.3-5.8,0.4
			c0,0.1,0,0.1,0,0.2c0.2,0,0.4-0.1,0.6-0.1c7,0.4,14,0.3,21-0.3c2.9-0.3,5.9-0.3,8.8,0c0.1,0,0.1,0,0.3,0
			C338.6,281.1,337.7,280.6,336.5,280.6z M306,264.2c-2.6,6.1-5.5,12-9.1,17.6c-0.1,0.1-0.1,0.2-0.1,0.4c0.2-0.3,0.4-0.6,0.6-0.8
			c2.5-3.5,5.1-7,7.2-10.8c1.7-3.1,3.1-6.4,3.7-10c0.1-0.4,0.1-0.7,0.1-1.1c0-0.1,0-0.1,0-0.2c0,0-0.1,0-0.1,0
			C307.6,260.9,306.7,262.5,306,264.2z M304.6,262.1c-4.3,5.8-6.9,12.5-9.1,19.3c0,0.1,0,0.1-0.1,0.3c0.1-0.1,0.2-0.2,0.2-0.2
			c2.6-5.1,5.2-10.1,7.7-15.2c1.2-2.3,2.2-4.7,3.7-6.8c0.4-0.6,0.8-1.1,1.2-1.6C306.8,259,305.8,260.6,304.6,262.1z M322.5,257.6
			c0.7-4.9,0.9-9.9,0.8-14.8c0-1.7,0.1-3.4,0.1-5.1c0-0.1,0-0.2-0.1-0.3c-0.1,0.2-0.2,0.3-0.2,0.5c-0.2,1.3-0.6,2.7-0.6,4.1
			c-0.3,5.8-0.5,11.5-0.7,17.3c0,1.1-0.2,2.2-0.3,3.3c0.1,0,0.1,0,0.2,0C322,260.9,322.3,259.2,322.5,257.6z M315.5,285.2
			c-3-0.2-6-0.9-8.8-2c-0.1,0-0.2-0.1-0.3,0c0.4,0.2,0.8,0.5,1.3,0.6c1.4,0.4,2.7,0.8,4.1,1.1c4.2,0.8,8.4,1.6,12.7,2.2
			c1.7,0.3,3.4,0.2,5.1,0.3c1.4,0,2.7-0.2,4-0.8C327.6,286.5,321.6,285.6,315.5,285.2z M323.1,260.6c1.5-6.1,1.9-12.2,1.2-18.5
			c-0.2-1.7-0.2-3.4-0.4-5.1c0,0.3-0.1,0.6-0.1,0.9c0,1.9-0.1,3.9-0.1,5.8c0.1,7.1-0.6,14.2-2.2,21.2c-0.1,0.3-0.1,0.5-0.2,0.8
			c0,0,0,0.1,0.1,0.3C322,264.1,322.6,262.4,323.1,260.6z M322.3,281c4.4-0.2,8.9-0.6,13.4-1c-0.4-0.1-0.8-0.2-1.2-0.3
			c-3.3-0.3-6.6-0.2-9.8,0.1c-4.9,0.4-9.8,0.9-14.6,1.4c-0.4,0-0.7,0.1-1.1,0.1c0,0,0,0,0,0C313.4,281.3,317.8,281.2,322.3,281z
			 M318.2,284.2c3.9,0,7.8,0,11.7,0c2.4,0,4.8,0.1,7.3,0.1c1.6,0,3.2-0.2,4.7-0.9c0.1-0.1,0.3-0.1,0.4-0.2c0,0,0-0.1,0.1-0.1
			c-0.4,0-0.8,0-1.2,0c-5.8,0.3-11.5,0.6-17.3,0.8c-4.5,0.1-9.1-0.1-13.6-0.8c-0.1,0-0.2,0-0.4,0
			C312.7,283.7,315.4,284.1,318.2,284.2z M356.2,231.5c1.9-0.6,3.7-1.1,5.6-1.7c3.6-1.2,6.9-2.8,9.9-5.1c0.3-0.3,0.6-0.5,0.9-0.8
			c-0.8,0-16,6.9-17.6,8.1C355.4,231.8,355.8,231.7,356.2,231.5z M290.7,290.8c3.7,1.4,7.5,2.7,11.2,4.1c3.1,1.1,6.1,2.4,9,3.9
			c0.2,0.1,0.4,0.2,0.6,0.3c0,0,0.1,0,0.1,0c-1.2-1-2.3-1.9-3.6-2.5c-5.3-2.8-11-4.3-16.6-5.9c-0.3-0.1-0.7-0.2-1.1-0.2
			c0,0-0.1,0-0.2,0C290.3,290.7,290.5,290.8,290.7,290.8z M301.9,275.9c-2,2.9-4.1,5.7-6,8.5c5.8-4.6,9-10.9,11.3-17.7
			C305.6,269.9,303.9,273,301.9,275.9z M307.2,258.2c0,0-0.1-0.1-0.1-0.1c-0.5,0.5-1.1,0.9-1.6,1.4c-5.1,5.8-8.4,12.5-10,20.1
			c0,0.1,0,0.1,0,0.2c0,0,0.1,0,0.1,0.1C298.2,271.9,301.7,264.5,307.2,258.2z M397.4,189.4c-6.8,4.3-13.3,9.1-19.8,13.7
			C384.4,199,391.5,195.1,397.4,189.4z M289.7,290c4.1,1.2,8.3,2.2,12.3,3.5c2.6,0.9,5,2.2,7.4,3.4c0.5,0.3,1,0.7,1.5,1.1
			c0.3,0.3,0.7,0.5,1,0.8c0,0,0.1-0.1,0.1-0.1c-0.3-0.3-0.5-0.5-0.8-0.8c-3.8-3-8.1-4.9-12.6-6.4c-2.7-0.9-5.5-1.5-8.4-1.7
			c-0.3,0-0.6,0-0.8,0c0,0,0,0.1,0,0.1C289.5,289.9,289.6,290,289.7,290z M345.6,258.2c4.9-1,9.7-2.3,14.5-4
			c1.2-0.4,2.4-0.9,3.5-1.7c-0.1,0-0.1-0.1-0.2-0.1c-3.5,0.7-6.8,2-10.2,3.1c-3.4,1.1-6.9,2.1-10.3,3.1c-0.2,0.1-0.4,0.1-0.6,0.2
			c0,0,0,0.1,0,0.1C343.3,258.6,344.5,258.4,345.6,258.2z M300.4,264.7c-2.2,3.5-4.1,7.1-5.2,11.1c-0.4,1.5-0.6,3-0.3,4.6
			c1.6-7.8,4.9-14.7,9.9-20.8C303,261,301.6,262.8,300.4,264.7z M328.1,287.9c-6.1-0.3-12.1-1.8-18.1-2.8
			C315.8,287.6,321.8,288.7,328.1,287.9z M321.9,240.3c-0.8,4.1-1.1,8.3-0.9,12.5c0.1,3,0.1,5.9,0.2,8.9c0,0.1,0,0.2,0,0.3
			c0.1,0,0.1,0,0.2,0c0-0.8,0.1-1.7,0.1-2.5c0.2-4.7,0.3-9.4,0.5-14.1c0.1-2.2,0.3-4.5,0.5-6.7c0,0,0,0,0,0
			C322.2,239.2,322,239.7,321.9,240.3z M311.7,280.5c6.6-0.3,13.1-1.5,19.7-1.4C324.7,278.1,318.1,278.9,311.7,280.5z M355.7,189.8
			c-0.1,0-0.1,0-0.2,0c-0.3,0.8-0.5,1.6-0.8,2.5c-1,3.7-1.2,7.4-1.4,11.2c-0.2,2.8-0.5,5.6-0.8,8.4c0,0.2,0,0.3,0,0.5
			c0.1,0,0.1,0,0.2,0C354,204.9,354.5,197.3,355.7,189.8z M353.3,211.1C353.3,211.1,353.4,211.1,353.3,211.1
			c0.1-0.1,0.1-0.2,0.1-0.3c1.3-6.2,2.4-12.5,3-18.8c0.1-1.2,0-2.3,0-3.5c-0.1,0-0.2,0-0.3,0C355.3,196,354.3,203.5,353.3,211.1z
			 M351.9,213.3c0-0.2,0.1-0.4,0.1-0.6c0.3-3,0.7-5.9,1-8.9c0.3-3.4,0.4-6.8,1.1-10.2C351.8,200,351.9,206.6,351.9,213.3z
			 M389.8,198.1c-5.2,3.4-10.9,6-16.4,8.7C379.6,205.3,385.1,202.4,389.8,198.1z M353,233.3c3.9-0.9,7.7-1.7,11.4-3.2
			c2.2-0.9,4.2-2.1,6-3.6c0.2-0.2,0.4-0.4,0.5-0.6c-0.8,0.5-1.5,0.9-2.3,1.4c-3,1.7-6.3,2.9-9.6,3.9c-1.9,0.6-3.8,1.2-5.6,1.8
			c-0.2,0.1-0.4,0.2-0.6,0.3c0,0,0,0.1,0,0.1C352.9,233.3,353,233.3,353,233.3z M359.1,251.8c0,0,0-0.1,0-0.1c-0.8,0-1.5-0.2-2.3,0
			c-1.2,0.2-2.4,0.5-3.6,0.9c-3.9,1.4-7.9,2.9-11.8,4.4c-0.9,0.3-1.7,0.7-2.6,1.1C345.7,256.1,352.2,253.4,359.1,251.8z
			 M369.6,224.1c-2.4,0.1-4.5,1.1-6.4,2.4c-1.6,1.1-3.3,2-5,3.1c-0.2,0.1-0.5,0.3-0.6,0.6c4.6-2.1,9.2-4.2,13.9-6.3
			C370.8,223.9,370.2,224.1,369.6,224.1z M364.1,224.9c-2.5,0.9-4.8,2.3-7,3.9c-1.7,1.3-3.4,2.6-5.2,4c0.3-0.1,0.4-0.1,0.5-0.1
			c2-0.7,3.6-2.1,5.4-3.2c2.5-1.6,5-3.1,7.5-4.6c0.1,0,0.1-0.1,0.2-0.1c0-0.1,0-0.1-0.1-0.2C365,224.7,364.5,224.7,364.1,224.9z
			 M385,194.9c-5.6,2.7-10.1,6.6-13.7,11.6C375.8,202.6,380,198.3,385,194.9z M390.2,192.9c-3.5,2.1-6.7,4.5-9.7,7.2
			c-1,0.8-1.9,1.7-2.9,2.5c5.4-3.8,10.9-7.6,16.3-11.5c0,0,0-0.1,0-0.1C392.7,191.6,391.4,192.2,390.2,192.9z M351.4,257.9
			c1.8-0.4,3.6-0.8,5.4-1.3c1.6-0.4,3-1.3,4.3-2.4c-5.4,2-10.9,3.5-16.5,4.5c0,0.1,0,0.2,0,0.2C346.9,258.6,349.2,258.3,351.4,257.9
			z M340.6,256.7c0,0,0,0.1,0,0.1c4.6-1.7,9.2-3.4,13.9-5.2c0-0.1,0-0.1,0-0.2C349.4,251.9,345,254.3,340.6,256.7z M353.9,191.9
			c-1.1,2.2-1.9,4.4-2.2,6.8c-0.5,4.8-0.9,9.6-0.7,14.4c0,0.4,0.1,0.7,0.2,1.1c0-0.5,0-1,0.1-1.5c0.2-4,0.3-8.1,0.6-12.1
			c0.2-2.9,1-5.7,2-8.5c0.1-0.2,0.1-0.3,0.1-0.5c0,0,0,0-0.1,0C354,191.7,353.9,191.8,353.9,191.9z M339.6,260
			c5.4,0.3,10.7-0.2,15.7-2.5C350.2,258.7,344.9,259.2,339.6,260z M356.4,202.1c-0.7,5-2.8,9.6-4.1,14.5c2.3-3.3,4.4-10.6,4.2-14.7
			C356.4,202,356.4,202.1,356.4,202.1z M309,298.9c-0.8-0.3-1.6-0.7-2.4-1c-2.4-0.9-4.9-1.7-7.3-2.5c-2.7-0.9-5.4-2-7.9-3.4
			c-0.5-0.3-1.1-0.5-1.6-0.8C291.1,292.9,306,298.9,309,298.9z M305.7,299.6c-5.8-1.3-10.9-4-15.9-7.1
			C294.4,296.3,299.5,299.1,305.7,299.6z M373.5,205.2c5-3.8,9.7-8.1,15-11.7C382.7,196.4,378.1,200.9,373.5,205.2z M291.5,291.7
			c0.2,0.1,0.3,0.2,0.5,0.3c3.1,1.8,6.5,2.7,9.8,3.9c2.5,0.9,5,1.8,7.5,2.7c0.1,0,0.2,0.1,0.3,0.1
			C303.8,295.7,297.5,294.1,291.5,291.7z M373.1,206.3c6.7-3.1,13.5-6,19.2-10.8C386.1,199.3,379.8,203.2,373.1,206.3z M307.5,299.3
			c-5.3-1.4-10.2-3.7-15.2-5.8C297.1,296.1,301.9,298.8,307.5,299.3z M388,197.2c-2.7,1.8-5.5,3.5-8.2,5.3c1.8-1,3.7-2.1,5.4-3.2
			c2.6-1.6,5.1-3.2,7.6-4.8c1.2-0.8,2.1-1.9,2.9-2.9C393.3,193.4,390.7,195.4,388,197.2z M326.4,252.4c-0.5,2.3-1,4.7-1.6,7
			c-0.7,2.4-1.6,4.7-2.4,7C324.6,263.7,327.1,254.8,326.4,252.4z M325.7,246.3c-0.1,5.1-0.8,10.1-2,15c0,0,0.1,0,0.1,0
			C325.3,256.5,326.7,251.5,325.7,246.3z M366.8,229.4c-4.4,2.3-9.3,3.2-14,4.4C357.7,233.3,362.6,232.6,366.8,229.4z M356.6,195.8
			c-0.1,0-0.1,0-0.2,0c-0.7,4-1.3,8.1-2,12.1C355.9,204,356.4,199.9,356.6,195.8z M351.1,199.2c-0.9,3-1.1,6.5-0.7,9.1
			C350.6,205.8,350.9,202.3,351.1,199.2z M320.4,251.7c0.1-2.8,0.3-5.8,0.4-8.6C319.5,245.8,319.9,248.9,320.4,251.7z M320,258.1
			c0.1-2.9,0.3-5.8-0.3-8.6C319.3,252.3,319.6,255.2,320,258.1z M324.5,239.8c0.4,4.2,0.7,8.5,0.3,12.7
			C325.3,248.2,325.5,244,324.5,239.8z M320.4,263.2c0.1,0,0.2,0,0.3,0c0-3.1,0-6.2-0.1-9.4c-0.1,0-0.2,0-0.2,0
			C320.4,256.9,320.4,260.1,320.4,263.2z M360.3,226.1c-2.8,1.3-5.3,3.5-7.8,5.6C355.2,229.8,357.8,227.9,360.3,226.1z M324.7,235.9
			c-0.1,0.5-0.1,1.4-0.2,2.2c0,0,0.1,0,0.1,0C324.6,237.3,324.7,236.4,324.7,235.9z"/>
	</g>
	<g>
		<path class="st0" d="M134.1,291.8c-0.2,0-0.4,0.1-0.6,0.1c-1.1,0-2.3,0.2-3.4,0c-3.6-0.4-7.1-0.8-10.7-1.2
			c-1.5-0.2-2.9-0.5-4.4-0.8c-0.7-0.1-1.2,0-1.7,0.5c-0.9,0.8-1.7,1.7-2.6,2.4c-3.6,2.9-7.4,5.4-11.9,6.7c-3.4,1-6.9,1.1-10.4,0.8
			c-0.4,0-0.8-0.1-1.2-0.2c-0.7-0.2-0.9-0.7-0.5-1.2c0.4-0.6,1-1.2,1.6-1.7c3.5-2.8,7.6-4.7,11.8-6.1c3.3-1.1,6.8-1.9,10.3-2
			c0.1,0,0.2,0,0.4-0.1c-0.2-0.1-0.3-0.2-0.4-0.2c-4.7-1.3-9.1-3.3-13.4-5.5c-0.2-0.1-0.4-0.2-0.6-0.3c-0.4-0.2-0.7-0.2-1.1,0.1
			c-5.8,3.6-12.1,5.8-18.9,6c-4.3,0.1-8.5-0.6-12.5-2.2c-2.2-0.9-4.5-1.9-6.7-2.8c-0.4-0.2-0.9-0.4-1.2-0.7c-0.5-0.3-0.4-0.8,0.2-1
			c0.3-0.1,0.7-0.2,1-0.3c0.9-0.4,1.9-0.7,2.8-1.2c4.1-2.1,8.5-2.9,13.1-2.8c6.3,0.1,12.5,1.2,18.6,2.7c0.2,0,0.4,0.1,0.6,0
			c-0.9-0.6-1.7-1.1-2.6-1.7c-6.5-4.2-12.3-9.3-17.2-15.3c-0.5-0.6-1.2-0.9-1.9-1.3c-2.1-1-4.3-1.4-6.6-1.5
			c-2.6-0.1-5.1-0.1-7.7-0.2c-7.2-0.1-13.7-2.3-19.5-6.7c-1.3-1-2.5-2-3.8-3c-0.1-0.1-0.3-0.4-0.2-0.5c0-0.1,0.3-0.3,0.5-0.3
			c0.3,0,0.5,0,0.8,0.1c1.9,0.6,3.9,0.6,5.9,0.5c0.6,0,1.3,0,1.9-0.1c4.8-0.5,9.2,1,13.4,3.2c3,1.6,6,3.3,9,4.9c2,1,4.1,1.7,6.2,2.7
			c-0.1-0.3-0.1-0.3-0.2-0.4c-4-5.6-7.2-11.6-10.1-17.8c-0.2-0.4-0.4-0.9-0.6-1.3c-0.7-2.2-2.4-3.5-4.2-4.6c-2.5-1.4-5.2-2.1-8-2.6
			c-2-0.3-4-0.6-5.9-0.9c-5.4-0.9-9.9-3.5-13.7-7.5c-1.1-1.2-2-2.5-2.9-3.7c-0.1-0.1-0.1-0.2-0.2-0.4c0.4,0,0.7-0.1,0.9,0
			c1.5,0.7,3.2,1,4.8,1.2c1.2,0.2,2.5,0.3,3.7,0.4c3.5,0.3,6.5,1.9,9.3,4c2.3,1.8,4.5,3.7,6.9,5.4c1.9,1.3,3.9,2.4,5.9,3.5
			c0.5,0.3,1,0.6,1.5,0.9c0-0.2,0-0.3,0-0.3c-2-4.4-4.1-8.8-6.9-12.8c-3.4-4.8-7.8-8.7-12.8-11.7c-1.5-0.9-3-1.8-4.5-2.6
			c-2.3-1.2-4.9-1.9-7.4-2.6c-4-1.1-7.8-2.6-11.3-4.8c-3.8-2.4-7.1-5.3-10-8.8c-1.6-1.9-3.1-3.8-4.6-5.7c-0.2-0.2-0.4-0.5-0.5-0.8
			c-0.1-0.2,0-0.5,0-0.7c0.2,0,0.5,0,0.7,0.1c2.3,1.7,4.7,2.9,7.3,4.1c2,0.9,4,1.6,6,2.5c5.8,2.6,10.6,6.4,14.5,11.4
			c0.6,0.8,1.2,1.4,1.9,2.1c0.2,0.3,0.6,0.5,0.9,0.6c4.4,2.1,8.7,4.5,12.6,7.5c1.2,1,2.3,2,3.6,3.1c-0.1-0.3-0.2-0.4-0.2-0.6
			c-1-2.1-1.9-4.3-2.9-6.4c-1.3-3-1.6-6.2-1.7-9.5c-0.1-3,0-6.1,0-9.1c0-2-0.1-4-0.1-5.9c0-0.4-0.1-0.9-0.1-1.3
			c0-0.2,0.1-0.5,0.2-0.6c0.1-0.1,0.4,0,0.6,0.2c0.2,0.1,0.3,0.4,0.5,0.6c1.2,2.4,2.6,4.9,3.7,7.3c1.7,3.6,2.9,7.4,3.1,11.5
			c0.1,2.3-0.2,4.6-0.5,6.9c-0.2,1.8-0.5,3.5-0.5,5.3c-0.1,2.5,0.7,4.7,2.2,6.8c2.7,3.6,4.6,7.5,6.5,11.5c2.4,5,4.7,10.1,7.2,15.1
			c2.6,5.2,5.8,10.2,9.7,14.6c0.3,0.4,0.6,0.7,1,1c-0.1-0.2-0.1-0.4-0.2-0.5c-1.4-3-2.5-6-3-9.2c-0.4-2.3-0.2-4.6,0.2-6.8
			c0.4-3,0.9-6,1.3-9c0.3-2.2,0.1-4.5-0.2-6.7c-0.1-0.4-0.1-0.9-0.1-1.4c0-0.2,0.2-0.3,0.4-0.5c0.2,0.1,0.4,0.2,0.5,0.4
			c1,1.8,1.9,3.5,2.8,5.3c0.6,1.3,1.1,2.8,1.6,4.1c2,5.2,2.2,10.6,1.6,16.1c-0.3,2.3-0.6,4.6-0.8,6.9c-0.1,1.4-0.1,2.8,0.1,4.1
			c0.2,1.5,1,2.7,2.1,3.7c6.1,5.2,13,9.4,20.3,12.7c0.1,0,0.2,0.1,0.4,0.1c0-0.1,0-0.2-0.1-0.2c-3.4-2.8-5.8-6.3-7.8-10.1
			c-2.6-5-4.5-10.2-4.6-16c0-0.3-0.1-0.7-0.1-1c0-0.8,0.3-1.1,1.1-0.9c1.3,0.3,2.4,0.9,3.4,1.7c2.1,1.7,3.7,3.7,5.2,6
			c2.1,3.1,3.7,6.5,4.9,10c0.7,2,1,4,0.8,6.1c-0.1,0.9,0,1.9,0,2.9c0,0.5,0.1,1,0.2,1.5c0.3,1,0.8,1.7,1.9,2
			c6.6,2,13.4,3.5,20.4,3.8c1.6,0.1,3.2-0.1,4.8-0.2c0.7-0.1,1,0.2,0.8,0.9C134,291.4,134.1,291.6,134.1,291.8z M91.5,283.5
			c0-0.1,0-0.1,0-0.2c-0.1,0-0.2,0-0.3,0c-2.2,0.4-4.3,0.9-6.5,1c-3.6,0.2-7.2,0.2-10.8,0.3c-4.2,0-8.5,0-12.7-0.1c0,0-0.1,0-0.1,0
			c0,0,0.1,0.1,0.1,0.1c2.1,1,4.4,1.7,6.8,1.6c2.5-0.2,5-0.4,7.5-0.7c3.7-0.4,7.5-0.7,11.2-1.1C88.3,284.2,89.9,283.8,91.5,283.5z
			 M89.9,282.6c0-0.1,0-0.1,0-0.2c-0.2,0-0.4,0-0.5,0c-6.5,0.3-13,0.3-19.4-0.3c-3.5-0.3-6.9-0.4-10.4,0.1c-0.4,0.1-0.8,0.1-1.1,0.2
			c8.6,0.6,17.1,1.4,25.7,0.7C86.1,283.1,88,282.8,89.9,282.6z M36,251.5c0,0.1,0,0.2-0.1,0.2c0.8,0.2,1.5,0.5,2.3,0.7
			c1.4,0.4,2.8,0.7,4.2,1.1c1.4,0.4,2.8,0.9,4.2,1.4c5.2,1.7,10.4,3.4,15.7,4.4c0.2,0,0.4,0.1,0.7,0.1c0-0.1,0-0.1,0-0.2
			c-2.7-0.9-5.4-1.8-8.1-2.7c-4.4-1.5-8.8-3.1-13.4-4.2C39.7,252,37.8,251.8,36,251.5z M92,258.8c0,0-0.1,0-0.1,0.1
			c0.1,0.2,0.2,0.4,0.2,0.6c0.8,1.7,1.7,3.4,2.4,5.2c2.4,5.6,5,11,8.3,16.2c0.7,1.1,1.4,2.1,2.1,3.2c0,0,0.1,0,0.1-0.1
			c-0.1-0.2-0.1-0.4-0.2-0.6c-0.6-1.3-1.2-2.6-1.8-3.8c-2.3-4.6-4.7-9.2-7.1-13.8c-1-1.9-2.1-3.9-3.1-5.8
			C92.6,259.5,92.3,259.1,92,258.8z M60.2,281.7c0.2,0,0.3,0,0.3,0c2.9-0.3,5.9-0.3,8.8,0c7,0.6,14,0.7,21,0.3c0.2,0,0.4,0,0.6,0.1
			c0-0.1,0-0.1,0-0.2c-1.9-0.1-3.9-0.4-5.8-0.4c-5.7,0-11.3-0.2-17-0.8c-1.5-0.2-3.1-0.1-4.7-0.1C62.3,280.6,61.4,281.1,60.2,281.7z
			 M91.6,259.3c0,0-0.1,0-0.1,0c0,0.1,0,0.2,0,0.2c0,0.4,0.1,0.7,0.1,1.1c0.6,3.6,1.9,6.8,3.7,10c2.1,3.8,4.7,7.2,7.2,10.8
			c0.2,0.3,0.4,0.6,0.6,0.8c0-0.2-0.1-0.3-0.1-0.4c-3.6-5.6-6.5-11.5-9.1-17.6C93.3,262.5,92.4,260.9,91.6,259.3z M91.7,257.8
			c0.4,0.5,0.8,1.1,1.2,1.6c1.5,2.1,2.5,4.5,3.7,6.8c2.6,5.1,5.1,10.2,7.7,15.2c0,0.1,0.1,0.1,0.2,0.2c0-0.2,0-0.2-0.1-0.3
			c-2.2-6.8-4.9-13.4-9.1-19.3C94.2,260.6,93.2,259,91.7,257.8z M78.3,262.5c0.1,0,0.1,0,0.2,0c-0.1-1.1-0.2-2.2-0.3-3.3
			c-0.2-5.8-0.4-11.5-0.7-17.3c-0.1-1.4-0.4-2.7-0.6-4.1c0-0.2-0.1-0.3-0.2-0.5c-0.1,0.1-0.1,0.2-0.1,0.3c0,1.7,0.2,3.4,0.1,5.1
			c-0.1,5,0.1,9.9,0.8,14.8C77.7,259.2,78,260.9,78.3,262.5z M66.3,286.7c1.3,0.5,2.6,0.8,4,0.8c1.7-0.1,3.4,0,5.1-0.3
			c4.2-0.7,8.5-1.4,12.7-2.2c1.4-0.3,2.8-0.7,4.1-1.1c0.4-0.1,0.9-0.4,1.3-0.6c-0.1-0.1-0.2-0.1-0.3,0c-2.8,1.1-5.8,1.7-8.8,2
			C78.4,285.6,72.4,286.5,66.3,286.7z M78.5,266c0.1-0.2,0.1-0.2,0.1-0.3c0-0.3-0.1-0.5-0.2-0.8c-1.6-7-2.3-14-2.2-21.2
			c0-1.9,0-3.9-0.1-5.8c0-0.3-0.1-0.6-0.1-0.9c-0.1,1.7-0.2,3.4-0.4,5.1c-0.6,6.2-0.3,12.4,1.2,18.5C77.4,262.4,78,264.1,78.5,266z
			 M91.1,281.4C91.1,281.4,91.1,281.4,91.1,281.4c-0.4-0.1-0.7-0.1-1.1-0.2c-4.9-0.5-9.7-1-14.6-1.4c-3.3-0.3-6.5-0.4-9.8-0.1
			c-0.4,0-0.8,0.2-1.2,0.3c4.5,0.4,8.9,0.8,13.4,1C82.2,281.2,86.6,281.3,91.1,281.4z M90,283c-0.1,0-0.3,0-0.4,0
			c-4.5,0.7-9,0.9-13.6,0.8c-5.8-0.2-11.5-0.5-17.3-0.8c-0.4,0-0.7,0-1.2,0c0,0.1,0,0.1,0.1,0.1c0.1,0.1,0.3,0.1,0.4,0.2
			c1.5,0.7,3.1,0.9,4.7,0.9c2.4,0,4.8-0.1,7.3-0.1c3.9,0,7.8,0,11.7,0C84.6,284.1,87.3,283.7,90,283z M45,232
			c-1.7-1.2-16.9-8-17.6-8.1c0.3,0.3,0.6,0.5,0.9,0.8c3,2.3,6.3,3.9,9.9,5.1c1.8,0.6,3.7,1.2,5.6,1.7C44.2,231.7,44.6,231.8,45,232z
			 M110,290.6c-0.1,0-0.2-0.1-0.2,0c-0.4,0.1-0.7,0.1-1.1,0.2c-5.7,1.6-11.4,3.1-16.6,5.9c-1.3,0.7-2.5,1.6-3.6,2.5
			c0.1,0,0.1,0,0.1,0c0.2-0.1,0.4-0.2,0.6-0.3c2.9-1.5,5.9-2.8,9-3.9c3.7-1.4,7.5-2.7,11.2-4.1C109.5,290.8,109.7,290.7,110,290.6z
			 M92.9,266.7c2.3,6.8,5.5,13.1,11.3,17.7c-2-2.9-4.1-5.7-6-8.5C96.1,273,94.4,269.9,92.9,266.7z M104.4,279.8c0,0,0.1,0,0.1-0.1
			c0-0.1,0-0.1,0-0.2c-1.6-7.6-4.9-14.3-10-20.1c-0.5-0.5-1.1-0.9-1.6-1.4c0,0-0.1,0.1-0.1,0.1C98.3,264.5,101.8,271.9,104.4,279.8z
			 M22.5,203.2c-6.6-4.7-13-9.4-19.8-13.7C8.5,195.1,15.6,199,22.5,203.2z M110.7,289.9C110.7,289.9,110.7,289.8,110.7,289.9
			c-0.3-0.1-0.6-0.1-0.8-0.1c-2.9,0.2-5.7,0.8-8.4,1.7c-4.5,1.5-8.8,3.4-12.6,6.4c-0.3,0.2-0.6,0.5-0.8,0.8c0,0,0.1,0.1,0.1,0.1
			c0.3-0.3,0.7-0.5,1-0.8c0.5-0.4,0.9-0.8,1.5-1.1c2.5-1.2,4.9-2.5,7.4-3.4c4-1.4,8.2-2.4,12.3-3.5
			C110.4,290,110.5,289.9,110.7,289.9z M57.8,258.9c0,0,0-0.1,0-0.1c-0.2-0.1-0.4-0.1-0.6-0.2c-3.4-1-6.9-2-10.3-3.1
			c-3.4-1.1-6.7-2.4-10.2-3.1c0,0-0.1,0-0.2,0.1c1.1,0.8,2.3,1.3,3.5,1.7c4.7,1.7,9.6,3,14.5,4C55.5,258.4,56.7,258.6,57.8,258.9z
			 M95.2,259.5c5,6.1,8.4,13,9.9,20.8c0.2-1.6,0.1-3.1-0.3-4.6c-1.2-4-3-7.6-5.2-11.1C98.4,262.8,97,261,95.2,259.5z M90,285.1
			c-6,1-11.9,2.6-18.1,2.8C78.2,288.7,84.2,287.6,90,285.1z M77.6,238.7C77.6,238.7,77.6,238.7,77.6,238.7c0.1,2.3,0.4,4.5,0.5,6.7
			c0.2,4.7,0.3,9.4,0.5,14.1c0,0.8,0.1,1.7,0.1,2.5c0.1,0,0.1,0,0.2,0c0-0.1,0-0.2,0-0.3c0.1-3,0.1-5.9,0.2-8.9
			c0.2-4.2-0.1-8.4-0.9-12.5C78,239.7,77.8,239.2,77.6,238.7z M68.7,279.1c6.6,0,13.1,1.1,19.7,1.4
			C81.9,278.9,75.3,278.1,68.7,279.1z M47.4,212.4c0.1,0,0.1,0,0.2,0c0-0.2,0-0.3,0-0.5c-0.3-2.8-0.6-5.6-0.8-8.4
			c-0.3-3.8-0.5-7.5-1.4-11.2c-0.2-0.8-0.5-1.7-0.8-2.5c-0.1,0-0.1,0-0.2,0C45.5,197.3,46,204.9,47.4,212.4z M43.8,188.5
			c-0.1,0-0.2,0-0.3,0c0,1.2-0.1,2.4,0,3.5c0.6,6.3,1.7,12.6,3,18.8c0,0.1,0.1,0.2,0.1,0.3c0,0,0,0,0,0
			C45.7,203.5,44.7,196,43.8,188.5z M46,193.6c0.6,3.4,0.8,6.8,1.1,10.2c0.2,3,0.6,5.9,1,8.9c0,0.2,0.1,0.4,0.1,0.6
			C48.1,206.6,48.2,200,46,193.6z M26.6,206.8c-5.6-2.7-11.2-5.2-16.4-8.7C14.9,202.4,20.4,205.3,26.6,206.8z M47.2,233.3
			C47.2,233.2,47.2,233.2,47.2,233.3c-0.2-0.2-0.4-0.3-0.6-0.4c-1.9-0.6-3.7-1.3-5.6-1.8c-3.3-1-6.6-2.2-9.6-3.9
			c-0.8-0.4-1.5-0.9-2.3-1.4c0.1,0.3,0.3,0.5,0.5,0.6c1.8,1.5,3.8,2.7,6,3.6c3.7,1.5,7.5,2.4,11.4,3.2
			C47,233.3,47.1,233.3,47.2,233.3z M61.1,258.1c-0.9-0.4-1.7-0.8-2.6-1.1c-3.9-1.5-7.8-3-11.8-4.4c-1.2-0.4-2.4-0.7-3.6-0.9
			c-0.7-0.1-1.5,0-2.3,0c0,0,0,0.1,0,0.1C47.8,253.4,54.3,256.1,61.1,258.1z M28.6,223.8c4.7,2.1,9.3,4.2,13.9,6.3
			c-0.2-0.2-0.4-0.4-0.6-0.6c-1.7-1-3.3-2-5-3.1c-2-1.3-4-2.3-6.4-2.4C29.8,224.1,29.2,223.9,28.6,223.8z M34.6,224.5
			c0,0.1,0,0.1-0.1,0.2c0.1,0,0.1,0.1,0.2,0.1c2.5,1.5,5.1,3,7.5,4.6c1.8,1.1,3.4,2.4,5.4,3.2c0.1,0,0.2,0.1,0.5,0.1
			c-1.8-1.4-3.5-2.7-5.2-4c-2.2-1.6-4.4-3-7-3.9C35.5,224.7,35,224.7,34.6,224.5z M28.8,206.5c-3.6-5-8.1-9-13.7-11.6
			C20,198.3,24.2,202.6,28.8,206.5z M6.1,191C6.1,191,6.1,191.1,6.1,191c5.4,3.9,10.9,7.7,16.3,11.5c-0.9-0.8-1.9-1.6-2.9-2.5
			c-3.1-2.6-6.3-5.1-9.7-7.2C8.6,192.2,7.3,191.6,6.1,191z M55.4,259c0-0.1,0-0.2,0-0.2c-5.6-1.1-11.1-2.6-16.5-4.5
			c1.3,1.1,2.7,1.9,4.3,2.4c1.8,0.5,3.6,1,5.4,1.3C50.8,258.3,53.1,258.6,55.4,259z M45.5,251.5c0,0.1,0,0.1,0,0.2
			c4.6,1.7,9.2,3.4,13.9,5.2c0,0,0-0.1,0-0.1C55,254.3,50.6,251.9,45.5,251.5z M45.9,191.6C45.9,191.6,45.9,191.6,45.9,191.6
			c0,0.2,0,0.3,0.1,0.5c1,2.8,1.8,5.6,2,8.5c0.3,4,0.4,8.1,0.6,12.1c0,0.5,0,1,0.1,1.5c0.2-0.4,0.2-0.7,0.2-1.1
			c0.2-4.8-0.2-9.6-0.7-14.4c-0.2-2.4-1.1-4.7-2.2-6.8C46.1,191.8,46,191.7,45.9,191.6z M44.7,257.5c5,2.3,10.3,2.8,15.7,2.5
			C55.1,259.2,49.8,258.7,44.7,257.5z M43.5,201.9c-0.2,4,1.9,11.4,4.2,14.7c-1.3-4.9-3.4-9.5-4.1-14.5
			C43.6,202.1,43.6,202,43.5,201.9z M110.4,291.3c-0.5,0.3-1.1,0.5-1.6,0.8c-2.5,1.4-5.2,2.5-7.9,3.4c-2.5,0.8-4.9,1.7-7.3,2.5
			c-0.8,0.3-1.6,0.7-2.4,1C94,298.9,108.9,292.9,110.4,291.3z M110.2,292.4c-5,3.1-10.1,5.8-15.9,7.1
			C100.5,299.1,105.6,296.3,110.2,292.4z M11.6,193.5c5.2,3.6,9.9,7.9,15,11.7C21.9,200.9,17.3,196.4,11.6,193.5z M90.5,298.7
			c0.1,0,0.2-0.1,0.3-0.1c2.5-0.9,5-1.8,7.5-2.7c3.3-1.2,6.7-2.1,9.8-3.9c0.2-0.1,0.3-0.2,0.5-0.3
			C102.5,294.1,96.2,295.7,90.5,298.7z M7.6,195.5c5.7,4.8,12.5,7.7,19.2,10.8C20.2,203.2,13.9,199.3,7.6,195.5z M107.7,293.5
			c-5,2.1-9.9,4.4-15.2,5.8C98.1,298.8,102.9,296.1,107.7,293.5z M4.2,191.7c0.8,1,1.7,2.1,2.9,2.9c2.5,1.6,5.1,3.2,7.6,4.8
			c1.8,1.1,3.6,2.1,5.4,3.2c-2.7-1.8-5.5-3.5-8.2-5.3C9.3,195.4,6.7,193.4,4.2,191.7z M77.6,266.4c-0.8-2.3-1.7-4.6-2.4-7
			c-0.7-2.4-1.1-4.8-1.6-7C72.9,254.8,75.4,263.7,77.6,266.4z M76.2,261.4c0.1,0,0.1,0,0.1,0c-1.3-4.9-2-9.9-2-15
			C73.3,251.5,74.7,256.5,76.2,261.4z M47.3,233.8c-4.8-1.2-9.6-2.1-14-4.4C37.4,232.6,42.3,233.3,47.3,233.8z M45.5,207.9
			c-0.7-4-1.3-8.1-2-12.1c-0.1,0-0.1,0-0.2,0C43.6,199.9,44.1,204,45.5,207.9z M49.6,208.4c0.4-2.6,0.2-6.1-0.7-9.1
			C49.1,202.3,49.4,205.8,49.6,208.4z M79.2,243.1c0.1,2.8,0.3,5.8,0.4,8.6C80.1,248.9,80.5,245.8,79.2,243.1z M80.4,249.4
			c-0.6,2.9-0.5,5.7-0.3,8.6C80.4,255.2,80.7,252.3,80.4,249.4z M75.2,252.5c-0.4-4.2,0-8.5,0.3-12.7
			C74.5,244,74.7,248.2,75.2,252.5z M79.6,253.8c-0.1,0-0.2,0-0.2,0c0,3.1,0,6.2-0.1,9.4c0.1,0,0.2,0,0.3,0
			C79.6,260.1,79.6,256.9,79.6,253.8z M47.5,231.7c-2.5-2.1-5-4.3-7.8-5.6C42.2,227.9,44.8,229.8,47.5,231.7z M75.4,238.1
			c0,0,0.1,0,0.1,0c-0.1-0.8-0.2-1.7-0.2-2.2C75.3,236.4,75.4,237.3,75.4,238.1z"/>
	</g>
</g>
</svg>
