<?xml version="1.0" encoding="utf-8"?>
<!-- Generator: Adobe Illustrator 25.0.0, SVG Export Plug-In . SVG Version: 6.00 Build 0)  -->
<svg version="1.1" id="Capa_1" xmlns="http://www.w3.org/2000/svg" xmlns:xlink="http://www.w3.org/1999/xlink" x="0px" y="0px"
	 viewBox="0 0 298.6 400" style="enable-background:new 0 0 298.6 400;" xml:space="preserve">
<g>
	<path d="M58.6,273.1c0.9-8.6,1.6-17.2,2.9-25.7c2.5-15.9,0.1-31.6-1.4-47.3c-0.8-8.9-2-17.8-3.8-26.6
		c-9.3,60.4-9.6,121.4-12.4,182.9c-14.1,0-28,0-42.5,0c0-0.4-0.3-1.6-0.4-2.8C-1,300-0.1,246.5,4.6,193.1
		C9,144.7,15.9,96.9,29.2,50.1c2-7.2,5.5-10.6,12.9-12.8c17.8-5.2,35.2-11.9,52.7-18c1.2-0.4,2.4-0.8,4.1-0.6
		C93,26,87,33.3,80.8,40.9c3.1,2.2,5.7,4.1,8.7,6.2c-3.2,3.1-6.4,5.9-9.1,9.1c-0.9,1-1.4,3.3-0.8,4.4
		c22.6,43.6,45.2,87.1,67.9,130.7c0.1,0.3,0.5,0.4,1.8,0.5c-0.5-2.2-0.7-4.6-1.6-6.7c-16-36.2-32.1-72.5-48.1-108.7
		c-2.1-4.8-4.1-9.6-6.4-14.3c-1.5-2.9-1.2-5,1.2-7.3c2.4-2.2,4.4-4.8,7-7.8c-3.1-3.4-6.1-6.8-9.7-10.8c8.4-11.8,16.9-23.8,25.4-35.8
		c0.4,0.2,0.8,0.3,1.2,0.5c-0.3,2.3-0.7,4.5-0.9,6.8c-2.9,22.6,0.2,45,4.1,67.2c6.3,35.5,16,70.2,27.3,104.5c0.4,1.2,0.9,2.3,2,4.8
		c2.6-7.7,4.9-14.1,6.9-20.7c9.7-31.3,18.3-62.9,23.6-95.3c3.7-22.4,6.4-44.9,3-68.1c8.6,12,17.2,24,25.9,36.1
		c-3.3,3.7-6.3,7.1-9.6,10.9c2.6,2.9,4.9,5.8,7.5,8.4c1.9,1.9,2.1,3.4,1,6c-12.7,27.2-25.3,54.4-37.8,81.7
		c-6.5,14.2-12.9,28.4-18.4,43.2c12.7-22.8,25.4-45.6,38.2-68.4c0.3,0.1,0.6,0.2,0.9,0.3c-0.2,2.7-0.5,5.3-0.7,8
		c14.3,0,28.3,0,42.6,0c0.5-4.2,1-7.8,1.4-11c-9.1-3.4-17.8-6.7-27-10.2c-5.2,1.9-6.4,11.5-15.6,9.7c10.5-18.9,20.9-37.5,31.4-56.5
		c-3.9-3.6-7.7-7.1-11.9-11.1c2.9-2,5.5-3.8,8.8-6.2c-5.5-6.9-10.9-13.6-16.7-20.7c12.9,4.5,25.1,8.8,37.4,13c5.7,1.9,11.5,4,17.4,5
		c5.6,1,8,4,9.2,9c5.5,24.3,12.1,48.4,16.3,73c13.1,77.2,15.7,155.1,13,233.2c0,1.1-0.2,2.2-0.4,3.2c-14.1-0.5-28-1-42.5-1.5
		c-2.8-60.5-3.2-122-11.9-182.8c-0.5,0-1.1,0-1.6,0c-0.9,7.6-2.2,15.1-2.7,22.7c-1,15.9-3.3,32-2,47.8c2,26,6.6,51.7,9.8,77.6
		c2.4,19.9,4.2,39.9,6.5,59.8c0.5,4.5-1.1,7.4-5,8.8c-8.2,3-16.3,7.2-24.8,8.4c-12.7,1.8-25.6,1.6-38.5,1.7c-3.4,0-6.7-2.1-10.1-3.2
		c-1.9-0.6-4-1.4-6-1.4c-13.2-0.1-26.4,0-39.6,0.1c-1.4,0-3,0.1-4.2,0.8c-6.1,3.8-12.9,4.6-19.8,4.5c-14.4-0.1-28.7-0.7-42.5-5.6
		c-15.2-5.3-16.6-6.8-15.2-22.5c2-22.6,4.8-45.1,7.3-67.6c1.1-9.4,2.3-18.8,3.5-28.1c0.1-1.1,0.6-2.1,0.9-3.2
		c1.3,0.6,2.5,1.7,3.8,1.8c11.4,0.1,22.8,0.1,34.2,0c1.1,0,2.2-0.4,3.3-0.6c0-0.5,0-0.9,0-1.4c-1.3-0.2-2.6-0.6-3.9-0.6
		c-11.1,0-22.1,0-33.2,0.1C61.4,272.2,60,272.8,58.6,273.1z M238.9,274.3c-5.1-3.1-38.2-2.5-40.6,0
		C212.1,274.3,225.5,274.3,238.9,274.3z M157.3,209.6c-3.7,0.3-5.9,2.3-6.2,5.8c-0.3,3.2,3,6.3,6.3,6.1c3.6-0.3,5.7-2.2,5.6-6
		C162.9,211.7,160.6,210.1,157.3,209.6z M163.1,251c-0.1-3.6-2.7-6.2-5.9-6.2c-3.3,0-6.5,3.2-6.1,6.3c0.5,3.5,2.7,5.7,6.2,5.6
		C160.8,256.5,162.9,254.3,163.1,251z"/>
	<path d="M181.7,17.8c-0.9,4.7-1.6,9-2.5,13.3c-0.5,2.7-2.1,3.6-4.9,3.2c-6.9-0.8-12.2-4.2-16.8-9.1c-3.9-4.2-9.4-4.2-13.3,0.1
		c-4.7,5.1-10.2,8.8-17.3,8.8c-1.4,0-3.8-1.4-4.2-2.7c-2.5-8.1-3.2-16.3-0.5-24.5c1-2.9,2.3-4,5.4-2.6c5.9,2.7,11.7,5.5,17.9,7.4
		c4,1.2,8.2,1.5,12.6-0.9c5.6-3.1,11.9-4.9,18.1-7.1c0.7-0.2,2.6,1.3,2.9,2.3C180.2,10,180.9,14,181.7,17.8z"/>
	<path d="M154.9,108.9c-1.7,1.5-2.8,3.2-3.6,3.1c-1.2-0.2-2.7-1.5-3.2-2.6c-0.2-0.6,1.4-2.8,2.3-2.8
		C151.6,106.5,152.9,107.8,154.9,108.9z"/>
	<path d="M154.8,54.1c-1.6,1.5-2.7,3.1-3.5,3c-1.2-0.2-2.2-1.6-3.3-2.5c1-1,1.8-2.5,3-2.9C151.8,51.4,153.1,52.9,154.8,54.1z"/>
	<path d="M151.1,85.6c-1.4-1.6-3.1-2.6-3-3.4c0.1-1.2,1.6-2.2,2.5-3.4c1,1,2.6,1.8,2.9,3C153.8,82.6,152.3,83.8,151.1,85.6z"/>
	<path d="M150.8,139.8c-1.3-2.2-2.7-3.5-2.6-4.7c0-0.9,1.9-2.4,2.9-2.4c0.9,0,2.7,1.7,2.6,2.6C153.6,136.5,152.2,137.7,150.8,139.8z
		"/>
</g>
</svg>
