<?xml version="1.0" encoding="utf-8"?>
<!-- Generator: Adobe Illustrator 25.0.0, SVG Export Plug-In . SVG Version: 6.00 Build 0)  -->
<svg version="1.1" id="Capa_1" xmlns="http://www.w3.org/2000/svg" xmlns:xlink="http://www.w3.org/1999/xlink" x="0px" y="0px"
	 viewBox="0 0 260.7 400" style="enable-background:new 0 0 260.7 400;" xml:space="preserve">
<g>
	<path d="M154.9,0c7.8,6.1,8.7,14.8,8.1,23.6c-0.3,4.4-1.9,8.9-3.6,13c-2.9,7-2.9,13.9,0,20.8c4,9.7,8.2,19.4,11.7,29.3
		c6.2,17.7,5.8,36,2.1,54c-5.3,25.2-2.6,49.3,6.3,73.1c4.5,12,8,24.4,11.6,36.8c1,3.4,1,7.2,1.1,10.8c0.3,9.5,2.5,18.5,5.4,27.4
		c4.2,12.6,8.2,25.2,11.7,38c4,14.7,12.8,24.1,28.1,26.8c0.8,0.1,1.5,0.2,2.3,0.4c7.2,1.5,8.1,2.7,8.2,9.6c4.3,2.7,8.5,5.3,12.8,8
		c-8.8,2-16.9,4.2-25.1,5.7c-5.5,1-11.1,1-16.6,1.6c-1.2,0.1-2.7,0.2-3.5,1c-4.9,4.3-10,7.9-17.8,6.4c1,1.4,1.6,2.1,2,2.8
		c0.7,1.3,1.2,2.6,1.8,3.9c-1.5,0.3-2.9,0.9-4.4,0.8c-2.5-0.1-4.9-0.5-7.4-0.9c-5.8-1.1-11.2-0.1-16.7,2.2c-3.1,1.3-6.8,1.5-10.2,2
		c-4.4,0.6-8.8,1.1-13.2,1.3c-3.7,0.2-7.5-1.2-11.1,1.2c-1,0.7-3,0-4.6-0.1c-2.2,0-4.3,0-6.5,0c-1.6,0-3.3,0.6-4.6,0.1
		c-8.2-2.8-16.8-1-25-2.6c-3.2-0.6-6.6-0.7-9.4-2c-6.5-3.2-13-3-19.8-1.8c-0.1,0-0.3,0.1-0.4,0.1c-2.8-0.1-5.5-0.2-8.3-0.4
		c1-2.1,1.9-4.1,3.1-6.5c-6.9,1.1-12.2-2.1-17-6.6c-0.6-0.6-1.6-1-2.4-1c-11.6,0.7-22.7-2.2-33.7-5.4C7,372.7,4,372.6,0,372
		c4.8-3,9-5.7,13.3-8.4c0.1-7.1,1-8.3,9-9.7c11.8-2.1,21.4-7.3,26.5-18.8c1.5-3.4,2.6-7.1,3.7-10.7c3.4-10.9,6.5-21.9,10.2-32.7
		c3.5-10.1,6.2-20.4,6.4-31.2c0.3-11.1,3.6-21.5,7.2-31.8c3.9-11.3,7.9-22.6,11.3-34c5.1-17.6,4.2-35.5,0.6-53.3
		c-5.2-25.6-2.1-50.2,9.2-73.8c1.2-2.6,2.4-5.2,3.6-7.8c4.1-8.5,4.2-16.9,0.1-25.5c-4.2-8.9-4-18.2-0.1-27.2
		c1.2-2.7,3.7-4.9,5.6-7.3c0.8,0,1.6,0,2.3,0c6.2,4,12.5,7.9,18.7,12c2.3,1.5,4.2,1.5,6.4,0c6.2-4,12.5-8,18.7-12
		C153.3,0,154.1,0,154.9,0z"/>
</g>
</svg>
